<?xml version="1.0" standalone="no"?><!DOCTYPE svg PUBLIC "-//W3C//DTD SVG 1.1//EN" "http://www.w3.org/Graphics/SVG/1.1/DTD/svg11.dtd"><svg width="100%" height="100%" viewBox="0 0 1138 1036" version="1.1" xmlns="http://www.w3.org/2000/svg" xmlns:xlink="http://www.w3.org/1999/xlink" xml:space="preserve" style="fill-rule:evenodd;clip-rule:evenodd;stroke-linejoin:round;stroke-miterlimit:1.41421;"><g id="Flamingo"><g id="Body Color"><path d="M528.27,89.5215l609.768,351.309l-939.668,106.694l-66.7002,-49.2603l-28.047,-109.128l276.776,-269.861l-212.563,-17.5937l-7.12375,58.7392l-61.7331,8.69815l-11.8615,131.794l-86.5218,-87.5787l16.0691,-107.413l108.233,-82.6474l366.408,53.4556l-312.394,296.447l48.9909,-5.3925l300.368,-278.263Z" style="fill:#ff81e1;"/></g><g id="Legs Color"><path d="M471.397,516.6l170.667,150.191l-92.2208,305.65l-97.1894,11.5676l1.90395,17.2974l102.599,-10.3714l105.488,-326.409l-173.502,-150.211l-17.746,2.28534Z" style="fill:#7b5976;"/><path d="M532.56,509.335l170.64,149.872l-109.429,349.903l-97.5461,9.47572l2.53863,17.9982l102.478,-11.4731l117.962,-368.89l-167.576,-149.527l-19.0673,2.64144Z" style="fill:#7b5976;"/></g><g id="Knees"><path d="M682.753,652.418l49.9369,-5.49663l-24.8779,31.032l-25.059,-25.5353Z" style="fill:#7d5876;"/><path d="M620.183,659.305l49.9369,-5.49663l-24.8779,31.032l-25.059,-25.5353Z" style="fill:#7d5876;"/></g><g id="Body Outline"><path d="M165.467,537.711l-1.1484,-0.213562l-0.990622,-0.618942l-60.9102,-56.2623l-0.648818,-0.845961l-0.327981,-1.01442l-15.9388,-111.542l0.0360246,-1.09122l0.407887,-1.01276l0.730326,-0.811593l299.216,-233.722l-199.643,-38.8534l-12.8184,54.6676l-0.589462,1.22442l-1.05202,0.860189l-1.31711,0.334495l-59.8276,1.81618l-21.6219,107l-4.0953,20.2664l-0.447615,1.09278l-0.819958,0.849822l-1.07608,0.486404l-1.17966,0.0540415l-1.11604,-0.385981l-0.894223,-0.771293l-76.4204,-96.5193l-0.475944,-0.84086l-0.197431,-0.945827l0.0998174,-0.961043l27.7247,-105.01l0.522838,-1.08052l0.890422,-0.805002l116.626,-70.3094l1.16927,-0.417918l1.23982,0.0685618l358.36,93.2237l1.05169,0.496346l0.798567,0.845397l0.435672,1.07824l0.0128875,1.16286l-0.411668,1.08763l-0.779634,0.862888l-335.535,254.854l38.9363,0l328.178,-243.113l1.20009,-0.544493l1.31783,-0.00347063l1.20294,0.538164l567.67,415.915l0.866913,0.969375l0.399217,1.23768l-0.137105,1.29322l-0.649859,1.12646l-1.0509,0.766052l-1.27129,0.273958l-945.7,3.24392ZM166.678,531.434l934.934,-3.20699l-558.116,-408.916l-327.153,242.354l-0.884008,0.458191l-0.983073,0.158039l-49.2868,0l-1.26561,-0.26667l-1.05041,-0.754666l-0.656596,-1.11434l-0.151141,-1.28453l0.380014,-1.23631l0.846553,-0.977866l337.809,-256.581l-350.83,-91.265l-114.406,68.9712l-26.9996,102.263l71.2512,89.9906l2.75675,-13.6423l22.1146,-109.438l0.375585,-0.976965l0.676114,-0.798996l0.901355,-0.532056l1.02623,-0.205869l59.9057,-1.81855l12.9576,-55.2612l0.489154,-1.08977l0.861109,-0.827868l1.10818,-0.445895l1.19452,0.000746914l209.362,40.7447l1.10201,0.443654l0.857981,0.82166l0.490878,1.0818l0.0533593,1.18676l-0.391813,1.12149l-0.780782,0.895342l-303.209,236.84l15.5242,108.64l59.1853,54.669Z" style="fill:#333;"/></g><g id="Details"><path d="M116.881,70.6824l-12.9821,8.18015l12.2401,19.4254l12.582,-7.92804l-4.8158,-8.00359l-7.02424,-11.6739Z" style="fill:#353332;"/><path d="M8.23037,179.769l52.2277,16.4871l37.9861,-11.9904l-17.0024,89.6927l-73.2114,-94.1894Z" style="fill:#1a1a1a;"/><path d="M590.999,248.637l244.326,167.8l0,76.8579" style="fill:none;stroke-width:6.25px;stroke:#353332;"/><path d="M545.288,278.637l204.326,137.8l0,76.8579" style="fill:none;stroke-width:6.25px;stroke:#353332;"/><path d="M509.039,318.637l164.326,97.7996l0,76.8579" style="fill:none;stroke-width:6.25px;stroke:#353332;"/></g></g></svg>