<?xml version="1.0" standalone="no"?><!DOCTYPE svg PUBLIC "-//W3C//DTD SVG 1.1//EN" "http://www.w3.org/Graphics/SVG/1.1/DTD/svg11.dtd"><svg width="100%" height="100%" viewBox="0 0 1588 2144" version="1.1" xmlns="http://www.w3.org/2000/svg" xmlns:xlink="http://www.w3.org/1999/xlink" xml:space="preserve" style="fill-rule:evenodd;clip-rule:evenodd;stroke-linejoin:round;stroke-miterlimit:1.41421;"><g id="Palm Tree"><g id="Layer2"><g id="Trunk Color"><path d="M732.009,484.165l99.8408,0l6.68215,90.2756l-96.0298,30.3737l-10.4931,-120.649Z" style="fill:#684500;"/><path d="M750.303,670.509l99.8408,0l6.68215,90.2756l-96.0298,30.3737l-10.4931,-120.649Z" style="fill:#684500;"/><path d="M861.376,739.054l-100.918,53.4909l17.6306,124.874l83.41,-23.6959l10.6302,-15.8237l-10.7527,-138.845Z" style="fill:#b89448;"/><path d="M837.167,568.564l-93.4026,34.4777l7.69944,90.49l96.2992,-7.93662l-10.5961,-117.031Z" style="fill:#b7954a;"/><path d="M865.446,864.896l-86.8234,51.696l9.89515,83.4227l84.5905,-30.8998l-7.6622,-104.219Z" style="fill:#68471b;"/><path d="M877.424,958.762l-94.9701,32.0552l10.5856,130.237l98.1942,-17.2282l-13.8098,-145.064Z" style="fill:#b89448;"/><path d="M891.557,1098.37l11.9722,74.6443l-49.3978,25.1797l-66.7491,-17.2282l1.42553,-75.7997l102.749,-6.79615Z" style="fill:#68471b;"/><path d="M882.714,1316.75l-105.845,-49.5326l12.7462,-99.994l114.404,4.30423l-21.3049,145.222Z" style="fill:#b89448;"/><path d="M778.662,1259.67l-3.90906,120.779l121.081,97.7626l-7.04967,-141.009l0,-30.2315l-110.122,-47.3012Z" style="fill:#68471b;"/><path d="M730.929,1710.61l-6.39259,195.922l189.578,11.4402l6.72113,-36.6992l-18.6098,-110.596l-171.297,-60.0666Z" style="fill:#68471b;"/><path d="M774.263,1374.65l-27.5305,120.7l79.1278,151.52l65.3292,53.1798l6.76011,-224.001l-123.687,-101.398Z" style="fill:#b89448;"/><path d="M750.842,1618.05l-21.4998,101.319l125.029,114.322l63.8591,54.5844l-24.6404,-165.35l-142.747,-104.876Z" style="fill:#b89448;"/><path d="M746.81,1497.93l1.38655,114.9l58.5391,94.2243l102.722,82.1124l-21.0418,-102.938l-141.606,-188.299Z" style="fill:#68471b;"/><path d="M723.207,1895.79l41.5028,125.66l133.12,-15.583l25.9762,-111.779l-200.599,1.70186Z" style="fill:#b89448;"/><path d="M902.906,1995.27l-16.2778,77.2206l-101.401,64.0224l-30.3018,-127.779l147.98,-13.4644Z" style="fill:#68471b;"/></g><path id="Trunk Outline" d="M740.906,432.585l58.065,561.22l7.01741,166.007l-15.9658,123.357l-4.96811,113.517l-21.5691,109.004l-1.65314,116.88l-20.4293,108.862l-3.30627,94.4912l-3.31497,94.4912l35.8905,106.668l29.9131,106.915l93.7938,-43.7502l35.3162,-183.036l-36.3951,-187.549l9.48378,-228.981l-11.5807,-128.029l20.4293,-172.93l-28.7037,-194.168l-13.808,-199.725l-31.4357,-214.344l-15.4612,-181.992l-33.7327,-49.5906l-47.5852,82.6831Z" style="fill:none;stroke-width:12.5px;stroke:#353332;"/></g><g id="Palm Tree1"><path id="Palm 1" d="M298.266,388.253l479.311,-363.827l-669.144,298.665l-96.4589,331.427l47.8728,160.25l190.212,-184.234l48.2067,-242.281Z" style="fill:#038341;"/><path id="Palm 11" d="M279.932,405.344l455.657,-393.047l-649.188,339.866l-75.5752,336.804l57.7859,156.948l178.337,-195.752l32.9838,-244.819Z" style="fill:none;stroke-width:12.5px;stroke:#353332;"/><path id="Palm 2" d="M266.919,410.1l-31.2056,359.131l101.892,189.323l175.772,-180.687l43.1196,-349.649l220.039,-403.857l-509.618,385.739Z" style="fill:#026431;"/><path id="Palm 21" d="M250.01,429.106l-8.71931,360.379l113.516,182.591l164.147,-191.311l21.2022,-351.659l194.391,-416.809l-484.536,416.809Z" style="fill:none;stroke-width:12.5px;stroke:#353332;"/><path id="Palm 3" d="M457.806,921.326l147.731,202.147l212.252,-195.446l29.2898,-609.32l-74.7979,-292.994l-244.441,397.74l-70.0349,497.873Z" style="fill:#038341;"/><path id="Palm 3 (Curve)" d="M504.809,931.28l165.466,187.907l193.64,-213.901l-26.1252,-609.464l-101.078,-284.997l-207.338,418.281l-24.5653,502.174Z" style="fill:none;stroke-width:12.5px;stroke:#353332;"/><path d="M776.536,24.3606l457.956,509.48l115.287,298.37l143.427,161.593l90.9834,-372.129l-325.262,-381.951l-482.391,-215.364Z" style="fill:#026431;"/><path d="M734.546,12.2974l488.876,479.889l133.693,290.589l153.238,152.322l67.5688,-377.084l-348.478,-360.895l-494.897,-184.821Z" style="fill:none;stroke-width:12.5px;stroke:#353332;"/><path d="M821.337,324.461l38.9111,565.485l160.366,185.867l127.86,-251.417l-142.561,-542.705l-235.36,-258.758l50.7837,301.527Z" style="fill:#026431;"/><path d="M796.555,311.718l60.0006,563.638l167.195,179.749l118.382,-256.016l-162.727,-537.003l-244.858,-249.788l62.0081,299.421Z" style="fill:none;stroke-width:12.5px;stroke:#353332;"/><path id="Palm 5" d="M776.536,24.3606l224.891,326.799l117.609,485.09l127.797,232.883l110.617,-359.529l-260.37,-451.131l-320.544,-234.112Z" style="fill:#038341;"/><path id="Palm 51" d="M734.546,12.2974l244.858,312.119l147.67,476.799l142.09,224.449l87.9505,-365.734l-288.032,-433.993l-334.537,-213.64Z" style="fill:none;stroke-width:12.5px;stroke:#353332;"/></g></g></svg>