<?xml version="1.0" standalone="no"?>
<!DOCTYPE svg PUBLIC "-//W3C//DTD SVG 1.1//EN" "http://www.w3.org/Graphics/SVG/1.1/DTD/svg11.dtd">
<svg width="100%" height="100%" viewBox="0 0 2583 1666" version="1.1" xmlns="http://www.w3.org/2000/svg" xmlns:xlink="http://www.w3.org/1999/xlink" xml:space="preserve" style="fill-rule:evenodd;clip-rule:evenodd;stroke-linejoin:round;stroke-miterlimit:1.41421;">
    <path d="M1311.5,1431.4C1309.7,1430.35 1307.75,1428.41 1305.5,1426.01C1303.1,1423.46 1302.95,1421.51 1304.15,1417.91C1309.4,1402.01 1319.75,1380.12 1330.09,1361.22C1329.49,1360.47 1328.74,1359.57 1328.14,1358.97C1326.35,1357.02 1326.04,1356.12 1328.29,1353.42C1331.44,1349.37 1340.59,1339.92 1344.94,1336.17C1347.64,1333.92 1348.54,1334.37 1351.09,1336.32C1353.64,1338.27 1355.89,1340.52 1357.69,1342.92C1359.79,1345.62 1359.49,1347.27 1356.94,1351.32C1344.34,1371.71 1324.7,1406.96 1316.14,1430.06C1315.09,1432.76 1313.6,1432.76 1311.5,1431.4ZM1269.04,1428.41C1263.34,1431.71 1255.7,1433.21 1248.05,1430.21C1243.7,1428.56 1239.2,1425.71 1235.59,1422.11C1231.55,1418.06 1226.45,1409.96 1231.55,1392.56C1237.1,1373.81 1251.19,1351.77 1267.24,1340.37C1274.29,1335.42 1282.39,1333.32 1289.89,1338.27C1294.24,1341.12 1297.84,1343.97 1301.44,1348.32C1306.09,1354.02 1306.54,1361.22 1304.59,1371.42C1301.44,1387.62 1288.69,1417.01 1269.04,1428.41ZM1257.65,1380.12C1246.4,1399.47 1243.85,1416.41 1247.45,1419.41C1251.5,1422.86 1263.2,1415.51 1276.09,1392.26C1289.59,1367.82 1291.84,1352.67 1288.69,1349.97C1284.49,1346.22 1269.04,1360.32 1257.65,1380.12ZM1385.75,1373.72C1388.63,1368.72 1392.88,1362.5 1398.04,1355.98C1408.65,1353.7 1424.12,1351.27 1432.31,1350.52C1434.74,1350.21 1435.95,1349.3 1435.2,1346.88C1434.29,1344.15 1432.16,1340.96 1430.49,1339.29C1428.37,1337.02 1425.79,1336.41 1422,1336.41C1410.78,1336.26 1393.79,1338.08 1381.81,1341.11C1379.08,1341.72 1378.17,1343.39 1378.92,1345.81C1379.38,1347.48 1380.14,1349.76 1380.74,1351.73C1374.53,1359.92 1369.37,1367.5 1366.34,1373.27C1364.21,1377.36 1364.82,1378.27 1366.79,1381.15C1368.76,1384.04 1371.19,1386.16 1374.37,1388.43C1377.71,1390.86 1378.47,1389.8 1381.05,1388.43C1385.29,1386.16 1390,1384.19 1392.27,1386.01C1394.85,1387.98 1397.88,1399.2 1391.51,1408.61C1385.6,1417.25 1376.65,1420.29 1371.04,1419.22C1367.09,1418.47 1360.12,1415.13 1356.02,1408.3C1354.96,1406.64 1354.2,1406.18 1352.84,1408.3C1351.62,1410.28 1350.71,1412.55 1350.26,1414.52C1349.65,1417.4 1350.26,1419.07 1352.38,1422.41C1356.78,1429.08 1365.73,1434.7 1373.46,1434.7C1385.14,1434.7 1396.22,1429.54 1405.77,1415.28C1414.26,1402.69 1414.11,1387.07 1401.68,1377.51C1396.82,1373.72 1391.36,1372.81 1385.75,1373.72ZM1191.5,1412.66C1195.1,1412.66 1197.95,1413.56 1199.75,1415.36C1201.7,1417.31 1203.35,1419.41 1204.24,1421.66C1205.44,1424.66 1204.4,1425.41 1201.85,1425.71C1193.9,1426.46 1182.2,1428.71 1172.3,1431.26C1168.85,1432.16 1166.6,1431.86 1164.2,1429.01C1161.95,1426.46 1159.25,1422.56 1157.6,1419.56C1155.95,1416.71 1156.25,1414.91 1158.05,1412.81C1168.55,1400.36 1194.8,1382.81 1206.94,1370.07C1213.84,1362.72 1219.54,1352.52 1217.59,1350.42C1215.19,1347.72 1198.1,1357.62 1188.2,1371.71C1186.55,1374.11 1185.5,1373.81 1183.85,1371.42C1178.75,1364.07 1179.8,1359.27 1182.35,1355.37C1188.65,1345.92 1197.8,1339.17 1205.44,1336.47C1210.84,1334.52 1215.64,1335.42 1219.39,1338.87C1223.29,1342.47 1226.89,1347.42 1229.14,1351.32C1231.69,1355.82 1232.29,1360.62 1229.44,1366.92C1221.65,1384.61 1195.85,1398.56 1178.45,1413.71C1182.95,1413.11 1187.3,1412.66 1191.5,1412.66ZM1706.79,1282.64L845.94,1282.64L869.42,1257.88L1731.52,1257.88L1706.79,1282.64ZM1751.39,991.158C1738.38,1022.75 1718.33,1064.74 1695.28,1104.88C1696.02,1137.59 1693.79,1181.44 1693.79,1198.9C1693.79,1204.48 1690.82,1205.96 1685.24,1207.45C1680.04,1208.93 1674.09,1209.68 1669.63,1210.05C1665.18,1210.43 1661.09,1209.31 1652.17,1205.96C1643.24,1202.62 1640.28,1199.64 1638.43,1185.53C1636.57,1172.15 1636.94,1139.81 1637.31,1114.17C1608.32,1071.06 1589,1025.72 1580.07,997.475C1577.47,989.667 1578.22,988.188 1582.67,983.733C1587.14,979.267 1587.88,974.063 1593.46,971.467C1598.65,968.867 1605.35,971.092 1612.4,971.092C1619.47,971.092 1626.17,969.604 1632.47,979.267C1641.39,993.383 1658.11,1027.2 1673.35,1059.91C1691.19,1023.87 1717.58,980.013 1732.81,957.717C1735.42,953.621 1740.24,955.483 1743.96,960.683C1747.31,965.513 1748.43,968.117 1751.02,971.833C1754,976.3 1755.11,982.613 1751.39,991.158ZM1266.07,1204.11C1266.44,1207.08 1265.33,1208.19 1262.36,1208.93C1256.78,1210.43 1251.95,1208.57 1247.49,1207.08C1243.03,1205.6 1238.94,1204.11 1231.13,1202.62C1221.84,1200.76 1218.13,1193.7 1215.53,1183.66C1206.98,1149.85 1209.21,1074.41 1214.79,1011.6C1214.04,1010.11 1212.93,1008.26 1211.81,1006.4C1207.35,997.475 1200.67,991.9 1197.69,981.496C1196.57,977.042 1198.07,975.179 1202.52,974.442C1226.3,969.604 1254.55,958.083 1281.3,959.2C1312.53,960.321 1331.84,967.004 1345.61,1002.31C1357.12,1016.43 1364.93,1030.18 1363.07,1052.11C1361.22,1075.51 1342.26,1108.97 1307.69,1127.18C1328.13,1145.02 1351.19,1162.86 1371.62,1176.22C1373.84,1177.73 1374.22,1179.2 1372.37,1182.18C1369.39,1186.63 1364.93,1187.75 1360.84,1189.24C1357.12,1190.73 1354.52,1193.7 1347.83,1197.79C1340.04,1202.25 1329.99,1200.39 1321.82,1196.3C1306.22,1188.87 1283.91,1173.26 1264.21,1156.91C1264.21,1173.26 1264.96,1189.24 1266.07,1204.11ZM829.79,982.983C829.045,978.517 829.415,976.3 833.507,975.55C859.52,970.346 887.39,958.083 918.982,959.2C949.453,960.321 968.407,965.888 981.79,999.333C996.657,1015.68 1007.43,1033.52 1004.46,1058.43C1001.49,1084.06 975.47,1123.83 933.103,1137.59C921.215,1141.3 915.261,1140.18 908.57,1133.87C907.09,1132.38 905.603,1132.38 904.115,1131.26C903.374,1156.91 902.999,1181.44 904.853,1203.36C905.232,1206.33 904.853,1207.45 901.136,1208.19C895.565,1209.31 889.628,1208.57 884.045,1206.72C879.22,1205.21 870.67,1203 866.211,1201.88C858.036,1200.02 853.949,1192.96 852.828,1182.92C849.111,1150.59 848.374,1085.92 853.207,1023.87C850.974,1022.01 849.111,1019.41 847.257,1016.06C843.54,1009 841.311,1006.03 835.365,999.333C831.649,995.25 830.903,991.158 829.79,982.983ZM1013.74,1117.89C1016.34,1117.15 1019.68,1116.4 1022.66,1116.03C1031.95,1071.8 1047.56,1022.37 1057.59,995.983C1062.05,984.475 1069.48,981.875 1078.41,979.637C1082.87,978.517 1086.95,977.408 1089.92,975.921C1086.95,970.346 1085.47,967.371 1085.84,965.513C1086.2,962.917 1086.58,962.542 1088.8,961.796C1095.13,959.938 1100.33,959.938 1107.02,960.683C1114.07,961.429 1118.54,962.171 1123,962.171C1130.43,962.171 1140.47,964.775 1146.04,978.158C1155.7,1000.82 1161.28,1043.93 1167.97,1088.16C1174.29,1132.01 1180.98,1176.98 1191.01,1203C1192.87,1207.82 1192.87,1210.43 1186.55,1211.17C1180.22,1211.91 1174.29,1210.79 1166.12,1210.79C1153.85,1210.79 1143.07,1209.31 1134.52,1191.47C1130.06,1182.55 1126.34,1169.17 1122.62,1153.93C1101.07,1155.43 1079.89,1156.54 1063.17,1156.91C1059.07,1171.4 1055.74,1185.16 1053.14,1197.79C1052.39,1202.25 1051.64,1203.74 1049.04,1204.11C1046.44,1204.48 1043.1,1204.48 1037.89,1202.25C1032.32,1200.02 1031.95,1195.56 1024.52,1189.61C1017.83,1184.41 1014.86,1177.35 1015.6,1165.45C1015.97,1160.25 1016.34,1154.68 1017.09,1149.1C1016.72,1148.36 1016.72,1147.62 1016.34,1146.88C1013.36,1137.59 1010.39,1133.49 1009.64,1124.94C1009.28,1120.86 1009.28,1119.01 1013.74,1117.89ZM1099.59,1025.35C1093.64,1049.51 1084.72,1079.61 1075.8,1110.08C1088.06,1109.33 1101.07,1108.96 1113.71,1108.6C1108.87,1079.23 1104.05,1048.76 1099.59,1025.35ZM965.43,1018.66C955.03,1013.08 928.272,1013.08 908.947,1020.15C908.947,1036.5 907.463,1062.15 905.972,1090.76C936.447,1077.37 971.005,1039.47 965.43,1018.66ZM1325.54,1017.92C1315.12,1009 1289.11,1010.11 1270.15,1015.68C1268.29,1036.5 1266.44,1061.4 1265.33,1087.78C1294.68,1077.38 1328.13,1043.19 1325.54,1017.92ZM2275.92,791.192L1997.44,926.513L2275.92,1061.84L2554.42,926.513L2275.92,791.192ZM307.404,791.192L28.9163,926.513L307.404,1061.84L585.891,926.513L307.404,791.192ZM1495.35,1191.47C1494.99,1197.04 1494.25,1199.28 1492.02,1201.14C1490.16,1202.62 1485.7,1204.48 1481.61,1205.21C1477.16,1205.96 1475.66,1205.21 1470.84,1203.74C1466.01,1202.25 1463.03,1201.14 1455.22,1200.02C1447.79,1198.9 1442.97,1195.18 1441.12,1188.87C1428.09,1144.64 1439.62,1074.04 1441.12,1029.44C1431.07,1029.81 1421.77,1030.18 1413.6,1030.55C1406.17,1030.92 1402.08,1030.55 1398.74,1026.47C1395.4,1022.37 1392.43,1019.78 1388.33,1015.68C1383.87,1011.23 1380.89,1008.63 1378.66,1003.42C1376.81,999.333 1375.7,990.783 1374.21,985.213C1372.35,978.158 1373.84,977.408 1381.27,976.658C1429.58,972.583 1474.55,961.058 1522.87,962.542C1532.16,962.917 1535.49,965.15 1539.58,971.833C1544.05,979.637 1547.39,987.812 1549.99,991.9C1552.97,996.738 1557.05,1000.08 1558.17,1005.65C1558.91,1008.63 1558.91,1010.86 1558.91,1013.83C1558.91,1016.43 1558.55,1018.29 1554.45,1019.41C1544.42,1022.01 1520.63,1024.23 1494.25,1026.08C1496.12,1073.29 1497.21,1150.21 1495.35,1191.47ZM827.195,693.129C844.657,681.608 876.99,672.317 905.232,672.317C935.711,672.317 972.128,687.183 977.703,723.975C987.365,739.583 990.711,751.846 989.603,765.596C988.482,778.229 981.049,793.838 961.72,805.354C972.503,812.05 981.79,821.717 985.886,831.746C997.032,843.638 1001.11,856.642 1000.75,867.792C999.253,909.042 936.457,925.029 908.211,925.4C889.628,925.771 881.457,923.913 876.62,917.967C873.274,913.879 869.932,912.021 866.582,907.188C860.261,906.817 857.29,904.958 853.207,904.213C847.257,903.096 845.774,901.979 844.657,896.042C835.745,848.467 837.224,781.204 843.54,730.658C839.082,724.342 835.745,721.746 832.77,717.292C828.674,711.338 827.195,706.5 824.59,700.929C822.728,697.213 822.728,696.096 827.195,693.129ZM1754.74,893.804C1751.39,897.154 1748.79,900.129 1740.62,904.213C1732.81,908.304 1729.83,911.279 1726.87,912.763C1723.9,914.25 1717.58,915.358 1710.89,911.279C1695.65,902.358 1667.4,879.683 1650.67,863.333C1650.67,885.629 1650.32,903.838 1649.94,913.504C1649.94,917.967 1648.82,918.338 1645.11,918.713C1639.17,919.075 1633.96,918.713 1624.3,915C1615,911.279 1612.78,911.642 1606.09,909.783C1599.77,907.925 1597.54,908.304 1595.67,899.013C1584.9,844.013 1597.17,733.263 1598.28,681.225C1598.28,676.4 1600.13,676.029 1603.85,675.296C1607.94,674.55 1614.26,676.029 1621.32,678.629C1628.38,681.225 1632.47,683.088 1638.41,684.583C1644.36,686.067 1648.08,690.158 1648.82,701.304C1649.94,717.292 1650.32,742.921 1650.67,770.796C1676.69,744.042 1713.86,699.446 1730.21,672.692C1732.81,668.604 1735.79,669.346 1739.13,672.692C1742.84,676.4 1745.08,680.871 1748.06,687.554C1751.02,694.237 1753.63,695.729 1755.48,702.417C1757.34,709.479 1754.74,714.313 1751.02,722.863C1743.22,739.95 1710.13,787.15 1678.55,819.108C1698.62,840.296 1732.81,870.025 1754.36,886.371C1757.71,888.979 1758.09,890.467 1754.74,893.804ZM951.685,840.659C940.172,830.259 916.38,826.913 891.485,829.888C891.11,845.871 891.485,861.475 892.601,878.58C923.814,877.459 950.943,857.021 951.685,840.659ZM1547.01,700.554C1556.29,715.429 1558.53,730.658 1558.53,744.413C1558.91,759.65 1552.96,763.363 1545.89,768.575C1538.83,773.404 1535.49,776.746 1530.28,780.833C1525.08,785.296 1520.25,783.063 1518.77,775.258C1513.94,749.617 1505.77,725.083 1490.89,718.767C1446.29,755.558 1441.84,851.067 1474.54,874.479C1500.55,879.683 1525.45,860.358 1540.32,835.833C1543.67,830.629 1546.64,830.258 1551.1,836.204C1555.93,842.154 1557.42,851.446 1558.91,859.25C1560.39,867.433 1566.34,874.858 1560.39,887.488C1553.7,902.358 1540.69,914.621 1524.71,919.825C1502.04,926.888 1471.94,918.338 1447.41,894.554C1421.39,880.433 1400.96,855.9 1398.73,809.075C1396.12,751.475 1424.74,689.408 1463.77,673.058C1476.02,667.858 1484.21,669.721 1496.46,680.121C1515.06,684.204 1536.24,683.833 1547.01,700.554ZM1318.84,790.122C1318.84,759.651 1301.76,732.893 1278.34,725.455C1228.16,756.676 1224.82,832.868 1252.32,864.455C1286.51,872.259 1318.84,837.322 1318.84,790.122ZM1154.95,858.879C1162.02,859.617 1163.14,861.475 1165.36,865.196C1167.59,868.908 1167.97,873 1170.19,878.196C1173.17,885.258 1176.51,889.35 1175.77,899.758C1175.4,902.733 1174.65,903.467 1171.31,903.838C1133.41,906.817 1101.44,917.967 1073.94,923.913C1067.25,925.4 1066.51,924.65 1063.54,920.933C1060.93,917.967 1057.96,915 1055.36,909.425C1050.16,908.675 1047.92,907.567 1043.47,906.817C1037.89,906.071 1034.92,904.588 1033.81,897.892C1027.49,855.163 1031.95,824.683 1033.81,780.833C1035.67,737.346 1038.27,703.163 1038.64,682.346C1038.64,677.517 1041.24,677.892 1045.7,677.15C1049.78,676.4 1057.59,673.433 1063.17,673.8C1073.58,674.175 1076.54,677.892 1081.74,680.871C1085.09,682.729 1087.69,683.467 1088.07,689.779C1089.92,728.063 1093.27,821.338 1091.04,864.454C1114.45,859.25 1144.18,857.763 1154.95,858.879ZM954.659,733.261C943.888,721.745 917.868,723.607 898.538,729.92C897.059,748.878 895.572,765.97 894.459,781.945C929.388,775.257 954.293,749.615 954.659,733.261ZM1179.11,795.696C1179.84,741.808 1211.43,694.983 1239.68,680.871C1247.49,676.771 1256.04,675.658 1266.44,681.225C1268.29,682.346 1270.15,683.467 1271.65,684.204C1343,682.346 1371.62,747.017 1371.62,800.529C1371.62,870.771 1333.34,903.467 1303.24,913.142C1280.94,920.196 1262.36,910.533 1244.89,896.779C1204.38,886.371 1178.37,844.379 1179.11,795.696ZM1320.41,544.462C1323.49,546.071 1327.77,548.75 1330.58,551.688C1332.72,553.967 1332.18,556.642 1331.39,559.188C1327.77,571.363 1324.69,584.213 1322.02,596.663C1332.05,580.458 1351.87,556.108 1364.31,543.933C1367.11,541.121 1368.31,541.392 1371,543.262C1374.08,545.408 1377.82,549.558 1379.82,552.496C1382.23,555.971 1381.57,558.517 1379.02,562.804C1366.31,584.342 1354.67,607.633 1346.64,625.292C1345.31,628.371 1343.97,628.371 1341.82,626.638C1340.07,625.15 1339.28,624.488 1337.13,622.75C1335,621.012 1335.13,618.738 1336.2,615.387C1339.69,605.083 1347.71,589.167 1355.74,574.175C1343.97,588.763 1330.18,607.358 1322.02,620.875C1320.15,623.95 1319.07,624.092 1316.66,622.883C1313.85,621.546 1311.72,620.204 1309.44,618.6C1307.03,616.867 1305.95,614.588 1306.36,610.571C1307.15,602.408 1309.04,590.504 1311.85,578.454C1303.69,592.642 1292.43,615.254 1286.82,627.971C1285.89,630.113 1284.14,630.113 1282.67,629.046C1280.25,627.433 1278.12,625.025 1276.92,623.283C1276.12,621.817 1275.84,620.075 1276.65,617.667C1283.87,597.725 1302.74,562.267 1314.12,546.071C1316,543.4 1317.46,542.863 1320.41,544.462ZM1219.53,544.462C1222.61,546.071 1226.89,548.75 1229.69,551.688C1231.84,553.967 1231.31,556.642 1230.51,559.188C1226.89,571.363 1223.82,584.213 1221.13,596.663C1231.17,580.458 1250.98,556.108 1263.42,543.933C1266.23,541.121 1267.44,541.392 1270.11,543.262C1273.19,545.408 1276.93,549.558 1278.95,552.496C1281.36,555.971 1280.69,558.517 1278.13,562.804C1265.43,584.342 1253.79,607.633 1245.75,625.292C1244.42,628.371 1243.08,628.371 1240.94,626.638C1239.2,625.15 1238.39,624.488 1236.26,622.75C1234.11,621.012 1234.25,618.738 1235.31,615.387C1238.79,605.083 1246.82,589.167 1254.85,574.175C1243.08,588.763 1229.31,607.358 1221.13,620.875C1219.26,623.95 1218.19,624.092 1215.77,622.883C1212.97,621.546 1210.82,620.204 1208.56,618.6C1206.15,616.867 1205.07,614.588 1205.48,610.571C1206.28,602.408 1208.15,590.504 1210.97,578.454C1202.8,592.642 1191.56,615.254 1185.94,627.971C1185,630.113 1183.26,630.113 1181.79,629.046C1179.38,627.433 1177.23,625.025 1176.04,623.283C1175.23,621.817 1174.97,620.075 1175.77,617.667C1182.99,597.725 1201.87,562.267 1213.24,546.071C1215.11,543.4 1216.59,542.863 1219.53,544.462ZM1100.5,597.587C1103.71,585.683 1119.11,557.583 1131.68,543.933C1133.83,541.658 1134.89,541.392 1137.04,543.796C1138.51,545.533 1139.45,547.146 1140.65,549.021C1142.53,552.096 1142.25,555.433 1139.45,559.587C1120.45,587.958 1109.88,614.454 1114.55,617.267C1120.98,621.012 1145.61,595.454 1168.22,543.4C1169.15,541.121 1170.89,540.45 1173.04,542.196C1175.17,543.933 1177.19,545.408 1178.53,547.688C1179.86,549.958 1180.12,552.096 1178.79,555.971C1169.55,583.408 1154.7,606.292 1142.53,619.275C1130.75,631.846 1121.65,630.113 1115.63,627.971C1111.88,626.638 1106.53,623.821 1102.52,619.538C1097.7,614.454 1097.96,607.096 1100.5,597.587ZM1479.89,548.213C1489.13,543.663 1499.84,541.521 1509.07,541.521C1518.84,541.521 1527.94,545.671 1533.56,552.096C1540.92,560.392 1537.18,565.742 1533.69,570.429C1527.26,578.992 1510.67,591.7 1493.28,597.996C1498.36,605.625 1506.12,614.858 1511.34,619.538C1513.35,621.279 1513.08,622.75 1511.48,623.688C1509.74,624.767 1506.79,625.963 1504.39,626.358C1500.77,627.038 1499.7,626.763 1495.82,623.95C1489.67,619.413 1482.04,611.104 1476.28,603.483C1472,611.379 1467.99,619.275 1464.51,626.763C1463.17,629.842 1461.43,628.908 1459.28,627.3C1457.69,626.1 1456.48,624.896 1455,622.488C1453.54,620.075 1452.74,617.938 1454.07,614.588C1460.77,598.529 1473.48,574.838 1484.04,558.517C1481.77,556.379 1480.43,554.642 1478.97,552.896C1477.23,550.892 1477.49,549.421 1479.89,548.213ZM1024.32,605.892C1034.35,613.254 1043.99,616.867 1051.76,616.867C1056.97,616.867 1059.12,614.317 1056.57,610.571C1054.43,607.496 1043.05,598.796 1038.1,593.042C1032.08,586.088 1033.15,579.125 1037.03,572.837C1046.94,556.913 1060.04,548.75 1069.15,544.333C1074.89,541.521 1080.12,540.45 1085.61,543.796C1089.09,545.942 1093.64,549.558 1095.79,552.633C1098.19,555.971 1097.92,559.329 1096.31,563.2C1092.43,572.563 1085.61,581.942 1079.58,588.354C1077.84,590.229 1076.37,590.637 1074.64,588.892C1073.03,587.292 1071.43,584.608 1070.76,583.008C1069.82,580.596 1070.76,578.329 1071.97,575.913C1074.89,570.288 1084.14,556.508 1081.74,555.042C1078.92,553.433 1061.66,565.879 1054.97,576.183C1050.27,583.408 1052.69,586.354 1055.63,589.563C1058.58,592.779 1065.4,597.725 1068.75,601.475C1072.76,605.892 1075.17,611.508 1069.68,618.2C1062.59,626.896 1054.43,628.638 1049.07,628.638C1042.25,628.638 1032.75,626.1 1025.12,619C1021.64,615.792 1020.3,612.304 1020.58,607.763C1020.71,605.083 1022.45,604.55 1024.32,605.892ZM1563.1,587.738L1741.48,587.738L1717.02,612.512L1563.1,612.512L1563.1,587.738ZM837.215,587.738L990.82,587.738L990.82,612.512L812.445,612.512L837.215,587.738ZM1522.98,555.71C1521.92,553.298 1511.62,554.639 1504.26,557.181C1498.49,565.61 1492.2,575.51 1486.05,586.089C1503.05,579.66 1525.39,561.056 1522.98,555.71ZM1409.45,546.337C1421.22,543.4 1437.82,542.058 1448.53,542.058C1452.14,542.058 1454.41,542.863 1456.42,544.871C1458.02,546.479 1459.51,549.279 1460.58,551.688C1461.24,554.104 1460.17,554.767 1457.63,555.042C1450.12,555.708 1435.14,557.717 1425.37,559.854C1421.5,566.146 1417.22,573.638 1412.79,581.533C1417.07,581.129 1420.83,580.871 1423.37,580.871C1426.17,580.871 1428.04,581.404 1429.39,583.137C1430.6,584.608 1432.19,587.021 1432.87,588.496C1433.81,590.504 1433.14,591.575 1431.27,591.837C1424.3,592.904 1414.14,594.379 1404.5,596.921C1401.69,602.408 1399.01,607.633 1396.61,612.583C1404.23,611.104 1411.07,610.571 1416.68,610.571C1419.62,610.571 1421.89,611.104 1423.51,612.842C1425.12,614.588 1426.84,616.867 1427.66,618.738C1428.72,621.279 1427.66,622.213 1425.37,622.488C1416.01,623.821 1401.83,625.963 1392.73,628.771C1388.04,630.246 1387.1,629.575 1385.09,627.971C1383.49,626.763 1381.34,625.025 1380.27,623.688C1378.53,621.675 1377.6,620.342 1379.07,616.592C1385.5,599.871 1397.94,573.767 1408.5,556.246C1407.84,554.367 1407.17,552.096 1406.78,550.763C1406.12,548.213 1407.04,547.013 1409.45,546.337ZM2220.98,763.65L1856.36,586.467C1789.31,559.85 1706.74,533.333 1642.94,516.204C1638.25,521.958 1628.52,530.35 1611.51,530.35C1606.13,530.35 1600.2,529.563 1592.31,527.804L1591.94,527.721C1469.98,498.858 1335.81,482.963 1214.17,482.963C1172.81,482.963 1133.39,484.771 1097.01,488.354C983.72,504.192 867.736,532.558 765.557,568.425L363.799,763.65L698.249,926.158L363.799,1088.68L1292.39,1539.9L2220.98,1088.67L1886.55,926.158L2220.98,763.65ZM1733.52,436.582C1747.88,436.923 1757.81,392.348 1763.76,369.878C1750.3,381.665 1734.55,393.407 1718.92,405.053C1718.47,422.465 1723.23,436.344 1733.52,436.582ZM810.974,259.633C826.687,248.741 842.42,243.324 854.808,248.487C863.32,251.962 872.77,258.258 877.058,264.649C881.962,272.103 882.908,280.224 880.349,290.124C877.783,300.041 876.207,312.12 874.908,321.128C874.558,323.628 872.845,325.866 868.549,324.599C860.366,322.262 853.012,314.962 853.945,299.691C854.949,283.503 862.362,264.487 853.237,259.687C841.987,253.441 798.741,289.908 784.545,340.141C770.653,389.212 788.262,428.67 805.741,435.058C828.837,443.262 852.903,415.616 864.449,367.732C865.112,364.245 868.428,363.345 870.908,366.583C883.345,383.332 870.003,409.412 860.349,421.278C843.862,441.37 820.091,448.545 801.957,445.766C786.941,443.428 769.783,430.445 761.253,408.249C738.82,350.803 777.562,281.924 810.974,259.633ZM887.208,396.712C890.612,382.595 904.008,351.058 911.928,333.437C891.82,327.233 910.799,287.445 922.674,284.549C932.441,282.095 933.37,299.112 929.595,318.653C939.245,315.308 948.77,308.516 958.853,298.778C962.149,295.745 964.553,294.683 967.187,296.524C974.337,301.324 984.082,312.449 976.945,323.566C965.866,340.758 954.862,361.762 953.324,377.537C951.787,393.303 957.766,403.545 966.27,402.028C976.853,400.337 986.587,382.841 992.637,362.649C990.558,350.22 992.616,335.791 998.178,321.357C1006.35,299.837 1022.89,279.982 1041.76,276.041C1051.48,274.024 1057.25,275.866 1064.57,282.782C1073,290.712 1082.6,291.562 1083.27,312.516C1083.26,314.853 1083.5,316.866 1083.48,319.208C1085.32,318.974 1087.1,318.174 1089.56,317.874C1091.72,317.62 1091.89,319.058 1090.83,320.649C1088.95,323.212 1086.03,324.732 1083.01,325.399C1079.51,350.674 1064.63,382.087 1044.18,392.67C1034.14,397.758 1019.47,399.066 1004.97,386.407C1002.46,384.191 1000.46,381.599 998.687,378.862C993.545,394.649 980.278,407.574 966.141,410.066C945.137,413.687 932.245,397.174 934.787,374.249C937.02,354.083 950.283,330.078 960.091,314.495C948.141,325.52 935.562,330.941 926.366,333.049C918.949,355.462 900.253,402.508 901.703,429.483C901.778,432.149 900.428,434.012 897.183,432.166C886.653,425.966 883.045,413.137 887.208,396.712ZM1558.27,281.37C1571.82,283.783 1576.3,294.416 1573.55,305.387C1578.87,299.312 1583.79,294.07 1588.13,290.199C1591.69,287.053 1594.32,286.987 1596,289.995C1599.68,296.058 1599.57,308.762 1589.29,321.466C1579.87,332.845 1560.61,351.282 1550.75,365.128C1540.4,379.762 1538.03,391.987 1548.05,393.216C1557.3,394.449 1571.15,385.191 1583.72,372.978C1587.27,361.978 1594.93,350.083 1606.9,339.349C1638.04,311.628 1666.44,305.149 1681.92,309.187C1694.67,312.508 1698.47,322.895 1695.32,333.153C1719.56,308.753 1754.75,278.003 1770.77,267.516C1775.15,264.624 1777.97,265.812 1778.43,269.903C1780.06,280.457 1775.14,291.924 1755.63,308.653C1733.11,327.737 1690.71,365.374 1668.37,391.345C1656.14,405.516 1652.97,416.966 1662.89,418.987C1672.41,421.016 1687.52,412.258 1701.38,400.466C1703.08,390.324 1708.45,381.041 1716.8,377.799C1721.2,376.074 1723.25,377.907 1722.21,382.437C1721.85,384.741 1721.17,386.962 1720.8,389.266C1737.55,377.337 1756.71,363.62 1770.1,352.445C1775.12,342.187 1779.89,337.945 1788.07,334.866C1796.67,331.599 1804.14,332.937 1806.04,336.362C1808.16,340.157 1805.55,342.62 1799.42,347.566C1797.64,348.783 1796.17,350.128 1794.3,351.632C1783.59,376.162 1781.9,399.478 1774.48,418.078C1770.23,428.578 1764.25,439.366 1751.8,442.537C1773.15,442.02 1790.98,429.974 1803.62,417.899C1806.16,415.428 1808.79,417.316 1809.15,419.912C1809.4,422.787 1806.48,429.741 1798.51,436.395C1780.72,451.195 1758.01,454.849 1737.64,449.174C1721.01,444.382 1706.44,435.458 1701.63,415.337C1701.62,415.245 1701.62,415.149 1701.59,415.058C1688.99,424.516 1671.89,430.47 1659.09,426.366C1643.82,421.445 1638.12,411.137 1641.37,397.895C1629.2,406.82 1613.77,414.166 1600.17,411.157C1588.9,408.716 1582.69,400.62 1581.62,389.937C1570.38,398.387 1556.15,403.857 1544.78,401.174C1529.25,397.47 1522.57,387.016 1524.77,373.562C1513.32,383.712 1498.55,392.245 1484.51,390.287C1457.57,386.637 1455.62,349.407 1485.63,317.878C1515.14,287.312 1542.58,278.57 1558.27,281.37ZM1605.44,402.536C1617.01,405.407 1636.51,392.44 1657.05,370.445C1682.34,343.707 1692.02,327.457 1683.09,324.778C1673.63,321.953 1646.54,333.965 1624.32,355.095C1602.51,375.711 1594.23,399.77 1605.44,402.536ZM1018.46,385.178C1027.87,390.29 1043.92,377.336 1054.89,348.811C1058.25,340.12 1060.79,331.578 1062.29,324.336C1060.03,323.774 1058.03,322.89 1055.98,321.724C1048.89,318.04 1039.97,309.132 1038.04,298.574C1030.61,306.449 1023.13,317.345 1018.53,329.299C1009.3,353.199 1009.72,380.253 1018.46,385.178ZM1489.08,381.272C1501.11,383.272 1519.1,367.263 1538.87,344.78C1563.42,316.697 1569.9,299.709 1560.93,297.155C1551.09,294.467 1524.97,309.147 1504.49,332.251C1484.72,354.559 1477.7,379.405 1489.08,381.272ZM1131.58,372.763C1144.81,367.442 1136.39,322.542 1132.99,299.559C1125.35,315.684 1115.59,332.68 1105.89,349.522C1112.3,365.726 1122.1,376.601 1131.58,372.763ZM1430.15,340.28C1435.49,332.651 1440.01,324.968 1443.2,318.318C1441.16,317.222 1439.43,315.876 1437.74,314.239C1431.78,308.96 1425.31,298.16 1425.98,287.451C1416.89,293.289 1407.06,302.055 1399.71,312.539C1385.04,333.497 1378.93,359.843 1386.15,366.743C1394,373.972 1412.65,365.301 1430.15,340.28ZM1221.88,366.725C1234.5,362.225 1228.77,317.779 1227.38,294.608C1218.49,309.679 1208.05,326.042 1197.35,341.988C1202.8,358.829 1212.21,370.271 1221.88,366.725ZM1063.38,316.285C1064.63,307.052 1064.61,299.735 1062.98,294.698C1060.18,285.71 1054.11,288.31 1053.73,296.865C1053.27,304.827 1057.87,312.656 1063.38,316.285ZM1451.04,289.719C1450.5,280.323 1444,281.369 1441.58,289.573C1439.2,297.202 1441.75,305.915 1446.2,310.769C1449.65,302.102 1451.4,295.006 1451.04,289.719ZM1130.35,383.375C1133.63,383.379 1136.95,383.137 1140.28,382.72C1157.48,380.399 1173.5,371.487 1184.44,356.866C1184.47,356.91 1184.49,356.956 1184.52,357.002L1184.56,357.096C1184.59,357.143 1184.61,357.189 1184.64,357.232C1195.96,374.828 1215,381.058 1235.53,376.141C1269.12,368.291 1290.11,326.578 1307.27,288.591C1317.6,288.782 1331.07,286.266 1345.25,279.033C1331.37,292.041 1311.56,313.278 1304.88,332.907C1296.93,356.003 1305.68,375.999 1327.97,377.291C1342.61,378.028 1358.88,368.891 1368.27,354.666C1369.35,358.17 1370.72,361.574 1372.86,364.67C1383.79,380.457 1398.26,382.737 1409.17,380.224C1431.5,374.912 1453.5,348.024 1463,324.353C1466.09,324.433 1469.3,323.657 1471.72,321.633C1473.13,320.345 1473.32,318.912 1471.17,318.641C1468.72,318.328 1466.8,318.687 1464.96,318.458C1465.56,316.195 1465.8,314.178 1466.39,311.912C1470.8,291.433 1461.71,288.274 1455.48,278.541C1450.05,270.062 1444.92,266.878 1435.03,266.478C1415.82,265.741 1395.07,281.016 1382,299.908C1373.96,311.391 1368.66,323.587 1366.99,335.133C1356.04,354.428 1341.32,370.157 1329.74,369.224C1320.87,368.641 1317.58,356.678 1323.19,340.883C1328.43,325.945 1345.07,306.787 1360.63,291.953C1370.23,282.903 1363.52,268.874 1358.08,262.512C1355.68,259.478 1352.44,260.212 1348.5,262.928C1335.77,269.903 1324.28,274.178 1313.22,275.374C1320.61,256.42 1323.81,238.52 1313.44,238.857C1299.92,239.074 1269.97,278.078 1295.09,286.962C1279.86,323.02 1260.82,354.645 1241.77,364.666C1250.84,357.508 1252.5,345.908 1252.94,335.458C1253.89,315.733 1247.94,292.928 1249.38,266.816C1250.63,265.049 1251.54,263.012 1252.47,261.545C1256.52,254.807 1258.1,251.607 1254.87,248.753C1251.95,246.183 1244.86,247.157 1237.65,253.433C1231.38,258.803 1228.36,264.416 1227.44,275.753C1218.4,290.824 1205.76,309.883 1193.82,326.791C1193.4,324.782 1193.27,322.174 1193.16,320.157C1192.59,315.253 1190.37,314.495 1186.55,317.62C1179.42,323.449 1177.52,334.103 1179.59,344.274C1172.75,355.066 1163.42,365.112 1150.57,371.041C1160.67,363.224 1161.91,350.958 1161.66,339.624C1161.12,319.608 1153.51,297.516 1153.66,270.762C1154.78,268.633 1155.61,266.824 1156.74,264.999C1160.38,258.045 1161.77,254.745 1158.36,252.095C1155.3,249.699 1147.98,251.407 1141.43,257.787C1135.18,263.837 1132.51,269.628 1131.95,281.024C1124.12,296.57 1112.02,316.716 1101.4,334.287C1100.83,332.02 1100.57,329.707 1100.01,327.441C1099.18,322.874 1096.58,322.003 1093.25,325.312C1083.77,334.633 1085.37,353.737 1094.1,365.791C1103.96,379.084 1116.71,383.314 1130.15,383.374L1130.35,383.375ZM584.762,417.024C586.099,417.024 587.52,416.27 589.158,415.499C605.603,408.574 648.27,390.766 677.028,384.928C676.328,390.583 675.137,392.087 669.291,394.791C657.183,400.041 637.803,408.27 623.287,415.703C614.428,420.187 614.474,423.791 613.753,429.578C613.024,434.641 613.924,441.124 607.508,445.566C602.674,448.52 601.062,449.982 597.049,452.941C593.037,455.883 591.424,456.628 591.541,464.574C591.658,471.791 589.291,476.166 586.999,486.291C584.716,496.445 583.991,502.958 584.078,508.72C584.153,512.995 585.516,515.27 587.853,515.27C588.678,515.27 589.624,514.978 590.678,514.399C594.274,513.424 600.187,511.249 606.912,508.82C607.608,517.362 606.116,521.674 603.878,527.92C601.545,533.733 598.374,539.558 598.524,549.653C598.703,561.203 598.816,569.149 597.274,573.508C595.707,577.862 594.141,582.22 595.045,587.262C595.933,593.028 595.228,598.824 599.337,602.349C600.845,603.649 601.832,604.195 602.92,604.195C604.203,604.195 605.641,603.437 608.27,602.224C732.416,539.374 909.833,484.437 1093.49,458.828C1130.9,455.128 1171.47,453.237 1214.17,453.237C1332.75,453.237 1467.94,467.824 1598.78,498.787C1604.14,499.987 1608.29,500.624 1611.51,500.624C1615.68,500.624 1618.31,499.549 1620.05,497.237C1622.88,493.787 1620.9,492.362 1616.65,490.178C1601,483.491 1579.87,477.308 1565.88,473.27C1567.46,470.983 1569.27,469.749 1572.17,469.749C1573.12,469.749 1574.2,469.874 1575.41,470.149C1642.87,481.458 1793.87,527.295 1893.1,569.382C1895.76,570.603 1897.95,571.158 1899.85,571.158C1902.55,571.158 1904.67,570.045 1906.77,568.166C1910.15,565.641 1921.71,558.537 1930.3,550.433C1934.18,546.595 1937.12,545.566 1942.06,545.566C1943.45,545.566 1945,545.645 1946.8,545.766L1948.33,545.832C1953.07,545.832 1956.2,543.728 1962,537.712C1972.47,526.549 1984.02,519.445 1992.05,508.199C1995.32,503.424 1994.53,500.941 1988.8,498.237C1984.17,496.066 1968,487.991 1947.69,479.316C1950.64,477.149 1953.68,475.67 1957.27,475.67C1959.23,475.67 1961.35,476.103 1963.7,477.103C1972.35,480.812 1980.31,484.278 1988.7,486.416C1991.31,487.078 1993.32,487.399 1995.02,487.399C1998.76,487.399 2000.98,485.845 2004.78,483.07C2010.53,478.403 2017.45,472.674 2020.29,469.224C2023.13,465.783 2024.49,461.82 2023.18,458.424C2021.85,455.028 2024.47,452.224 2028.27,448.378C2031.84,445.17 2039.64,434.57 2043.66,430.053C2047.7,425.545 2045.18,423.216 2040.67,419.445C2038.64,417.833 2034.06,415.053 2028.17,411.712C2034.77,404.166 2038.81,398.966 2042.65,394.332C2045.59,391.032 2049,390.258 2052.83,390.258C2054.24,390.258 2055.69,390.357 2057.22,390.487C2059.52,390.578 2061.68,391.116 2063.77,391.116C2066.12,391.116 2068.38,390.441 2070.62,387.691C2074.88,382.532 2075.78,379.887 2080.56,375.624C2085.34,371.366 2084.74,368.22 2079.51,364.208C2009.47,316.007 1834.17,240.703 1687.53,210.066C1686.63,201.724 1685.39,193.903 1672.93,190.312C1638.38,180.207 1600.94,171.462 1562.99,164.066C1565.79,158.582 1564.05,155.799 1557.74,153.791C1503.97,139.628 1405.49,129.653 1301.53,129.653C1240.9,129.653 1178.43,133.049 1121.84,140.978C1118.24,133.591 1114.53,126.766 1102.83,126.766C1102.15,126.766 1101.43,126.787 1100.69,126.841C958.624,135.508 782.166,177.916 703.012,209.441C688.487,215.449 685.358,224.149 684.645,229.941C684.133,232.378 685.074,233.495 687.216,233.495C688.262,233.495 689.599,233.228 691.183,232.728C706.703,228.328 724.466,223.982 742.362,222.099C740.745,225.691 737.916,226.599 730.128,229.249C705.87,236.832 675.974,247.399 657.428,257.078C642.928,264.512 642.199,270.295 638.362,284.795C636.832,291.32 633.666,296.424 628.041,300.837C623.216,304.52 615.141,307.528 608.699,311.245C605.503,314.178 602.295,317.841 600.795,325.799C599.308,334.495 593.724,341.803 589.832,352.687C585.937,363.57 587.649,368.595 584.541,378.758C579.141,397.616 576.837,406.316 581.028,414.195C582.257,416.316 583.47,417.024 584.762,417.024Z" style="fill:rgb(239,65,55);"/>
    <path d="M32.2556,982.345L1318.95,1534.92L2548.14,863.273L1840.94,561.03C1840.94,561.03 1184.5,354.323 750.436,589.998C310.338,828.947 32.2556,982.345 32.2556,982.345Z" style="fill:none;stroke-width:14.58px;stroke:rgb(9,6,6);"/>
    <path d="M2288.13,804.243L1998.57,913.89L2263.72,1073.79L2553.28,964.135L2288.13,804.243Z" style="fill:none;stroke-width:14.58px;stroke:rgb(9,6,6);"/>
    <path d="M278.434,786.452L19.0074,955.463L312.204,1054.99L571.638,885.968L278.434,786.452Z" style="fill:none;stroke-width:14.58px;stroke:rgb(9,6,6);"/>
    <path d="M557.985,374.759C559.32,374.849 560.788,374.193 562.474,373.535C579.35,367.738 623.124,352.855 652.211,348.975C651.13,354.569 649.84,355.989 643.824,358.292C631.388,362.711 611.497,369.611 596.511,376.046C587.37,379.92 587.172,383.519 586.062,389.245C584.992,394.246 585.451,400.776 578.749,404.773C573.727,407.394 572.019,408.744 567.816,411.424C563.614,414.088 561.955,414.723 561.534,422.658C561.162,429.867 558.505,434.072 555.534,444.018C552.569,453.995 551.405,460.443 551.103,466.199C550.889,470.469 552.095,472.831 554.427,472.989C555.25,473.045 556.213,472.818 557.304,472.311C560.957,471.582 567.004,469.811 573.877,467.843C573.994,476.412 572.214,480.613 569.56,486.694C566.839,492.335 563.281,497.932 562.748,508.015C562.146,519.551 561.721,527.486 559.888,531.73C558.031,535.968 556.173,540.211 556.734,545.302C557.23,551.115 556.135,556.85 559.996,560.645C561.413,562.044 562.361,562.656 563.446,562.729C564.727,562.816 566.212,562.157 568.917,561.125C697.028,506.812 877.754,463.997 1062.72,450.866C1100.3,449.703 1140.9,450.559 1183.5,453.446C1301.81,461.465 1435.7,485.16 1564.15,524.898C1569.42,526.458 1573.52,527.374 1576.73,527.592C1580.89,527.874 1583.59,526.98 1585.48,524.79C1588.54,521.539 1586.65,519.983 1582.57,517.518C1567.41,509.788 1546.74,502.189 1533.05,497.215C1534.79,495.04 1536.68,493.932 1539.56,494.128C1540.52,494.192 1541.58,494.39 1542.78,494.746C1609.31,510.59 1756.87,566.533 1853.03,615.233C1855.6,616.631 1857.74,617.332 1859.64,617.46C1862.34,617.643 1864.52,616.676 1866.75,614.944C1870.29,612.653 1882.3,606.347 1891.42,598.842C1895.55,595.275 1898.56,594.448 1903.49,594.782C1904.87,594.875 1906.42,595.06 1908.2,595.301L1909.73,595.472C1914.46,595.792 1917.72,593.904 1923.91,588.294C1935.11,577.865 1947.12,571.558 1955.89,560.881C1959.47,556.337 1958.86,553.807 1953.32,550.721C1948.85,548.242 1933.26,539.092 1913.58,529.064C1916.67,527.102 1919.81,525.832 1923.39,526.074C1925.34,526.207 1927.43,526.782 1929.71,527.939C1938.09,532.224 1945.79,536.22 1954.02,538.92C1956.58,539.758 1958.56,540.214 1960.25,540.329C1963.99,540.582 1966.31,539.181 1970.29,536.67C1976.34,532.402 1983.64,527.155 1986.7,523.904C1989.77,520.663 1991.39,516.801 1990.31,513.324C1989.22,509.847 1992.01,507.225 1996.07,503.645C1999.85,500.686 2008.34,490.638 2012.66,486.403C2017,482.178 2014.65,479.684 2010.39,475.617C2008.48,473.87 2004.1,470.788 1998.45,467.056C2005.54,459.974 2009.92,455.059 2014.07,450.695C2017.22,447.602 2020.68,447.059 2024.51,447.319C2025.91,447.414 2027.35,447.611 2028.86,447.844C2031.16,448.091 2033.28,448.773 2035.36,448.915C2037.71,449.074 2040,448.553 2042.43,445.961C2047.02,441.102 2048.1,438.523 2053.16,434.593C2058.21,430.668 2057.83,427.489 2052.89,423.132C1986.27,370.307 1816.46,283.322 1672.23,242.839C1671.89,234.456 1671.18,226.569 1659,222.143C1625.21,209.726 1588.44,198.468 1551.08,188.523C1554.24,183.242 1552.69,180.347 1546.53,177.917C1493.84,160.151 1396.27,143.54 1292.55,136.511C1232.05,132.411 1169.5,131.575 1112.5,135.66C1109.41,128.046 1106.17,120.986 1094.5,120.195C1093.81,120.148 1093.09,120.121 1092.35,120.125C950.027,119.166 771.105,149.545 690,175.646C675.102,180.659 671.392,189.127 670.29,194.857C669.613,197.255 670.477,198.433 672.614,198.577C673.658,198.648 675.01,198.472 676.624,198.081C692.407,194.74 710.422,191.605 728.405,190.936C726.549,194.41 723.665,195.125 715.716,197.243C691,203.169 660.458,211.69 641.3,220.093C626.331,226.528 625.213,232.249 620.403,246.457C618.436,252.863 614.932,257.742 609.021,261.764C603.958,265.112 595.698,267.568 589.02,270.84C585.633,273.551 582.185,276.988 580.15,284.827C578.078,293.402 572.013,300.316 567.395,310.912C562.772,321.507 564.14,326.636 560.352,336.565C553.69,355.015 550.802,363.539 554.452,371.684C555.535,373.883 556.696,374.672 557.985,374.759Z" style="fill:none;stroke-width:14.58px;stroke:rgb(9,6,6);"/>
</svg>
