<?xml version="1.0" standalone="no"?>
<!DOCTYPE svg PUBLIC "-//W3C//DTD SVG 1.1//EN" "http://www.w3.org/Graphics/SVG/1.1/DTD/svg11.dtd">
<svg width="100%" height="100%" viewBox="0 0 2584 1667" version="1.1" xmlns="http://www.w3.org/2000/svg" xmlns:xlink="http://www.w3.org/1999/xlink" xml:space="preserve" style="fill-rule:evenodd;clip-rule:evenodd;stroke-linejoin:round;stroke-miterlimit:1.41421;">
    <g transform="matrix(4.26116,0,0,4.26116,-0.00130447,104.002)">
        <path d="M526.096,152.852L438.586,110.328C422.494,103.94 402.678,97.576 387.366,93.465C386.241,94.846 383.904,96.86 379.823,96.86C378.531,96.86 377.109,96.671 375.215,96.249L375.125,96.229C345.856,89.302 313.654,85.487 284.46,85.487C274.534,85.487 265.075,85.921 256.342,86.781C229.153,90.582 201.317,97.39 176.794,105.998L80.372,152.852L160.64,191.854L80.372,230.86L303.234,339.152L526.096,230.856L445.833,191.854L526.096,152.852ZM324.282,297.004C326.554,294.255 329.375,291.763 332.453,290.005C332.857,289.785 332.893,289.418 332.527,289.089C332.27,288.869 331.611,288.502 331.098,288.356C330.548,288.099 329.778,288.062 328.862,288.392C323.879,290.261 318.199,296.234 316.037,301.95C314.681,305.505 315.304,308.033 316.733,309.499C317.539,310.305 318.602,311.111 319.408,311.478C320.581,312.027 322.083,312.247 323.842,311.331C326.261,310.085 328.679,306.568 329.229,303.233C329.595,300.924 329.082,299.495 326.92,297.883C326.041,297.223 325.161,297.004 324.282,297.004ZM311.64,294.585C309.111,299.202 306.583,304.552 305.301,308.436C305.007,309.316 305.044,309.792 305.63,310.415C306.18,311.001 306.656,311.478 307.096,311.734C307.609,312.064 307.976,312.064 308.232,311.404C310.321,305.761 315.121,297.15 318.199,292.167C318.822,291.177 318.895,290.774 318.382,290.115C317.943,289.528 317.393,288.979 316.77,288.502C316.147,288.026 315.927,287.916 315.268,288.466C314.205,289.382 311.97,291.69 311.2,292.68C310.65,293.339 310.724,293.559 311.163,294.035C311.31,294.182 311.493,294.402 311.64,294.585ZM290.02,309.462C290.9,310.342 291.999,311.038 293.062,311.441C294.93,312.174 296.799,311.808 298.192,311.001C302.992,308.216 306.107,301.034 306.876,297.077C307.353,294.585 307.243,292.826 306.107,291.434C305.227,290.371 304.348,289.675 303.285,288.979C301.453,287.769 299.474,288.282 297.752,289.492C293.831,292.277 290.387,297.663 289.031,302.244C287.785,306.494 289.031,308.473 290.02,309.462ZM277.525,307.41C281.775,303.709 288.078,300.301 289.983,295.978C290.68,294.438 290.533,293.266 289.91,292.167C289.361,291.214 288.481,290.005 287.528,289.125C286.612,288.282 285.44,288.062 284.12,288.539C282.252,289.198 280.016,290.847 278.477,293.156C277.854,294.109 277.598,295.281 278.844,297.077C279.247,297.663 279.503,297.736 279.906,297.15C282.325,293.706 286.502,291.287 287.089,291.947C287.565,292.46 286.173,294.951 284.487,296.747C281.519,299.862 275.106,304.149 272.541,307.19C272.101,307.703 272.028,308.143 272.431,308.839C272.834,309.572 273.494,310.525 274.044,311.148C274.63,311.844 275.179,311.917 276.022,311.698C278.441,311.075 281.299,310.525 283.241,310.342C283.864,310.269 284.12,310.085 283.827,309.352C283.607,308.803 283.204,308.29 282.728,307.813C282.288,307.374 281.592,307.154 280.713,307.154C279.687,307.154 278.624,307.264 277.525,307.41ZM295.407,299.202C298.192,294.365 301.966,290.921 302.992,291.837C303.761,292.496 303.212,296.197 299.914,302.17C296.763,307.85 293.904,309.646 292.915,308.803C292.036,308.07 292.658,303.929 295.407,299.202ZM325.161,299.898C325.784,300.338 325.125,303.123 323.512,305.651C321.973,308.07 320.068,309.352 319.372,308.876C318.675,308.4 318.969,305.981 320.398,303.563C321.827,301.108 324.282,299.275 325.161,299.898ZM402.691,277.41L408.624,271.467L201.721,271.467L196.086,277.41L402.691,277.41ZM236.358,237.869C236.981,237.692 237.784,237.512 238.498,237.423C240.728,226.808 244.475,214.945 246.883,208.612C247.952,205.85 249.736,205.226 251.879,204.689C252.948,204.42 253.928,204.154 254.641,203.797C253.928,202.459 253.572,201.745 253.662,201.299C253.749,200.676 253.84,200.586 254.373,200.407C255.892,199.961 257.139,199.961 258.745,200.14C260.438,200.319 261.511,200.497 262.581,200.497C264.364,200.497 266.772,201.122 268.11,204.334C270.429,209.774 271.767,220.119 273.373,230.735C274.889,241.259 276.495,252.05 278.903,258.295C279.348,259.453 279.348,260.078 277.833,260.257C276.314,260.433 274.889,260.164 272.928,260.164C269.984,260.164 267.396,259.811 265.344,255.529C264.274,253.388 263.382,250.178 262.49,246.52C257.317,246.878 252.234,247.145 248.22,247.234C247.238,250.712 246.437,254.014 245.813,257.045C245.634,258.115 245.454,258.473 244.831,258.562C244.207,258.651 243.404,258.651 242.155,258.115C240.817,257.58 240.728,256.51 238.945,255.082C237.339,253.834 236.626,252.139 236.804,249.285C236.892,248.037 236.981,246.699 237.161,245.361C237.073,245.182 237.073,245.004 236.981,244.826C236.267,242.597 235.554,241.614 235.375,239.562C235.288,238.582 235.288,238.138 236.358,237.869ZM413.394,207.454C410.272,215.035 405.459,225.114 399.928,234.747C400.106,242.597 399.57,253.122 399.57,257.312C399.57,258.651 398.856,259.007 397.518,259.364C396.271,259.72 394.842,259.9 393.772,259.988C392.703,260.078 391.721,259.811 389.582,259.007C387.439,258.204 386.728,257.489 386.283,254.103C385.837,250.892 385.925,243.131 386.014,236.977C379.056,226.63 374.421,215.75 372.278,208.97C371.653,207.096 371.832,206.741 372.901,205.672C373.974,204.6 374.152,203.351 375.49,202.728C376.737,202.104 378.344,202.638 380.036,202.638C381.733,202.638 383.34,202.281 384.853,204.6C386.994,207.988 391.007,216.105 394.665,223.954C398.947,215.304 405.28,204.779 408.935,199.428C409.562,198.445 410.719,198.892 411.61,200.14C412.415,201.299 412.683,201.924 413.306,202.816C414.021,203.888 414.286,205.403 413.394,207.454ZM296.918,258.562C297.005,259.274 296.74,259.542 296.026,259.72C294.688,260.078 293.528,259.632 292.458,259.274C291.388,258.919 290.406,258.562 288.532,258.204C286.302,257.758 285.411,256.063 284.787,253.654C282.735,245.541 283.271,227.434 284.609,212.36C284.431,212.003 284.163,211.558 283.895,211.111C282.825,208.97 281.22,207.632 280.505,205.135C280.237,204.066 280.596,203.619 281.665,203.442C287.372,202.281 294.152,199.516 300.573,199.784C308.067,200.053 312.703,201.657 316.007,210.131C318.768,213.52 320.643,216.819 320.198,222.082C319.752,227.699 315.202,235.728 306.906,240.099C311.812,244.38 317.345,248.662 322.249,251.87C322.783,252.23 322.874,252.585 322.428,253.299C321.713,254.368 320.643,254.636 319.661,254.993C318.768,255.351 318.145,256.063 316.54,257.045C314.67,258.115 312.259,257.669 310.297,256.688C306.552,254.904 301.199,251.158 296.471,247.234C296.471,251.158 296.65,254.993 296.918,258.562ZM192.21,205.492C192.031,204.42 192.12,203.888 193.102,203.708C199.345,202.459 206.034,199.516 213.616,199.784C220.929,200.053 225.478,201.389 228.69,209.416C232.258,213.34 234.843,217.62 234.13,223.6C233.417,229.751 227.173,239.296 217.005,242.597C214.152,243.488 212.723,243.22 211.117,241.704C210.762,241.346 210.405,241.346 210.048,241.078C209.87,247.234 209.78,253.122 210.225,258.382C210.316,259.096 210.225,259.364 209.333,259.542C207.996,259.811 206.571,259.632 205.231,259.188C204.073,258.827 202.021,258.295 200.951,258.027C198.989,257.58 198.008,255.887 197.739,253.477C196.847,245.718 196.67,230.197 197.83,215.304C197.294,214.859 196.847,214.234 196.402,213.43C195.51,211.737 194.975,211.023 193.548,209.416C192.656,208.436 192.477,207.454 192.21,205.492ZM351.945,255.529C351.859,256.866 351.681,257.403 351.144,257.849C350.699,258.204 349.629,258.651 348.647,258.827C347.578,259.007 347.219,258.827 346.062,258.473C344.902,258.115 344.187,257.849 342.313,257.58C340.529,257.312 339.372,256.42 338.928,254.904C335.802,244.289 338.568,227.345 338.928,216.642C336.516,216.73 334.286,216.819 332.325,216.908C330.541,216.997 329.559,216.908 328.757,215.928C327.956,214.945 327.243,214.322 326.26,213.34C325.19,212.27 324.475,211.647 323.939,210.397C323.494,209.416 323.228,207.364 322.87,206.027C322.424,204.334 322.783,204.154 324.566,203.974C336.16,202.996 346.953,200.23 358.548,200.586C360.778,200.676 361.579,201.212 362.56,202.816C363.632,204.689 364.435,206.651 365.059,207.632C365.774,208.793 366.752,209.595 367.02,210.932C367.198,211.647 367.198,212.182 367.198,212.896C367.198,213.52 367.112,213.966 366.129,214.234C363.721,214.859 358.011,215.392 351.681,215.836C352.128,227.166 352.391,245.627 351.945,255.529ZM256.961,215.66C255.533,221.457 253.394,228.681 251.253,235.995C254.195,235.816 257.316,235.727 260.351,235.639C259.19,228.592 258.031,221.279 256.961,215.66ZM224.764,214.053C222.268,212.715 215.846,212.715 211.208,214.411C211.208,218.334 210.852,224.491 210.494,231.357C217.808,228.145 226.102,219.048 224.764,214.053ZM311.19,213.876C308.691,211.737 302.447,212.003 297.897,213.34C297.451,218.335 297.006,224.312 296.741,230.643C303.785,228.146 311.813,219.941 311.19,213.876ZM66.837,159.462L0,191.939L66.837,224.418L133.674,191.939L66.837,159.462ZM539.282,159.462L472.445,191.939L539.282,224.418L606.121,191.939L539.282,159.462ZM191.587,135.927C195.778,133.162 203.538,130.932 210.316,130.932C217.631,130.932 226.371,134.5 227.709,143.33C230.028,147.076 230.831,150.019 230.565,153.319C230.296,156.351 228.512,160.097 223.873,162.861C226.461,164.468 228.69,166.788 229.673,169.195C232.348,172.049 233.327,175.17 233.24,177.846C232.881,187.746 217.81,191.583 211.031,191.672C206.571,191.761 204.61,191.315 203.449,189.888C202.646,188.907 201.844,188.461 201.04,187.301C199.523,187.212 198.81,186.766 197.83,186.587C196.402,186.319 196.046,186.051 195.778,184.626C193.639,173.208 193.994,157.065 195.51,144.934C194.44,143.418 193.639,142.795 192.925,141.726C191.942,140.297 191.587,139.136 190.962,137.799C190.515,136.907 190.515,136.639 191.587,135.927ZM270.249,175.707C271.946,175.884 272.214,176.33 272.746,177.223C273.283,178.114 273.373,179.096 273.907,180.343C274.621,182.038 275.423,183.02 275.244,185.518C275.157,186.232 274.976,186.408 274.175,186.497C265.079,187.212 257.407,189.888 250.805,191.315C249.201,191.672 249.022,191.492 248.309,190.6C247.683,189.888 246.971,189.176 246.346,187.838C245.098,187.658 244.562,187.392 243.492,187.212C242.155,187.033 241.441,186.677 241.175,185.07C239.657,174.815 240.728,167.5 241.175,156.976C241.62,146.539 242.244,138.335 242.333,133.339C242.333,132.18 242.958,132.27 244.029,132.092C245.008,131.912 246.883,131.2 248.22,131.288C250.719,131.378 251.431,132.27 252.679,132.985C253.483,133.431 254.106,133.608 254.196,135.123C254.641,144.311 255.446,166.697 254.909,177.045C260.529,175.796 267.664,175.439 270.249,175.707ZM364.342,137.709C366.571,141.279 367.107,144.934 367.107,148.235C367.198,151.892 365.77,152.783 364.074,154.034C362.38,155.193 361.579,155.995 360.328,156.976C359.08,158.047 357.921,157.511 357.566,155.638C356.405,149.484 354.444,143.596 350.874,142.08C340.171,150.91 339.101,173.832 346.951,179.451C353.193,180.7 359.168,176.062 362.736,170.176C363.54,168.927 364.255,168.838 365.324,170.265C366.483,171.693 366.84,173.923 367.198,175.796C367.554,177.76 368.982,179.542 367.554,182.573C365.948,186.142 362.826,189.085 358.99,190.334C353.549,192.029 346.326,189.977 340.439,184.269C334.195,180.88 329.291,174.992 328.755,163.754C328.13,149.93 334.997,135.034 344.366,131.11C347.305,129.862 349.27,130.309 352.211,132.805C356.674,133.785 361.757,133.696 364.342,137.709ZM414.199,184.089C413.394,184.893 412.77,185.607 410.809,186.587C408.935,187.569 408.22,188.283 407.51,188.639C406.797,188.996 405.28,189.262 403.675,188.283C400.016,186.142 393.236,180.7 389.222,176.776C389.222,182.127 389.136,186.497 389.045,188.817C389.045,189.888 388.778,189.977 387.886,190.067C386.46,190.154 385.21,190.067 382.893,189.176C380.66,188.283 380.128,188.37 378.521,187.924C377.006,187.478 376.469,187.569 376.022,185.339C373.437,172.139 376.382,145.559 376.647,133.07C376.647,131.912 377.092,131.823 377.984,131.647C378.967,131.468 380.482,131.823 382.178,132.447C383.872,133.07 384.853,133.517 386.279,133.876C387.707,134.232 388.599,135.214 388.778,137.889C389.045,141.726 389.136,147.877 389.222,154.567C395.467,148.146 404.386,137.443 408.31,131.022C408.935,130.041 409.649,130.219 410.451,131.022C411.342,131.912 411.879,132.985 412.594,134.589C413.306,136.193 413.931,136.551 414.376,138.156C414.822,139.851 414.199,141.011 413.306,143.063C411.432,147.164 403.492,158.492 395.913,166.162C400.73,171.247 408.935,178.382 414.107,182.305C414.91,182.931 415.001,183.288 414.199,184.089ZM276.046,160.543C276.223,147.61 283.804,136.372 290.584,132.985C292.458,132.001 294.51,131.734 297.005,133.07C297.45,133.339 297.896,133.608 298.256,133.785C315.38,133.339 322.249,148.86 322.249,161.703C322.249,178.561 313.063,186.408 305.837,188.73C300.485,190.423 296.026,188.104 291.835,184.803C282.111,182.305 275.868,172.227 276.046,160.543ZM221.465,171.334C218.702,168.838 212.992,168.035 207.017,168.749C206.927,172.585 207.017,176.33 207.285,180.435C214.776,180.166 221.287,175.261 221.465,171.334ZM309.583,159.205C309.583,151.892 305.482,145.47 299.862,143.685C287.818,151.178 287.017,169.464 293.618,177.045C301.823,178.918 309.583,170.533 309.583,159.205ZM222.179,145.558C219.594,142.794 213.349,143.241 208.71,144.756C208.355,149.306 207.998,153.408 207.731,157.242C216.114,155.637 222.091,149.483 222.179,145.558ZM309.959,100.247C310.697,100.633 311.724,101.276 312.4,101.981C312.913,102.528 312.784,103.17 312.593,103.781C311.724,106.703 310.986,109.787 310.345,112.775C312.753,108.886 317.508,103.042 320.494,100.12C321.167,99.445 321.455,99.51 322.1,99.959C322.839,100.474 323.737,101.47 324.218,102.175C324.796,103.009 324.636,103.62 324.026,104.649C320.975,109.818 318.18,115.408 316.254,119.646C315.934,120.385 315.612,120.385 315.097,119.969C314.678,119.612 314.487,119.453 313.971,119.036C313.461,118.619 313.491,118.073 313.749,117.269C314.586,114.796 316.511,110.976 318.438,107.378C315.612,110.879 312.303,115.342 310.345,118.586C309.896,119.324 309.638,119.358 309.059,119.068C308.384,118.747 307.872,118.425 307.325,118.04C306.747,117.624 306.489,117.077 306.586,116.113C306.777,114.154 307.23,111.297 307.904,108.405C305.946,111.81 303.244,117.237 301.896,120.289C301.673,120.803 301.255,120.803 300.9,120.547C300.321,120.16 299.809,119.582 299.52,119.164C299.328,118.812 299.262,118.394 299.457,117.816C301.189,113.03 305.719,104.52 308.45,100.633C308.9,99.992 309.251,99.863 309.959,100.247ZM285.748,100.247C286.487,100.633 287.515,101.276 288.187,101.981C288.702,102.528 288.574,103.17 288.382,103.781C287.515,106.703 286.776,109.787 286.131,112.775C288.542,108.886 293.295,103.042 296.28,100.12C296.956,99.445 297.245,99.51 297.886,99.959C298.625,100.474 299.524,101.47 300.008,102.175C300.586,103.009 300.426,103.62 299.812,104.649C296.764,109.818 293.97,115.408 292.04,119.646C291.72,120.385 291.399,120.385 290.887,119.969C290.469,119.612 290.274,119.453 289.762,119.036C289.246,118.619 289.281,118.073 289.535,117.269C290.371,114.796 292.298,110.976 294.224,107.378C291.399,110.879 288.094,115.342 286.131,118.586C285.682,119.324 285.425,119.358 284.846,119.068C284.174,118.747 283.658,118.425 283.115,118.04C282.536,117.624 282.278,117.077 282.376,116.113C282.568,114.154 283.017,111.297 283.693,108.405C281.732,111.81 279.035,117.237 277.687,120.289C277.46,120.803 277.042,120.803 276.69,120.547C276.112,120.16 275.596,119.582 275.311,119.164C275.116,118.812 275.053,118.394 275.244,117.816C276.979,113.03 281.509,104.52 284.237,100.633C284.686,99.992 285.041,99.863 285.748,100.247ZM331.329,100.697C334.154,99.992 338.136,99.67 340.707,99.67C341.575,99.67 342.118,99.863 342.602,100.345C342.985,100.731 343.342,101.403 343.599,101.981C343.759,102.561 343.501,102.72 342.891,102.786C341.09,102.946 337.495,103.428 335.15,103.941C334.22,105.451 333.192,107.249 332.13,109.144C333.158,109.047 334.06,108.985 334.67,108.985C335.342,108.985 335.791,109.113 336.115,109.529C336.404,109.882 336.787,110.461 336.948,110.815C337.175,111.297 337.014,111.554 336.565,111.617C334.892,111.873 332.454,112.227 330.141,112.837C329.465,114.154 328.823,115.408 328.246,116.596C330.075,116.241 331.716,116.113 333.063,116.113C333.77,116.113 334.313,116.241 334.702,116.658C335.088,117.077 335.503,117.624 335.698,118.073C335.952,118.683 335.698,118.907 335.15,118.973C332.903,119.293 329.5,119.807 327.315,120.481C326.19,120.835 325.964,120.674 325.482,120.289C325.099,119.999 324.583,119.582 324.325,119.261C323.908,118.778 323.685,118.458 324.037,117.558C325.581,113.545 328.565,107.28 331.101,103.075C330.942,102.624 330.781,102.079 330.687,101.759C330.528,101.147 330.75,100.859 331.329,100.697ZM257.181,112.997C257.951,110.14 261.647,103.396 264.664,100.12C265.18,99.574 265.434,99.51 265.949,100.087C266.302,100.504 266.528,100.891 266.817,101.341C267.267,102.079 267.2,102.88 266.528,103.877C261.968,110.686 259.431,117.045 260.553,117.72C262.096,118.619 268.006,112.485 273.433,99.992C273.656,99.445 274.074,99.284 274.59,99.703C275.102,100.12 275.586,100.474 275.907,101.021C276.227,101.566 276.29,102.079 275.969,103.009C273.753,109.594 270.189,115.086 267.267,118.202C264.441,121.219 262.257,120.803 260.811,120.289C259.912,119.969 258.627,119.293 257.665,118.265C256.508,117.045 256.571,115.279 257.181,112.997ZM348.235,101.147C350.451,100.055 353.022,99.541 355.238,99.541C357.583,99.541 359.767,100.537 361.115,102.079C362.882,104.07 361.983,105.354 361.147,106.479C359.603,108.534 355.621,111.584 351.447,113.095C352.667,114.926 354.53,117.142 355.782,118.265C356.265,118.683 356.2,119.036 355.816,119.261C355.398,119.52 354.691,119.807 354.113,119.902C353.246,120.065 352.988,119.999 352.057,119.324C350.58,118.235 348.751,116.241 347.368,114.412C346.341,116.307 345.379,118.202 344.542,119.999C344.222,120.738 343.803,120.514 343.288,120.128C342.906,119.84 342.616,119.551 342.261,118.973C341.909,118.394 341.717,117.881 342.038,117.077C343.644,113.223 346.695,107.537 349.231,103.62C348.685,103.107 348.364,102.69 348.012,102.271C347.595,101.79 347.657,101.437 348.235,101.147ZM238.898,114.99C241.304,116.757 243.618,117.624 245.482,117.624C246.732,117.624 247.248,117.012 246.637,116.113C246.123,115.375 243.393,113.287 242.204,111.906C240.76,110.237 241.016,108.566 241.948,107.057C244.325,103.235 247.471,101.276 249.656,100.216C251.035,99.541 252.29,99.284 253.606,100.087C254.443,100.602 255.533,101.47 256.049,102.208C256.627,103.009 256.561,103.815 256.174,104.744C255.243,106.991 253.606,109.242 252.16,110.781C251.742,111.231 251.39,111.329 250.973,110.91C250.588,110.526 250.203,109.882 250.042,109.498C249.816,108.919 250.042,108.375 250.332,107.795C251.035,106.445 253.255,103.138 252.677,102.786C252,102.4 247.858,105.387 246.252,107.86C245.126,109.594 245.705,110.301 246.412,111.071C247.12,111.843 248.757,113.03 249.56,113.93C250.523,114.99 251.101,116.338 249.784,117.944C248.081,120.031 246.123,120.449 244.838,120.449C243.2,120.449 240.92,119.84 239.089,118.136C238.255,117.366 237.932,116.529 237.999,115.439C238.03,114.796 238.448,114.668 238.898,114.99ZM405.145,116.579L411.015,110.633L368.205,110.633L368.205,116.579L405.145,116.579ZM230.857,116.579L230.857,110.633L193.992,110.633L188.047,116.579L230.857,116.579ZM133.403,69.661C133.724,69.661 134.065,69.48 134.458,69.295C138.405,67.633 148.645,63.359 155.547,61.958C155.379,63.315 155.093,63.676 153.69,64.325C150.784,65.585 146.133,67.56 142.649,69.344C140.523,70.42 140.534,71.285 140.361,72.674C140.186,73.889 140.402,75.445 138.862,76.511C137.702,77.22 137.315,77.571 136.352,78.281C135.389,78.987 135.002,79.166 135.03,81.073C135.058,82.805 134.49,83.855 133.94,86.285C133.392,88.722 133.218,90.285 133.239,91.668C133.257,92.694 133.584,93.24 134.145,93.24C134.343,93.24 134.57,93.17 134.823,93.031C135.686,92.797 137.105,92.275 138.719,91.692C138.886,93.742 138.528,94.777 137.991,96.276C137.431,97.671 136.67,99.069 136.706,101.492C136.749,104.264 136.776,106.171 136.406,107.217C136.03,108.262 135.654,109.308 135.871,110.518C136.084,111.902 135.915,113.293 136.901,114.139C137.263,114.451 137.5,114.582 137.761,114.582C138.069,114.582 138.414,114.4 139.045,114.109C168.84,99.025 211.42,85.84 255.498,79.694C264.476,78.806 274.212,78.352 284.46,78.352C312.92,78.352 345.365,81.853 376.767,89.284C378.053,89.572 379.049,89.725 379.823,89.725C380.823,89.725 381.455,89.467 381.873,88.912C382.551,88.084 382.075,87.742 381.057,87.218C377.301,85.613 372.228,84.129 368.871,83.16C369.251,82.611 369.686,82.315 370.38,82.315C370.609,82.315 370.867,82.345 371.159,82.411C387.348,85.125 423.59,96.126 447.404,106.227C448.042,106.52 448.567,106.653 449.023,106.653C449.672,106.653 450.18,106.386 450.685,105.935C451.497,105.329 454.27,103.624 456.332,101.679C457.263,100.758 457.969,100.511 459.155,100.511C459.488,100.511 459.861,100.53 460.291,100.559L460.66,100.575C461.798,100.575 462.548,100.07 463.941,98.626C466.453,95.947 469.226,94.242 471.153,91.543C471.936,90.397 471.748,89.801 470.372,89.152C469.261,88.631 465.38,86.693 460.506,84.611C461.214,84.091 461.944,83.736 462.805,83.736C463.275,83.736 463.784,83.84 464.349,84.08C466.425,84.97 468.334,85.802 470.348,86.315C470.975,86.474 471.456,86.551 471.864,86.551C472.763,86.551 473.296,86.178 474.208,85.512C475.587,84.392 477.249,83.017 477.929,82.189C478.612,81.363 478.938,80.412 478.623,79.597C478.305,78.782 478.932,78.109 479.844,77.186C480.702,76.416 482.573,73.872 483.538,72.788C484.509,71.706 483.904,71.147 482.82,70.242C482.333,69.855 481.235,69.188 479.821,68.386C481.405,66.575 482.374,65.327 483.295,64.215C484.001,63.423 484.819,63.237 485.74,63.237C486.078,63.237 486.425,63.261 486.792,63.292C487.346,63.314 487.864,63.443 488.366,63.443C488.93,63.443 489.471,63.281 490.01,62.621C491.031,61.383 491.248,60.748 492.394,59.725C493.541,58.703 493.397,57.948 492.143,56.985C475.334,45.417 433.261,27.344 398.068,19.991C397.852,17.989 397.553,16.112 394.564,15.25C386.272,12.825 377.285,10.726 368.177,8.951C368.849,7.635 368.432,6.967 366.917,6.485C354.012,3.086 330.378,0.692 305.428,0.692C290.876,0.692 275.884,1.507 262.302,3.41C261.438,1.637 260.547,-0.001 257.74,-0.001C257.575,-0.001 257.403,0.004 257.226,0.017C223.13,2.097 180.78,12.275 161.783,19.841C158.297,21.283 157.546,23.371 157.375,24.761C157.252,25.346 157.478,25.614 157.992,25.614C158.243,25.614 158.564,25.55 158.944,25.43C162.669,24.374 166.932,23.331 171.227,22.879C170.839,23.741 170.16,23.959 168.291,24.595C162.469,26.415 155.294,28.951 150.843,31.274C147.363,33.058 147.188,34.446 146.267,37.926C145.9,39.492 145.14,40.717 143.79,41.776C142.632,42.66 140.694,43.382 139.148,44.274C138.381,44.978 137.611,45.857 137.251,47.767C136.894,49.854 135.554,51.608 134.62,54.22C133.685,56.832 134.096,58.038 133.35,60.477C132.054,65.003 131.501,67.091 132.507,68.982C132.802,69.491 133.093,69.661 133.403,69.661ZM358.575,102.946C358.322,102.367 355.848,102.689 354.082,103.299C352.699,105.322 351.189,107.698 349.713,110.237C353.792,108.694 359.155,104.229 358.575,102.946ZM367.046,37.104C370.298,37.683 371.372,40.235 370.711,42.868C371.988,41.41 373.169,40.152 374.211,39.223C375.065,38.468 375.698,38.452 376.099,39.174C376.984,40.629 376.957,43.678 374.49,46.727C372.228,49.458 367.606,53.883 365.24,57.206C362.756,60.718 362.188,63.652 364.591,63.947C366.811,64.243 370.135,62.021 373.152,59.09C374.006,56.45 375.844,53.595 378.715,51.019C386.189,44.366 393.006,42.811 396.72,43.78C399.78,44.577 400.692,47.07 399.936,49.532C405.754,43.676 414.199,36.296 418.045,33.779C419.097,33.085 419.773,33.37 419.884,34.352C420.274,36.885 419.093,39.637 414.412,43.652C409.007,48.232 398.831,57.265 393.469,63.498C390.533,66.899 389.774,69.647 392.153,70.132C394.438,70.619 398.064,68.517 401.392,65.687C401.8,63.253 403.089,61.025 405.091,60.247C406.148,59.833 406.639,60.273 406.391,61.36C406.304,61.913 406.141,62.446 406.053,62.999C410.073,60.136 414.67,56.844 417.884,54.162C419.09,51.7 420.233,50.682 422.198,49.943C424.26,49.159 426.053,49.48 426.51,50.302C427.019,51.213 426.392,51.804 424.922,52.991C424.493,53.283 424.142,53.606 423.692,53.967C421.122,59.854 420.716,65.45 418.936,69.914C417.916,72.434 416.48,75.023 413.491,75.784C418.616,75.66 422.895,72.769 425.929,69.871C426.539,69.278 427.17,69.731 427.256,70.354C427.316,71.044 426.616,72.713 424.703,74.31C420.434,77.862 414.983,78.739 410.094,77.377C406.102,76.227 402.605,74.085 401.452,69.256C401.448,69.234 401.448,69.211 401.441,69.189C398.417,71.459 394.313,72.888 391.241,71.903C387.578,70.722 386.21,68.248 386.99,65.07C384.067,67.212 380.364,68.975 377.102,68.253C374.395,67.667 372.905,65.724 372.65,63.16C369.951,65.188 366.537,66.501 363.808,65.857C360.081,64.968 358.478,62.459 359.005,59.23C356.256,61.666 352.712,63.714 349.343,63.244C342.878,62.368 342.408,53.433 349.611,45.866C356.694,38.53 363.279,36.432 367.046,37.104ZM187.694,31.887C191.465,29.273 195.241,27.973 198.214,29.212C200.257,30.046 202.525,31.557 203.554,33.091C204.731,34.88 204.958,36.829 204.344,39.205C203.728,41.585 203.35,44.484 203.038,46.646C202.954,47.246 202.543,47.783 201.512,47.479C199.548,46.918 197.783,45.166 198.007,41.501C198.248,37.616 200.027,33.052 197.837,31.9C195.137,30.401 184.758,39.153 181.351,51.209C178.017,62.986 182.243,72.456 186.438,73.989C191.981,75.958 197.757,69.323 200.528,57.831C200.687,56.994 201.483,56.778 202.078,57.555C205.063,61.575 201.861,67.834 199.544,70.682C195.587,75.504 189.882,77.226 185.53,76.559C181.926,75.998 177.808,72.882 175.761,67.555C170.377,53.768 179.675,37.237 187.694,31.887ZM409.106,74.355C412.551,74.437 414.935,63.739 416.363,58.346C413.133,61.175 409.354,63.993 405.601,66.788C405.494,70.967 406.636,74.298 409.106,74.355ZM205.99,64.786C206.807,61.398 210.022,53.829 211.923,49.6C207.097,48.111 211.652,38.562 214.502,37.867C216.846,37.278 217.069,41.362 216.163,46.052C218.479,45.249 220.765,43.619 223.185,41.282C223.976,40.554 224.553,40.299 225.185,40.741C226.901,41.893 229.24,44.563 227.527,47.231C224.868,51.357 222.227,56.398 221.858,60.184C221.489,63.968 222.924,66.426 224.965,66.062C227.505,65.656 229.841,61.457 231.293,56.611C230.794,53.628 231.288,50.165 232.623,46.701C234.584,41.536 238.553,36.771 243.082,35.825C245.416,35.341 246.799,35.783 248.556,37.443C250.581,39.346 252.885,39.55 253.046,44.579C253.042,45.14 253.101,45.623 253.096,46.185C253.536,46.129 253.965,45.937 254.554,45.865C255.073,45.804 255.114,46.149 254.859,46.531C254.409,47.146 253.707,47.511 252.983,47.671C252.143,53.737 248.572,61.276 243.663,63.816C241.253,65.037 237.734,65.351 234.254,62.313C233.651,61.781 233.17,61.159 232.745,60.502C231.511,64.291 228.327,67.393 224.934,67.991C219.893,68.86 216.799,64.897 217.409,59.395C217.945,54.555 221.128,48.794 223.482,45.054C220.614,47.7 217.595,49.001 215.388,49.507C213.608,54.886 209.121,66.177 209.469,72.651C209.487,73.291 209.163,73.738 208.384,73.295C205.857,71.807 204.991,68.728 205.99,64.786ZM378.367,66.184C381.143,66.873 385.823,63.761 390.753,58.482C396.821,52.065 399.144,48.165 397.002,47.522C394.731,46.844 388.23,49.727 382.897,54.798C377.663,59.746 375.675,65.52 378.367,66.184ZM237.49,62.018C239.749,63.245 243.601,60.136 246.234,53.29C247.041,51.204 247.649,49.154 248.01,47.416C247.468,47.281 246.987,47.069 246.496,46.789C244.794,45.905 242.653,43.767 242.19,41.233C240.406,43.123 238.612,45.738 237.508,48.607C235.292,54.343 235.392,60.836 237.49,62.018ZM264.344,61.585C265.131,61.587 265.928,61.528 266.727,61.428C270.855,60.871 274.701,58.732 277.326,55.223C277.333,55.234 277.338,55.245 277.344,55.256L277.355,55.279C277.361,55.29 277.367,55.301 277.373,55.311C280.09,59.534 284.661,61.029 289.588,59.849C297.649,57.965 302.687,47.954 306.805,38.837C309.283,38.883 312.518,38.279 315.92,36.543C312.589,39.665 307.834,44.762 306.231,49.473C304.324,55.016 306.423,59.815 311.773,60.125C315.286,60.302 319.191,58.109 321.445,54.695C321.703,55.536 322.034,56.353 322.546,57.096C325.169,60.885 328.642,61.432 331.262,60.829C336.621,59.554 341.901,53.101 344.18,47.42C344.922,47.439 345.692,47.253 346.274,46.767C346.612,46.458 346.657,46.114 346.141,46.049C345.553,45.974 345.093,46.06 344.651,46.005C344.794,45.462 344.853,44.978 344.993,44.434C346.051,39.519 343.87,38.761 342.376,36.425C341.072,34.39 339.84,33.626 337.467,33.53C332.857,33.353 327.876,37.019 324.741,41.553C322.811,44.309 321.539,47.236 321.138,50.007C318.51,54.638 314.978,58.413 312.198,58.189C310.07,58.049 309.279,55.178 310.625,51.387C311.884,47.802 315.878,43.204 319.612,39.644C321.916,37.472 320.305,34.105 318.999,32.578C318.424,31.85 317.647,32.026 316.7,32.678C313.645,34.352 310.888,35.378 308.234,35.665C310.007,31.116 310.774,26.82 308.286,26.901C305.04,26.953 297.853,36.314 303.882,38.446C300.227,47.1 295.656,54.69 291.086,57.095C293.261,55.377 293.66,52.593 293.765,50.085C293.995,45.351 292.566,39.878 292.911,33.611C293.211,33.187 293.43,32.698 293.653,32.346C294.624,30.729 295.005,29.961 294.228,29.276C293.528,28.659 291.827,28.893 290.096,30.399C288.591,31.688 287.867,33.035 287.645,35.756C285.476,39.373 282.442,43.947 279.577,48.005C279.477,47.523 279.444,46.897 279.418,46.413C279.282,45.236 278.749,45.054 277.831,45.804C276.122,47.203 275.666,49.76 276.161,52.201C274.52,54.791 272.28,57.202 269.198,58.625C271.621,56.749 271.918,53.805 271.858,51.085C271.73,46.281 269.903,40.979 269.939,34.558C270.207,34.047 270.406,33.613 270.677,33.175C271.551,31.506 271.886,30.714 271.067,30.078C270.332,29.503 268.576,29.913 267.004,31.444C265.504,32.896 264.862,34.286 264.727,37.021C262.849,40.752 259.945,45.587 257.397,49.804C257.26,49.26 257.198,48.705 257.062,48.161C256.864,47.065 256.24,46.856 255.439,47.65C253.164,49.887 253.55,54.472 255.645,57.365C258.011,60.556 261.071,61.571 264.297,61.585L264.344,61.585ZM350.44,61.081C353.326,61.561 357.645,57.719 362.39,52.323C368.282,45.583 369.835,41.506 367.683,40.893C365.321,40.248 359.052,43.771 354.137,49.316C349.392,54.67 347.709,60.633 350.44,61.081ZM264.64,59.039C267.815,57.762 265.793,46.986 264.978,41.47C263.145,45.34 260.801,49.419 258.473,53.461C260.013,57.35 262.365,59.96 264.64,59.039ZM336.297,51.243C337.579,49.412 338.662,47.568 339.428,45.972C338.938,45.709 338.524,45.386 338.118,44.993C336.687,43.726 335.134,41.134 335.297,38.564C333.115,39.965 330.754,42.069 328.991,44.585C325.47,49.615 324.003,55.938 325.737,57.594C327.621,59.329 332.096,57.248 336.297,51.243ZM286.311,57.59C289.34,56.51 287.966,45.843 287.631,40.282C285.499,43.899 282.992,47.826 280.425,51.653C281.732,55.695 283.99,58.441 286.311,57.59ZM248.271,45.484C248.572,43.268 248.567,41.512 248.175,40.303C247.503,38.146 246.046,38.77 245.956,40.823C245.845,42.734 246.949,44.613 248.271,45.484ZM341.311,39.108C341.182,36.853 339.621,37.104 339.04,39.073C338.468,40.904 339.081,42.995 340.15,44.16C340.976,42.08 341.397,40.377 341.311,39.108Z" style="fill:rgb(239,65,55);"/>
    </g>
    <g transform="matrix(4.16667,0,0,4.16667,0,0)">
        <path d="M7.741,235.763L316.549,368.381L611.554,207.185L441.825,134.647C441.825,134.647 284.281,85.038 180.105,141.6C74.481,198.947 7.741,235.763 7.741,235.763Z" style="fill:none;stroke-width:3.5px;stroke:rgb(8,6,5);"/>
    </g>
    <g transform="matrix(4.16667,0,0,4.16667,0,0)">
        <path d="M549.152,193.018L479.657,219.334L543.292,257.71L612.788,231.392L549.152,193.018Z" style="fill:none;stroke-width:3.5px;stroke:rgb(8,6,5);"/>
    </g>
    <g transform="matrix(4.16667,0,0,4.16667,0,0)">
        <path d="M66.824,188.749L4.562,229.311L74.929,253.197L137.193,212.632L66.824,188.749Z" style="fill:none;stroke-width:3.5px;stroke:rgb(8,6,5);"/>
    </g>
    <g transform="matrix(4.16667,0,0,4.16667,0,0)">
        <path d="M133.916,89.942C134.237,89.964 134.589,89.806 134.994,89.648C139.044,88.257 149.55,84.685 156.531,83.754C156.271,85.097 155.962,85.437 154.518,85.99C151.533,87.051 146.759,88.707 143.163,90.251C140.969,91.181 140.921,92.045 140.655,93.419C140.398,94.619 140.508,96.186 138.9,97.146C137.694,97.775 137.285,98.099 136.276,98.742C135.267,99.381 134.869,99.534 134.768,101.438C134.679,103.168 134.041,104.177 133.328,106.564C132.617,108.959 132.337,110.506 132.265,111.888C132.213,112.913 132.503,113.479 133.062,113.517C133.26,113.531 133.491,113.476 133.753,113.355C134.63,113.18 136.081,112.755 137.731,112.282C137.759,114.339 137.331,115.347 136.694,116.807C136.041,118.16 135.188,119.504 135.06,121.924C134.915,124.692 134.813,126.597 134.373,127.615C133.927,128.632 133.482,129.651 133.616,130.873C133.735,132.268 133.473,133.644 134.399,134.555C134.739,134.891 134.967,135.037 135.227,135.055C135.534,135.076 135.891,134.918 136.54,134.67C167.287,121.635 210.661,111.359 255.054,108.208C264.071,107.929 273.816,108.134 284.04,108.827C312.435,110.752 344.569,116.438 375.397,125.976C376.66,126.35 377.644,126.57 378.416,126.622C379.413,126.69 380.061,126.475 380.516,125.95C381.249,125.169 380.797,124.796 379.816,124.204C376.178,122.349 371.217,120.525 367.933,119.332C368.349,118.81 368.803,118.544 369.495,118.591C369.724,118.606 369.979,118.654 370.266,118.739C386.235,122.542 421.65,135.968 444.726,147.656C445.343,147.991 445.858,148.16 446.313,148.19C446.96,148.234 447.485,148.002 448.02,147.587C448.871,147.037 451.753,145.523 453.941,143.722C454.933,142.866 455.654,142.667 456.837,142.748C457.169,142.77 457.54,142.814 457.967,142.872L458.334,142.913C459.47,142.99 460.252,142.537 461.739,141.191C464.427,138.688 467.309,137.174 469.414,134.611C470.273,133.521 470.125,132.914 468.796,132.173C467.723,131.578 463.982,129.382 459.26,126.975C460.001,126.504 460.754,126.2 461.613,126.258C462.082,126.29 462.583,126.428 463.13,126.705C465.141,127.734 466.989,128.693 468.964,129.341C469.579,129.542 470.054,129.651 470.461,129.679C471.358,129.74 471.915,129.403 472.87,128.801C474.321,127.777 476.072,126.517 476.807,125.737C477.544,124.959 477.934,124.032 477.675,123.198C477.412,122.363 478.083,121.734 479.056,120.875C479.964,120.165 482.003,117.753 483.039,116.737C484.081,115.723 483.515,115.124 482.494,114.148C482.035,113.729 480.984,112.989 479.628,112.094C481.331,110.394 482.382,109.214 483.376,108.167C484.134,107.425 484.963,107.294 485.881,107.357C486.219,107.379 486.563,107.427 486.927,107.483C487.479,107.542 487.987,107.706 488.487,107.74C489.05,107.778 489.601,107.653 490.183,107.031C491.286,105.865 491.545,105.246 492.758,104.302C493.971,103.36 493.879,102.597 492.693,101.552C476.704,88.874 435.95,67.997 401.334,58.281C401.254,56.269 401.083,54.376 398.159,53.314C390.05,50.334 381.225,47.632 372.258,45.246C373.018,43.978 372.647,43.283 371.168,42.7C358.522,38.436 335.104,34.45 310.211,32.763C295.692,31.779 280.68,31.578 267,32.558C266.258,30.731 265.48,29.037 262.679,28.847C262.515,28.836 262.343,28.829 262.165,28.83C228.007,28.6 185.065,35.891 165.6,42.155C162.025,43.358 161.134,45.391 160.87,46.766C160.707,47.341 160.915,47.624 161.427,47.659C161.678,47.676 162.002,47.633 162.39,47.539C166.178,46.738 170.501,45.985 174.817,45.825C174.372,46.659 173.679,46.83 171.772,47.338C165.84,48.76 158.51,50.805 153.912,52.822C150.319,54.367 150.051,55.74 148.897,59.15C148.425,60.687 147.584,61.858 146.165,62.823C144.95,63.627 142.968,64.216 141.365,65.002C140.552,65.652 139.724,66.477 139.236,68.358C138.739,70.417 137.283,72.076 136.175,74.619C135.065,77.162 135.394,78.393 134.485,80.776C132.886,85.204 132.193,87.249 133.068,89.204C133.328,89.732 133.607,89.921 133.916,89.942Z" style="fill:none;stroke-width:3.5px;stroke:rgb(8,6,5);"/>
    </g>
</svg>
