<?xml version="1.0" standalone="no"?>
<!DOCTYPE svg PUBLIC "-//W3C//DTD SVG 1.1//EN" "http://www.w3.org/Graphics/SVG/1.1/DTD/svg11.dtd">
<svg width="100%" height="100%" viewBox="0 0 10010 13706" version="1.1" xmlns="http://www.w3.org/2000/svg" xmlns:xlink="http://www.w3.org/1999/xlink" xml:space="preserve" style="fill-rule:evenodd;clip-rule:evenodd;stroke-linejoin:round;stroke-miterlimit:1.41421;">
    <g transform="matrix(1,0,0,1,-1785.31,-4058.57)">
        <g transform="matrix(4.16667,0,0,4.16667,0,0)">
            <g>
                <path d="M2069.28,1658.48C1950.17,1615.88 1826.97,1583.75 1701.87,1570.31C1605.14,1559.92 1506.55,1561.16 1410.59,1578.02C1358.68,1587.12 1307.53,1601.98 1259.52,1624.02C1204.36,1649.33 1152.89,1684.64 1113.53,1731.56C1082.89,1768.08 1058.48,1811.43 1048.61,1858.58C1047.88,1862.04 1047.25,1865.53 1046.72,1869.04C1045.17,1879.29 1044.5,1889.78 1046.16,1900C1047.82,1910.24 1051.93,1920.25 1059,1927.77C1072.31,1941.93 1093.82,1945.03 1112.92,1942.01C1138.74,1937.93 1162.85,1923.97 1179.59,1903.69C1187.46,1894.16 1193.81,1883.14 1196.73,1871.08C1199.66,1859.02 1198.99,1845.87 1193.59,1834.72C1181.7,1847.41 1162.89,1870.42 1143.35,1860.81C1131.26,1854.87 1127.26,1838.92 1129.18,1826.48C1133.47,1798.65 1156.02,1775.1 1177.3,1758.68C1224.11,1722.55 1282.61,1701.28 1340.4,1692.13C1397.66,1683.07 1456.14,1685.5 1513.36,1693.54C1572.52,1701.85 1630.69,1716.11 1688.3,1731.79C1743.94,1746.95 1799.16,1763.73 1855.07,1777.88C1858.78,1778.81 1862.47,1779.73 1866.18,1780.64C1884.07,1785.03 1902.01,1789.15 1920.04,1792.87C1995.57,1808.4 2071.73,1822.41 2148.79,1826.94C2188.32,1829.27 2228.06,1829.09 2267.47,1824.96C2303.26,1821.21 2347.59,1816.76 2379.91,1800C2331.84,1766.55 2274.22,1741.96 2220.78,1718.71C2171.16,1697.13 2120.6,1676.83 2069.28,1658.48" style="fill:rgb(238,113,171);fill-rule:nonzero;"/>
                <path d="M833.003,2510.97C823.933,2510.97 815.108,2510.17 806.779,2508.61C774.998,2502.64 748.286,2484.61 735.333,2460.37C706.39,2406.17 735.785,2324.19 745.477,2300.35C770.975,2241.47 806.476,2200.02 853.958,2173.8C853.869,2176 853.395,2179.43 852.276,2183.74C851.12,2188.23 849.357,2192.88 847.66,2197.39C846.445,2200.6 845.192,2203.92 844.162,2207.16C840.116,2219.91 835.863,2234.8 836.612,2250.12C837.315,2264.7 844.703,2298.64 897.943,2298.64C899.566,2298.64 901.011,2298.61 902.219,2298.55C982.105,2294.97 1029.57,2226.22 1071.43,2165.56L1079.91,2153.31C1088.76,2140.62 1097.63,2127.07 1107.04,2111.88C1126.37,2080.66 1144.46,2047.97 1161.96,2016.36C1182.25,1979.71 1203.1,1942.03 1225.98,1906.37C1252.42,1865.16 1294.43,1809.52 1333.05,1776.93C1342.19,1769.23 1351.63,1762.37 1361.14,1756.55C1393.61,1736.68 1430.34,1726.18 1467.39,1726.18C1491.45,1726.18 1514.62,1730.59 1536.25,1739.29L1537.31,1739.71L1536.22,1740.03C1485.95,1754.7 1445.47,1777.74 1415.91,1808.52C1393.89,1831.44 1366,1867.28 1330.67,1918.1C1325.57,1925.44 1320.88,1933.03 1316.88,1939.57L1315.24,1942.23C1310.31,1950.14 1307.18,1955.8 1306.75,1959.51C1306.82,1958.95 1315.92,1957.95 1316.59,1957.85C1322.57,1956.98 1328.72,1956.09 1334.78,1956.05C1353.44,1955.93 1374.61,1964.55 1382.77,1982.58C1396.57,2012.98 1377.66,2046.6 1368.89,2059.63C1362.04,2069.82 1353.38,2079.73 1342.43,2089.91C1339.42,2092.7 1335.24,2095.59 1331.18,2098.38C1326.69,2101.47 1322.09,2104.64 1318.71,2107.9L1317.57,2107.09C1332.11,2084.83 1335.93,2067.22 1329.98,2050.26C1326.31,2039.79 1319.03,2031.38 1310.49,2027.77C1307.21,2026.38 1303.81,2025.68 1300.37,2025.68C1296.29,2025.68 1292.13,2026.67 1288.01,2028.61C1265.85,2039.09 1254.14,2063.05 1243.81,2084.2L1241.81,2088.28C1221.38,2129.84 1198.36,2170.5 1178.38,2205.34C1114.43,2316.91 1034.84,2455.75 895.453,2500.32C873.357,2507.39 852.35,2510.97 833.003,2510.97" style="fill:rgb(238,113,171);fill-rule:nonzero;"/>
                <path d="M846.751,978.558C773.06,992.429 723.962,1039.99 695.337,1103.47C678.376,1141.09 658.021,1172.38 624.091,1196.43C553.95,1246.17 547.332,1356.32 556.513,1434.7C560.404,1467.94 577.58,1502.98 608.96,1513.69C611.813,1514.66 614.814,1515.43 617.8,1515.08C643.476,1512.07 635.317,1450.6 638.644,1433.89C649.137,1381.2 680.755,1311 736.003,1293.58C791.636,1276.04 851.716,1271.63 909.683,1260.57C936.084,1255.55 950.06,1277.3 950.638,1301.99C952.49,1381.71 886.801,1471.82 835.481,1526.64C680.881,1691.8 452.775,1860.31 430.367,2103.67C423.098,2182.59 436.014,2263.79 482.437,2330.77C531.809,2402.02 597.742,2428.35 671.67,2453.93C666.506,2452.15 664.342,2421.66 664.068,2416.7C663.23,2401.56 665.327,2385.82 667.625,2370.88C673.367,2333.57 684.534,2297.09 701.547,2263.43C718.693,2229.5 741.664,2201.94 767.228,2174.45C772.089,2169.22 773.393,2158.2 766.25,2154.27C763.657,2152.84 760.633,2152.48 757.692,2152.27C743.983,2151.26 730.016,2154.17 716.448,2152.13C676.427,2146.1 659.081,2088.49 661.245,2055.38C678.561,1790.19 969.488,1689.54 1081.94,1477.36C1175.56,1300.69 1109.81,929.038 846.751,978.558" style="fill:rgb(238,113,171);fill-rule:nonzero;"/>
                <path d="M1608.82,2858.04C1560.04,2849.54 1511.89,2837.3 1464.97,2821.36C1410.28,2802.78 1357.21,2779.18 1306.91,2750.6C1290.58,2741.33 1285.52,2745.14 1286.9,2764.07C1288.12,2780.89 1289.41,2797.7 1290.78,2814.5C1293.49,2848.1 1296.47,2881.68 1299.73,2915.24C1334.49,3273.45 1401.35,3628.11 1504.57,3972.7C1521.73,4029.99 1539.85,4086.99 1558.93,4143.66C1495.12,4139.82 1430.29,4155.84 1375.43,4188.99C1359.1,4198.86 1341.64,4215.2 1346.3,4233.85C1350.71,4251.51 1371.86,4258.09 1389.75,4260.37C1458.61,4269.12 1529.74,4258.75 1593.35,4230.7C1601.01,4227.33 1608.85,4223.47 1613.96,4216.79C1623.19,4204.72 1622.03,4187.32 1617.82,4172.68C1413.55,3463.37 1400.43,3285.24 1376.66,3054.33C1373.92,3027.61 1371.34,3000.89 1368.86,2974.15C1367.9,2963.76 1368.14,2892.23 1361.28,2888.69C1534.19,2978.13 1739.53,3001.63 1927.84,2953.52C2015.91,2931.02 2108.31,2885.23 2141.06,2799.58C2138.93,2805.16 2108.36,2812.7 2102.35,2814.92C2088.8,2819.93 2075.13,2824.61 2061.35,2828.96C2033.82,2837.66 2005.88,2845.05 1977.66,2851.13C1921.21,2863.3 1863.66,2870.24 1805.97,2872.02C1740.02,2874.06 1673.85,2869.37 1608.82,2858.04" style="fill:rgb(238,113,171);fill-rule:nonzero;"/>
                <path d="M2830.7,2366.47C2775.26,2426.01 2704.11,2470.45 2626.63,2493.95C2675.5,2403.92 2724.37,2313.91 2773.22,2223.89C2755.95,2216.54 2736.23,2225.42 2720.73,2236.09C2643.38,2289.39 2606.17,2386.21 2534.25,2446.8C2522.28,2456.88 2507.89,2466.32 2492.39,2464.75C2464.35,2461.91 2452.3,2426.78 2452.92,2398.3C2453.96,2349.77 2473.43,2301.88 2506.45,2266.62C2474.9,2267.02 2446.46,2287.93 2428.27,2313.97C2410.07,2340.01 2400.25,2370.92 2390.01,2401.07C2357.28,2497.44 2312.6,2597.58 2226.62,2650.77C2219.57,2655.13 2211.01,2659.23 2203.37,2656.06C2193.22,2651.84 2191.65,2638.2 2191.79,2627.1C2192.26,2590.87 2194.31,2554.04 2206.38,2519.92C2218.45,2485.8 2241.87,2454.29 2274.89,2440.17C2290.41,2433.53 2307.52,2430.9 2322.42,2422.95C2337.32,2414.99 2350.24,2399.07 2347.16,2382.32C2326,2393.89 2301.93,2399.96 2277.88,2399.79C2273.18,2399.75 2268.2,2399.4 2264.34,2396.67C2255.03,2390.09 2258.22,2375.86 2259.05,2364.41C2260.88,2339.36 2244.09,2314.14 2220.43,2306.41C2226.77,2336.62 2215.28,2369.95 2191.73,2389.63C2172.31,2405.85 2146.96,2412.4 2124.42,2423.78C2101.88,2435.14 2080.05,2455.26 2080.16,2480.72C2111.98,2466.09 2146.45,2457.35 2181.34,2455.08C2152.28,2540.61 2107.37,2620.59 2049.63,2689.66C2039.2,2702.14 2025.21,2715.43 2009.35,2712.35C1990.83,2708.76 1983.7,2685.86 1982.67,2666.84C1975.95,2543.44 2070,2436.97 2088.16,2314.75C2060.47,2342.9 2015.37,2351.8 1979.23,2336.24C1964.42,2329.87 1951.23,2319.89 1936.01,2314.64C1920.79,2309.37 1901.7,2310.13 1891.27,2322.52C1871.52,2346.01 1898.99,2379.35 1903.64,2409.81C1906.62,2429.41 1899.45,2448.98 1892.42,2467.49C1860.7,2550.88 1828.98,2634.28 1797.27,2717.66C1791.39,2733.13 1780.12,2751.78 1764.1,2748.31C1747.41,2744.7 1745.44,2721.61 1747.85,2704.54C1763.6,2592.51 1800.3,2483.54 1855.44,2385.07C1829.24,2390.45 1805.64,2407.63 1792.29,2431.04C1780.98,2392.83 1746.99,2363.27 1708.49,2354.54C1631.46,2337.06 1567.5,2397.25 1530.93,2458.65C1507.13,2498.59 1490.32,2541.23 1474.02,2584.64C1453.19,2640.11 1440.28,2707.94 1476.6,2754.55C1507.74,2794.51 1567.56,2803.35 1614.22,2784.27C1660.87,2765.2 1695.35,2723.51 1718.19,2678.19C1714.54,2685.43 1715.67,2693.36 1714.81,2701.08C1713.71,2710.74 1712.43,2720.32 1711.8,2730.02C1709.66,2762.8 1705.51,2807.5 1739.38,2825.58C1764.87,2838.99 1797.66,2826.49 1816.57,2804.62C1835.48,2782.76 1843.79,2753.8 1851.57,2725.84C1874.64,2642.95 1897.7,2560.07 1920.76,2477.18C1926.7,2455.86 1933.06,2433.74 1947.62,2417.2C1962.19,2400.66 1987.56,2391.59 2006.61,2402.52C1951.39,2499.16 1916.67,2607.71 1905.48,2718.74C1903.77,2735.8 1902.65,2753.43 1907.89,2769.74C1913.13,2786.05 1926.15,2800.9 1942.95,2803.29C1955.43,2805.07 1967.8,2799.92 1979.07,2794.22C2042.26,2762.3 2094.56,2708.87 2125.47,2644.68C2132.68,2676.55 2144.39,2713.61 2175.25,2723.4C2203.4,2732.34 2232.28,2713.26 2254.42,2693.56C2309.6,2644.51 2355.49,2584.84 2388.93,2518.7C2431.67,2536.03 2481.44,2534.8 2523.28,2515.37C2500.9,2557.03 2458.41,2582.89 2417.77,2606.55C2377.13,2630.22 2334.47,2655.57 2311.29,2696.78C2288.09,2737.98 2293.93,2799.86 2335.62,2821.59C2373.01,2841.07 2418.71,2820.43 2451.65,2793.99C2490.12,2763.11 2521.99,2723.87 2544.45,2679.7C2565.37,2638.57 2579.56,2591.43 2614.8,2561.89C2643.42,2537.89 2681.46,2529.51 2714.81,2512.86C2772.07,2484.29 2815.68,2429.19 2830.7,2366.47M1740.27,2471.66C1731.94,2521.91 1717.69,2565.96 1692.64,2618.95C1652.25,2704.39 1614.95,2747.72 1581.78,2747.72C1577.93,2747.72 1574.14,2747.12 1570.5,2745.93C1545.26,2737.72 1545.56,2703.85 1546.85,2689.68C1552.1,2632.56 1568.25,2576.02 1594.83,2521.65L1598.61,2513.87C1617.35,2475.09 1652.24,2402.91 1694.83,2394.28C1698.33,2393.57 1701.7,2393.21 1704.82,2393.21C1713.66,2393.21 1721.12,2396.11 1726.98,2401.85C1741.77,2416.33 1744.31,2447.35 1740.27,2471.66M2485.41,2623.96C2459,2680.76 2409.08,2776.06 2371.46,2776.06L2370.99,2776.06C2364.46,2775.91 2359.64,2772.24 2356.74,2769.18C2351.96,2764.13 2348.97,2757.05 2349.11,2751.13C2350.22,2702.53 2431.09,2644.34 2478.7,2617.61L2491.78,2610.27L2485.41,2623.96Z" style="fill:rgb(238,113,171);fill-rule:nonzero;"/>
                <path d="M1148.44,2687.03C1186.07,2696.12 1252.91,2699.41 1289.8,2689.85C1364.58,2670.46 1423.24,2627.5 1452.23,2547.99C1456.02,2537.59 1458.65,2526.71 1459.64,2515.65C1462.25,2486.55 1453.18,2460.3 1433.41,2439.73C1414.27,2419.8 1387.47,2410.5 1366.26,2404.62C1331.28,2394.93 1294.18,2390.01 1255.96,2390.01C1222.8,2390.01 1189.07,2393.73 1155.71,2401.08C1128.98,2406.96 1090.23,2417.82 1062.48,2444.03C1047.06,2458.59 1036.88,2476.49 1033.79,2494.43C1030.26,2514.98 1036.29,2535.97 1049.53,2549.22C1055.8,2555.49 1065.2,2559.53 1073.5,2559.53C1073.98,2559.53 1074.46,2559.52 1074.93,2559.49C1080.75,2559.14 1085.56,2556.74 1088.83,2552.57C1093.17,2547.05 1093.86,2539.76 1094.52,2532.7L1094.81,2529.68C1097.91,2500.4 1113.74,2472.45 1137.14,2454.92C1155.22,2441.39 1177.83,2433.94 1200.83,2433.94C1205.19,2433.94 1209.58,2434.22 1213.85,2434.76L1219.92,2435.53L1217.91,2441.37C1195.45,2506.66 1151.39,2567.73 1093.86,2613.32C1069.6,2632.54 1048.48,2644.56 1027.36,2651.14C1015.39,2654.87 1003.4,2656.76 991.726,2656.77C977.507,2656.77 964.317,2653.99 952.506,2648.52C928.209,2637.25 911.099,2613.32 909.936,2588.96L909.869,2587.49L909.188,2588.79C884.209,2636.22 881.534,2683.57 902.045,2715.41C917.939,2740.11 947.934,2755.45 980.315,2755.45C982.864,2755.45 985.435,2755.35 987.977,2755.16C1018.48,2752.84 1049.35,2737.42 1074.89,2711.72C1076.54,2710.06 1078.18,2708.36 1079.85,2706.6C1089.65,2696.43 1098.9,2686.81 1111.72,2683.54C1114.83,2682.75 1118.09,2682.36 1121.67,2682.36C1130.07,2682.36 1138.55,2684.52 1146.85,2686.63C1147.38,2686.77 1147.9,2686.9 1148.44,2687.03M1187.24,2587.29C1204.31,2560.63 1232.88,2516 1256.49,2447.18L1257.31,2444.78L1259.72,2444.03C1262.8,2443.08 1265.91,2442.6 1268.99,2442.6C1269.78,2442.6 1270.57,2442.63 1271.35,2442.7C1302.78,2445.3 1326.97,2452.57 1345.3,2464.92C1360.23,2474.97 1368.34,2488.1 1369.4,2503.94C1371.53,2535.64 1345.1,2571.13 1321.83,2591.88C1317.59,2595.67 1313.32,2599.09 1309.14,2602.06C1282.35,2621.09 1249.09,2631.57 1215.46,2631.57C1214.41,2631.57 1209.82,2631.49 1209.82,2631.49C1198.38,2631.32 1184.14,2631.1 1174.14,2625.9C1173.44,2625.53 1171.28,2624.4 1170.57,2621.83C1169.12,2616.3 1173.99,2607.97 1187.24,2587.29" style="fill:rgb(238,113,171);fill-rule:nonzero;"/>
                <g transform="matrix(0.922676,-0.366961,0.369559,0.929207,4.26183,-1.69499)">
                    <text x="652.474px" y="1871.82px" style="font-family:'Arial-BoldMT';font-size:130.869px;fill:rgb(247,172,29);">C</text>
                </g>
                <g transform="matrix(0.974425,-0.17481,0.17658,0.984286,11.0788,-1.98752)">
                    <text x="1123.4px" y="1682.49px" style="font-family:'Arial-BoldMT';font-size:130.829px;fill:rgb(247,172,29);">R</text>
                </g>
                <g transform="matrix(0.988714,-0.037202,0.03759,0.999293,15.5393,-0.584694)">
                    <text x="1467.43px" y="1492.82px" style="font-family:'Arial-BoldMT';font-size:130.676px;fill:rgb(247,172,29);">O</text>
                </g>
                <g transform="matrix(0.987189,0.0721879,-0.0729301,0.997337,17.8028,1.30183)">
                    <text x="1754.25px" y="1309.69px" style="font-family:'Arial-BoldMT';font-size:130.701px;fill:rgb(247,172,29);">S</text>
                </g>
                <g transform="matrix(0.977724,0.159067,-0.160581,0.987023,18.3227,2.98094)">
                    <text x="1970.43px" y="1141.52px" style="font-family:'Arial-BoldMT';font-size:130.77px;fill:rgb(247,172,29);">S</text>
                </g>
                <g transform="matrix(0.961525,0.237787,-0.240069,0.970756,19.9768,4.94028)">
                    <text x="2164.18px" y="970.167px" style="font-family:'Arial-BoldMT';font-size:130.878px;fill:rgb(247,172,29);">R</text>
                </g>
                <g transform="matrix(0.941813,0.30878,-0.311541,0.950233,19.8151,6.49652)">
                    <text x="2353.46px" y="798.354px" style="font-family:'Arial-BoldMT';font-size:130.921px;fill:rgb(247,172,29);">O</text>
                </g>
                <g transform="matrix(0.919637,0.368888,-0.372289,0.928117,21.4493,8.60379)">
                    <text x="2529.54px" y="637.601px" style="font-family:'Arial-BoldMT';font-size:131.02px;fill:rgb(247,172,29);">A</text>
                </g>
                <g transform="matrix(0.900893,0.417027,-0.420079,0.907487,17.8237,8.25064)">
                    <text x="2702.96px" y="498.617px" style="font-family:'Arial-BoldMT';font-size:130.936px;fill:rgb(247,172,29);">D</text>
                </g>
                <g transform="matrix(0.860567,0.502317,-0.50411,0.863639,8.79714,5.13493)">
                    <text x="2863.36px" y="228.4px" style="font-family:'Arial-BoldMT';font-size:130.776px;fill:rgb(247,172,29);">S</text>
                </g>
                <path d="M2509.22,2083.44C2561.09,2076.52 2614.62,2065.08 2655.85,2032.53C2670.17,2021.23 2683.24,2006.47 2686.31,1988.36C2689.38,1970.26 2678.87,1949.02 2660.96,1945.89C2652.6,1978.8 2624.27,2003.49 2593.06,2016.11C2561.85,2028.71 2527.67,2031.13 2494.14,2033.41C2517.2,2001 2536.05,1962.06 2530.43,1922.55C2524.81,1883.03 2485.6,1847.01 2447.63,1858.01C2472.73,1921.93 2457.47,1997.14 2419.68,2054.33C2381.89,2111.51 2324.16,2152.6 2263.1,2182.92C2236.89,2195.93 2203.15,2206.45 2180.54,2187.77C2160.26,2171 2160.6,2140.01 2163.74,2113.71C2173.16,2034.79 2198.87,1947.29 2268.98,1911.27C2257.67,1931.52 2246.08,1952.66 2244.59,1975.87C2243.1,1999.08 2254.93,2024.92 2276.99,2031.52C2291.33,2035.8 2307.07,2031.22 2319.68,2023.11C2357.83,1998.6 2368.89,1939.88 2342.31,1902.91C2343.28,1904.21 2376.11,1886.37 2379.2,1884.09C2377.82,1883.34 2369.94,1881.74 2368.36,1881.49C2358.66,1879.93 2354.97,1880.13 2345.16,1879.7C2336.05,1879.3 2326.64,1880.98 2317.66,1879.12C2315.41,1878.66 2313.53,1877.19 2311.66,1875.85C2295.42,1864.18 2274.65,1863.14 2255.41,1863.76C2214.01,1865.1 2175.54,1880.74 2144.82,1909.88C2112.82,1940.24 2096.19,1979.57 2078.74,2018.66C2060.76,2058.92 2032.46,2100.18 1989.58,2108.69C2008.65,2064.84 2028.02,2019.76 2030.31,1971.92C2032.59,1924.07 2014.07,1872.14 1972.98,1848.29C1951.12,1835.59 1925.07,1831.95 1899.88,1833C1849.13,1835.1 1799.32,1855.76 1761.75,1890.31C1663.28,1980.83 1664.57,2139.57 1587.83,2249.48C1574.22,2268.97 1555.42,2288.16 1531.82,2288.83C1501.03,2289.69 1477.68,2256.4 1478.19,2225.27C1478.7,2194.13 1496.3,2166.09 1515.16,2141.47C1552.58,2092.62 1597.33,2049.78 1633.43,1999.94C1669.54,1950.09 1697.24,1890.39 1693.18,1828.75C1691.55,1803.92 1682.02,1776.22 1659.15,1767.01C1631.56,1755.89 1602.09,1777.53 1582.34,1799.96C1471.18,1926.22 1451.27,2113.72 1344.24,2243.57C1334.39,2255.52 1322.18,2267.44 1307.25,2272.41C1292.6,2277.28 1276.35,2271.35 1266.78,2257.88C1258.18,2245.76 1254.72,2220.35 1261.71,2206.69C1224.77,2208.96 1206.35,2242.29 1200.46,2275.43C1197.81,2290.38 1198.57,2306.3 1204.89,2320.09C1225.54,2365.16 1284.41,2360.95 1320.01,2338.56C1347.11,2321.51 1367.26,2295.48 1386.82,2269.99C1379.94,2309.03 1410.02,2348.32 1447.62,2359.68C1458.12,2362.85 1468.93,2364.18 1479.76,2363.98C1507.7,2363.43 1535.8,2352.57 1559.07,2336.34C1591.37,2313.81 1615.99,2281.93 1639.25,2249.99C1695.3,2321.47 1811.18,2334.19 1881.11,2276.53C1934.53,2232.49 1965.47,2154.05 2033.04,2140.17C2024.07,2196.11 2077.4,2245.31 2132.33,2256.71C2185.98,2267.86 2242.58,2254.1 2290.68,2227.64C2338.79,2201.17 2379.37,2162.72 2416.69,2122.21C2407.05,2183.68 2377.03,2241.7 2332.57,2284.77C2373.55,2289.72 2415.27,2269.76 2442.16,2238.11C2469.04,2206.45 2482.13,2164.48 2484.34,2122.82C2516.59,2183.73 2591.53,2218.01 2658.1,2202.3C2724.66,2186.59 2776.83,2122.3 2779.05,2053.26C2704.82,2114.19 2594.82,2126.49 2509.22,2083.44M1517.4,2033.28C1537.2,1974.91 1566.68,1919.92 1604.29,1871.32C1610.63,1863.13 1617.28,1855.03 1625.2,1848.43C1626.83,1847.06 1631.41,1842.87 1633.17,1841.65C1633.12,1876.47 1621.16,1912.51 1605.74,1943.15C1579.91,1994.47 1545.68,2041.45 1504.87,2081.61C1507.48,2065.09 1512.05,2049.08 1517.4,2033.28M1963.29,1938.82C1962.86,1941.86 1962.3,1944.75 1960.36,1946.67C1958.8,1948.22 1956.6,1948.97 1953.65,1948.97C1951.13,1948.97 1948.24,1948.42 1945.94,1947.99L1944.08,1947.64C1941.61,1947.21 1939.03,1946.99 1936.43,1946.99C1919.84,1946.99 1902.7,1955.81 1891.68,1970.02C1881.12,1983.63 1875.2,2001.95 1874.1,2024.46C1872.82,2050.7 1877.94,2077.27 1888.91,2101.3L1889.4,2102.36L1889.36,2103.53C1888.95,2114.06 1864.25,2161.33 1859.28,2169.85C1837.62,2206.99 1813.03,2243.77 1771.7,2250.03C1769.01,2250.44 1766.33,2250.65 1763.72,2250.65C1756.08,2250.65 1749.01,2248.89 1743.27,2245.54C1732.72,2239.37 1725.07,2226.69 1722.8,2211.6C1718.06,2180.08 1728.16,2141.93 1736.29,2111.26L1737.34,2107.31C1746.1,2074.17 1757.77,2043.14 1772.06,2015.1C1794.66,1970.72 1835.95,1910.98 1904.3,1878.42C1911.39,1875.04 1919.37,1873.18 1926.75,1873.18C1933.83,1873.18 1940.18,1874.84 1945.67,1878.09C1961.54,1887.52 1967.64,1908.52 1963.29,1938.82" style="fill:rgb(238,113,171);fill-rule:nonzero;"/>
                <path d="M1963.08,3011.34C1976.9,3002.14 1991.22,2993.28 2003.34,2981.82C2009.97,2975.56 2016.02,2968.64 2022,2961.66C2021.21,2961.57 2020.4,2961.2 2019.55,2961.46C1888.29,3001.74 1756.14,3039.09 1622.28,3069.55C1493.44,3098.86 1362.89,3118.48 1230.88,3124.29C1214.96,3124.89 1199.03,3125.21 1183.1,3125.48C1177.4,3125.56 1171.69,3125.59 1165.99,3125.59C1156.01,3125.59 1146.08,3125.47 1136.46,3125.26C1124.87,3124.99 1113.41,3124.53 1102.13,3123.87C1075.91,3122.99 1049.73,3119.36 1023.39,3116.89C1017.96,3117.74 1013.23,3119.4 1009.17,3122.09C974.866,3144.74 974.508,3211.08 981.946,3241.56C990.167,3275.27 1018.48,3295.4 1057.66,3295.4C1074.12,3295.4 1091.37,3291.63 1106.26,3284.81C1119.32,3278.82 1149.92,3264.79 1142,3226.18C1141.5,3223.78 1134.27,3203 1123.9,3184.78C1156.19,3187.95 1189.72,3189.56 1223.98,3189.56C1390.65,3189.56 1561.19,3151.84 1706.04,3114.94C1794.92,3092.3 1885.53,3062.91 1963.08,3011.34" style="fill:rgb(238,113,171);fill-rule:nonzero;"/>
            </g>
        </g>
    </g>
</svg>
