<?xml version="1.0" standalone="no"?>
<!DOCTYPE svg PUBLIC "-//W3C//DTD SVG 1.1//EN" "http://www.w3.org/Graphics/SVG/1.1/DTD/svg11.dtd">
<svg width="100%" height="100%" viewBox="0 0 10010 13706" version="1.1" xmlns="http://www.w3.org/2000/svg" xmlns:xlink="http://www.w3.org/1999/xlink" xml:space="preserve" style="fill-rule:evenodd;clip-rule:evenodd;stroke-linejoin:round;stroke-miterlimit:1.41421;">
    <g transform="matrix(1,0,0,1,-1785.31,-4058.57)">
        <g id="Layer 1" transform="matrix(4.16667,0,0,4.16667,0,0)">
            <path d="M2069.28,1658.48C1950.17,1615.88 1826.97,1583.75 1701.87,1570.31C1605.14,1559.92 1506.55,1561.16 1410.59,1578.02C1358.68,1587.12 1307.53,1601.98 1259.52,1624.02C1204.36,1649.33 1152.89,1684.64 1113.53,1731.56C1082.89,1768.08 1058.48,1811.43 1048.61,1858.58C1047.88,1862.04 1047.25,1865.53 1046.72,1869.04C1045.17,1879.29 1044.5,1889.78 1046.16,1900C1047.82,1910.24 1051.93,1920.25 1059,1927.77C1072.31,1941.93 1093.82,1945.03 1112.92,1942.01C1138.74,1937.93 1162.85,1923.97 1179.59,1903.69C1187.46,1894.16 1193.81,1883.14 1196.73,1871.08C1199.66,1859.02 1198.99,1845.87 1193.59,1834.72C1181.7,1847.41 1162.89,1870.42 1143.35,1860.81C1131.26,1854.87 1127.26,1838.92 1129.18,1826.48C1133.47,1798.65 1156.02,1775.1 1177.3,1758.68C1224.11,1722.55 1282.61,1701.28 1340.4,1692.13C1397.66,1683.07 1456.14,1685.5 1513.36,1693.54C1572.52,1701.85 1630.69,1716.11 1688.3,1731.79C1743.94,1746.95 1799.16,1763.73 1855.07,1777.88C1858.78,1778.81 1862.47,1779.73 1866.18,1780.64C1884.07,1785.03 1902.01,1789.15 1920.04,1792.87C1995.57,1808.4 2071.73,1822.41 2148.79,1826.94C2188.32,1829.27 2228.06,1829.09 2267.47,1824.96C2303.26,1821.21 2347.59,1816.76 2379.91,1800C2331.84,1766.55 2274.22,1741.96 2220.78,1718.71C2171.16,1697.13 2120.6,1676.83 2069.28,1658.48" style="fill:rgb(238,113,171);fill-rule:nonzero;"/>
            <path d="M833.003,2510.97C823.933,2510.97 815.108,2510.17 806.779,2508.61C774.998,2502.64 748.286,2484.61 735.333,2460.37C706.39,2406.17 735.785,2324.19 745.477,2300.35C770.975,2241.47 806.476,2200.02 853.958,2173.8C853.869,2176 853.395,2179.43 852.276,2183.74C851.12,2188.23 849.357,2192.88 847.66,2197.39C846.445,2200.6 845.192,2203.92 844.162,2207.16C840.116,2219.91 835.863,2234.8 836.612,2250.12C837.315,2264.7 844.703,2298.64 897.943,2298.64C899.566,2298.64 901.011,2298.61 902.219,2298.55C982.105,2294.97 1029.57,2226.22 1071.43,2165.56L1079.91,2153.31C1088.76,2140.62 1097.63,2127.07 1107.04,2111.88C1126.37,2080.66 1144.46,2047.97 1161.96,2016.36C1182.25,1979.71 1203.1,1942.03 1225.98,1906.37C1252.42,1865.16 1294.43,1809.52 1333.05,1776.93C1342.19,1769.23 1351.63,1762.37 1361.14,1756.55C1393.61,1736.68 1430.34,1726.18 1467.39,1726.18C1491.45,1726.18 1514.62,1730.59 1536.25,1739.29L1537.31,1739.71L1536.22,1740.03C1485.95,1754.7 1445.47,1777.74 1415.91,1808.52C1393.89,1831.44 1366,1867.28 1330.67,1918.1C1325.57,1925.44 1320.88,1933.03 1316.88,1939.57L1315.24,1942.23C1310.31,1950.14 1307.18,1955.8 1306.75,1959.51C1306.82,1958.95 1315.92,1957.95 1316.59,1957.85C1322.57,1956.98 1328.72,1956.09 1334.78,1956.05C1353.44,1955.93 1374.61,1964.55 1382.77,1982.58C1396.57,2012.98 1377.66,2046.6 1368.89,2059.63C1362.04,2069.82 1353.38,2079.73 1342.43,2089.91C1339.42,2092.7 1335.24,2095.59 1331.18,2098.38C1326.69,2101.47 1322.09,2104.64 1318.71,2107.9L1317.57,2107.09C1332.11,2084.83 1335.93,2067.22 1329.98,2050.26C1326.31,2039.79 1319.03,2031.38 1310.49,2027.77C1307.21,2026.38 1303.81,2025.68 1300.37,2025.68C1296.29,2025.68 1292.13,2026.67 1288.01,2028.61C1265.85,2039.09 1254.14,2063.05 1243.81,2084.2L1241.81,2088.28C1221.38,2129.84 1198.36,2170.5 1178.38,2205.34C1114.43,2316.91 1034.84,2455.75 895.453,2500.32C873.357,2507.39 852.35,2510.97 833.003,2510.97" style="fill:rgb(238,113,171);fill-rule:nonzero;"/>
            <path d="M846.751,978.558C773.06,992.429 723.962,1039.99 695.337,1103.47C678.376,1141.09 658.021,1172.38 624.091,1196.43C553.95,1246.17 547.332,1356.32 556.513,1434.7C560.404,1467.94 577.58,1502.98 608.96,1513.69C611.813,1514.66 614.814,1515.43 617.8,1515.08C643.476,1512.07 635.317,1450.6 638.644,1433.89C649.137,1381.2 680.755,1311 736.003,1293.58C791.636,1276.04 851.716,1271.63 909.683,1260.57C936.084,1255.55 950.06,1277.3 950.638,1301.99C952.49,1381.71 886.801,1471.82 835.481,1526.64C680.881,1691.8 452.775,1860.31 430.367,2103.67C423.098,2182.59 436.014,2263.79 482.437,2330.77C531.809,2402.02 597.742,2428.35 671.67,2453.93C666.506,2452.15 664.342,2421.66 664.068,2416.7C663.23,2401.56 665.327,2385.82 667.625,2370.88C673.367,2333.57 684.534,2297.09 701.547,2263.43C718.693,2229.5 741.664,2201.94 767.228,2174.45C772.089,2169.22 773.393,2158.2 766.25,2154.27C763.657,2152.84 760.633,2152.48 757.692,2152.27C743.983,2151.26 730.016,2154.17 716.448,2152.13C676.427,2146.1 659.081,2088.49 661.245,2055.38C678.561,1790.19 969.488,1689.54 1081.94,1477.36C1175.56,1300.69 1109.81,929.038 846.751,978.558" style="fill:rgb(238,113,171);fill-rule:nonzero;"/>
            <path d="M1608.82,2858.04C1560.04,2849.54 1511.89,2837.3 1464.97,2821.36C1410.28,2802.78 1357.21,2779.18 1306.91,2750.6C1290.58,2741.33 1285.52,2745.14 1286.9,2764.07C1288.12,2780.89 1289.41,2797.7 1290.78,2814.5C1293.49,2848.1 1296.47,2881.68 1299.73,2915.24C1334.49,3273.45 1401.35,3628.11 1504.57,3972.7C1521.73,4029.99 1539.85,4086.99 1558.93,4143.66C1495.12,4139.82 1430.29,4155.84 1375.43,4188.99C1359.1,4198.86 1341.64,4215.2 1346.3,4233.85C1350.71,4251.51 1371.86,4258.09 1389.75,4260.37C1458.61,4269.12 1529.74,4258.75 1593.35,4230.7C1601.01,4227.33 1608.85,4223.47 1613.96,4216.79C1623.19,4204.72 1622.03,4187.32 1617.82,4172.68C1413.55,3463.37 1400.43,3285.24 1376.66,3054.33C1373.92,3027.61 1371.34,3000.89 1368.86,2974.15C1367.9,2963.76 1368.14,2892.23 1361.28,2888.69C1534.19,2978.13 1739.53,3001.63 1927.84,2953.52C2015.91,2931.02 2108.31,2885.23 2141.06,2799.58C2138.93,2805.16 2108.36,2812.7 2102.35,2814.92C2088.8,2819.93 2075.13,2824.61 2061.35,2828.96C2033.82,2837.66 2005.88,2845.05 1977.66,2851.13C1921.21,2863.3 1863.66,2870.24 1805.97,2872.02C1740.02,2874.06 1673.85,2869.37 1608.82,2858.04" style="fill:rgb(238,113,171);fill-rule:nonzero;"/>
            <path d="M2830.7,2366.47C2775.26,2426.01 2704.11,2470.45 2626.63,2493.95C2675.5,2403.92 2724.37,2313.91 2773.22,2223.89C2755.95,2216.54 2736.23,2225.42 2720.73,2236.09C2643.38,2289.39 2606.17,2386.21 2534.25,2446.8C2522.28,2456.88 2507.89,2466.32 2492.39,2464.75C2464.35,2461.91 2452.3,2426.78 2452.92,2398.3C2453.96,2349.77 2473.43,2301.88 2506.45,2266.62C2474.9,2267.02 2446.46,2287.93 2428.27,2313.97C2410.07,2340.01 2400.25,2370.92 2390.01,2401.07C2357.28,2497.44 2312.6,2597.58 2226.62,2650.77C2219.57,2655.13 2211.01,2659.23 2203.37,2656.06C2193.22,2651.84 2191.65,2638.2 2191.79,2627.1C2192.26,2590.87 2194.31,2554.04 2206.38,2519.92C2218.45,2485.8 2241.87,2454.29 2274.89,2440.17C2290.41,2433.53 2307.52,2430.9 2322.42,2422.95C2337.32,2414.99 2350.24,2399.07 2347.16,2382.32C2326,2393.89 2301.93,2399.96 2277.88,2399.79C2273.18,2399.75 2268.2,2399.4 2264.34,2396.67C2255.03,2390.09 2258.22,2375.86 2259.05,2364.41C2260.88,2339.36 2244.09,2314.14 2220.43,2306.41C2226.77,2336.62 2215.28,2369.95 2191.73,2389.63C2172.31,2405.85 2146.96,2412.4 2124.42,2423.78C2101.88,2435.14 2080.05,2455.26 2080.16,2480.72C2111.98,2466.09 2146.45,2457.35 2181.34,2455.08C2152.28,2540.61 2107.37,2620.59 2049.63,2689.66C2039.2,2702.14 2025.21,2715.43 2009.35,2712.35C1990.83,2708.76 1983.7,2685.86 1982.67,2666.84C1975.95,2543.44 2070,2436.97 2088.16,2314.75C2060.47,2342.9 2015.37,2351.8 1979.23,2336.24C1964.42,2329.87 1951.23,2319.89 1936.01,2314.64C1920.79,2309.37 1901.7,2310.13 1891.27,2322.52C1871.52,2346.01 1898.99,2379.35 1903.64,2409.81C1906.62,2429.41 1899.45,2448.98 1892.42,2467.49C1860.7,2550.88 1828.98,2634.28 1797.27,2717.66C1791.39,2733.13 1780.12,2751.78 1764.1,2748.31C1747.41,2744.7 1745.44,2721.61 1747.85,2704.54C1763.6,2592.51 1800.3,2483.54 1855.44,2385.07C1829.24,2390.45 1805.64,2407.63 1792.29,2431.04C1780.98,2392.83 1746.99,2363.27 1708.49,2354.54C1631.46,2337.06 1567.5,2397.25 1530.93,2458.65C1507.13,2498.59 1490.32,2541.23 1474.02,2584.64C1453.19,2640.11 1440.28,2707.94 1476.6,2754.55C1507.74,2794.51 1567.56,2803.35 1614.22,2784.27C1660.87,2765.2 1695.35,2723.51 1718.19,2678.19C1714.54,2685.43 1715.67,2693.36 1714.81,2701.08C1713.71,2710.74 1712.43,2720.32 1711.8,2730.02C1709.66,2762.8 1705.51,2807.5 1739.38,2825.58C1764.87,2838.99 1797.66,2826.49 1816.57,2804.62C1835.48,2782.76 1843.79,2753.8 1851.57,2725.84C1874.64,2642.95 1897.7,2560.07 1920.76,2477.18C1926.7,2455.86 1933.06,2433.74 1947.62,2417.2C1962.19,2400.66 1987.56,2391.59 2006.61,2402.52C1951.39,2499.16 1916.67,2607.71 1905.48,2718.74C1903.77,2735.8 1902.65,2753.43 1907.89,2769.74C1913.13,2786.05 1926.15,2800.9 1942.95,2803.29C1955.43,2805.07 1967.8,2799.92 1979.07,2794.22C2042.26,2762.3 2094.56,2708.87 2125.47,2644.68C2132.68,2676.55 2144.39,2713.61 2175.25,2723.4C2203.4,2732.34 2232.28,2713.26 2254.42,2693.56C2309.6,2644.51 2355.49,2584.84 2388.93,2518.7C2431.67,2536.03 2481.44,2534.8 2523.28,2515.37C2500.9,2557.03 2458.41,2582.89 2417.77,2606.55C2377.13,2630.22 2334.47,2655.57 2311.29,2696.78C2288.09,2737.98 2293.93,2799.86 2335.62,2821.59C2373.01,2841.07 2418.71,2820.43 2451.65,2793.99C2490.12,2763.11 2521.99,2723.87 2544.45,2679.7C2565.37,2638.57 2579.56,2591.43 2614.8,2561.89C2643.42,2537.89 2681.46,2529.51 2714.81,2512.86C2772.07,2484.29 2815.68,2429.19 2830.7,2366.47M1740.27,2471.66C1731.94,2521.91 1717.69,2565.96 1692.64,2618.95C1652.25,2704.39 1614.95,2747.72 1581.78,2747.72C1577.93,2747.72 1574.14,2747.12 1570.5,2745.93C1545.26,2737.72 1545.56,2703.85 1546.85,2689.68C1552.1,2632.56 1568.25,2576.02 1594.83,2521.65L1598.61,2513.87C1617.35,2475.09 1652.24,2402.91 1694.83,2394.28C1698.33,2393.57 1701.7,2393.21 1704.82,2393.21C1713.66,2393.21 1721.12,2396.11 1726.98,2401.85C1741.77,2416.33 1744.31,2447.35 1740.27,2471.66M2485.41,2623.96C2459,2680.76 2409.08,2776.06 2371.46,2776.06L2370.99,2776.06C2364.46,2775.91 2359.64,2772.24 2356.74,2769.18C2351.96,2764.13 2348.97,2757.05 2349.11,2751.13C2350.22,2702.53 2431.09,2644.34 2478.7,2617.61L2491.78,2610.27L2485.41,2623.96Z" style="fill:rgb(238,113,171);fill-rule:nonzero;"/>
            <path d="M1148.44,2687.03C1186.07,2696.12 1252.91,2699.41 1289.8,2689.85C1364.58,2670.46 1423.24,2627.5 1452.23,2547.99C1456.02,2537.59 1458.65,2526.71 1459.64,2515.65C1462.25,2486.55 1453.18,2460.3 1433.41,2439.73C1414.27,2419.8 1387.47,2410.5 1366.26,2404.62C1331.28,2394.93 1294.18,2390.01 1255.96,2390.01C1222.8,2390.01 1189.07,2393.73 1155.71,2401.08C1128.98,2406.96 1090.23,2417.82 1062.48,2444.03C1047.06,2458.59 1036.88,2476.49 1033.79,2494.43C1030.26,2514.98 1036.29,2535.97 1049.53,2549.22C1055.8,2555.49 1065.2,2559.53 1073.5,2559.53C1073.98,2559.53 1074.46,2559.52 1074.93,2559.49C1080.75,2559.14 1085.56,2556.74 1088.83,2552.57C1093.17,2547.05 1093.86,2539.76 1094.52,2532.7L1094.81,2529.68C1097.91,2500.4 1113.74,2472.45 1137.14,2454.92C1155.22,2441.39 1177.83,2433.94 1200.83,2433.94C1205.19,2433.94 1209.58,2434.22 1213.85,2434.76L1219.92,2435.53L1217.91,2441.37C1195.45,2506.66 1151.39,2567.73 1093.86,2613.32C1069.6,2632.54 1048.48,2644.56 1027.36,2651.14C1015.39,2654.87 1003.4,2656.76 991.726,2656.77C977.507,2656.77 964.317,2653.99 952.506,2648.52C928.209,2637.25 911.099,2613.32 909.936,2588.96L909.869,2587.49L909.188,2588.79C884.209,2636.22 881.534,2683.57 902.045,2715.41C917.939,2740.11 947.934,2755.45 980.315,2755.45C982.864,2755.45 985.435,2755.35 987.977,2755.16C1018.48,2752.84 1049.35,2737.42 1074.89,2711.72C1076.54,2710.06 1078.18,2708.36 1079.85,2706.6C1089.65,2696.43 1098.9,2686.81 1111.72,2683.54C1114.83,2682.75 1118.09,2682.36 1121.67,2682.36C1130.07,2682.36 1138.55,2684.52 1146.85,2686.63C1147.38,2686.77 1147.9,2686.9 1148.44,2687.03M1187.24,2587.29C1204.31,2560.63 1232.88,2516 1256.49,2447.18L1257.31,2444.78L1259.72,2444.03C1262.8,2443.08 1265.91,2442.6 1268.99,2442.6C1269.78,2442.6 1270.57,2442.63 1271.35,2442.7C1302.78,2445.3 1326.97,2452.57 1345.3,2464.92C1360.23,2474.97 1368.34,2488.1 1369.4,2503.94C1371.53,2535.64 1345.1,2571.13 1321.83,2591.88C1317.59,2595.67 1313.32,2599.09 1309.14,2602.06C1282.35,2621.09 1249.09,2631.57 1215.46,2631.57C1214.41,2631.57 1209.82,2631.49 1209.82,2631.49C1198.38,2631.32 1184.14,2631.1 1174.14,2625.9C1173.44,2625.53 1171.28,2624.4 1170.57,2621.83C1169.12,2616.3 1173.99,2607.97 1187.24,2587.29" style="fill:rgb(238,113,171);fill-rule:nonzero;"/>
            <path d="M1376.8,1451.82L1377.16,1452.38L1377.04,1453.13L1376.56,1454.03L1374.31,1458.58L1371.54,1462.5L1369.97,1464.53L1368.52,1466.52L1364.9,1470.07L1361.04,1473.02L1356.62,1475.62L1352.37,1478.29L1350.22,1479.57L1347.97,1480.61L1342.97,1482.45L1338.19,1483.79L1333.22,1484.64L1325.58,1485.14L1320.61,1485.29L1315.46,1484.66L1310.75,1483.01L1306.07,1481.07L1301.4,1478.84L1297.37,1476.08L1293.5,1472.69L1290.07,1468.99L1287.07,1464.97L1285.58,1462.61L1284.46,1460.51L1282.14,1456.08L1280.09,1451.27L1278.56,1446.38L1277.74,1441.5L1277.4,1436.42L1277.63,1426.47L1278.07,1424.04L1278.74,1421.52L1279.93,1419.22L1282.39,1414.86L1284.51,1410.35L1287.26,1406.02L1290.55,1402.32L1294.38,1398.96L1298.37,1395.97L1302.57,1393.17L1306.96,1390.86L1311.75,1388.82L1315.95,1387.42L1320.17,1386.45L1324.62,1385.67L1329.04,1385.18L1333.41,1385.27L1337.98,1385.85L1342.2,1386.99L1346.29,1388.46L1347.47,1388.97L1347.74,1389.29L1349.21,1392.65L1350.01,1395.01L1350.69,1397.41L1351.99,1400.7L1353.47,1404.05L1354.75,1406.22L1355.96,1408.56L1357.02,1411.94L1357.12,1412.88L1356.88,1413.68L1356.3,1414.34L1355.55,1414.92L1353.11,1416.17L1346.74,1418.42L1344.25,1419.55L1340.7,1420.82L1338.02,1421.46L1337.07,1421.56L1336.38,1421.56L1335.75,1421.38L1335.05,1420.68L1333.55,1417.61L1332.87,1415.2L1332.48,1412.82L1331.1,1409.71L1330.45,1409.12L1329.89,1408.78L1329.27,1408.61L1328.52,1408.48L1325.81,1408.71L1323.78,1409.24L1322.09,1409.91L1320.45,1410.71L1317.92,1411.71L1315.43,1412.84L1313.28,1414.12L1311.35,1415.59L1309.56,1417.43L1307.99,1419.46L1306.69,1421.81L1305.63,1424.07L1304.69,1426.27L1304.13,1428.75L1303.75,1431.29L1303.65,1433.87L1303.75,1436.22L1304.07,1438.77L1304.55,1441.4L1305.32,1444.05L1306.41,1446.43L1307.86,1448.67L1309.38,1450.74L1310.86,1452.69L1312.79,1454.74L1314.63,1456.54L1316.66,1458.13L1318.95,1459.33L1321.23,1460.12L1323.83,1460.35L1331.59,1460.5L1336.66,1459.89L1339.36,1458.96L1341.85,1457.83L1344.36,1456.41L1346.78,1454.74L1349.09,1452.84L1351.07,1450.78L1352.88,1448.65L1354.6,1446.28L1355.97,1443.76L1356.6,1443.23L1357.04,1442.92L1357.57,1442.85L1358.49,1443.05L1361.21,1443.93L1364.77,1445.48L1367.45,1446.94L1370.03,1448.17L1373.7,1449.67L1376.15,1451.23L1376.8,1451.82Z" style="fill:rgb(247,172,29);fill-rule:nonzero;"/>
            <path d="M1459.68,1390.76L1460.12,1388.82L1460.26,1386.67L1460,1384.46L1459.48,1382.29L1458.62,1380.45L1457.38,1378.68L1455.96,1377.34L1454.43,1376.15L1452.56,1375.29L1450.49,1374.73L1448.15,1374.88L1445.62,1375.47L1443.86,1375.92L1442.25,1376.47L1439.72,1377.06L1437.28,1377.37L1435.45,1377.43L1433.74,1377.47L1431.17,1377.8L1430.45,1378.19L1430.04,1378.8L1429.92,1379.62L1429.93,1380.41L1430.41,1383.12L1430.63,1385.07L1430.96,1386.87L1431.32,1389.6L1432.15,1394.24L1432.6,1396.02L1433.21,1398.7L1433.37,1399.6L1433.87,1400.18L1434.45,1400.47L1435.26,1400.59L1437.81,1400.13L1439.62,1399.94L1441.28,1399.64L1443.85,1399.32L1446.38,1398.73L1448.09,1398.02L1449.83,1397.44L1454.5,1396.34L1456.3,1395.35L1457.79,1394.16L1458.96,1392.62L1459.68,1390.76ZM1500.13,1438L1500.64,1439.37L1500.16,1440.39L1495.75,1441.44L1491.22,1441.86L1486.73,1442.53L1482.23,1443.07L1477.81,1444.13L1473.42,1445.32L1468.98,1446.25L1464.4,1446.4L1463.39,1445.92L1462.91,1444.68L1462.06,1439.25L1461.48,1433.77L1461.36,1433.12L1461.12,1432.5L1458.03,1429.2L1454.83,1426.06L1447.97,1420.11L1446.64,1419.28L1445.17,1419.15L1442.98,1419.41L1440.81,1419.8L1439.62,1419.75L1438.45,1419.82L1437.86,1420.19L1437.54,1420.65L1437.54,1422.11L1438.84,1429.32L1439.3,1430.44L1439.88,1430.73L1440.41,1430.77L1443.83,1430.02L1447.21,1429.82L1448.15,1429.91L1448.76,1430.34L1449.4,1431.02L1450.2,1433.27L1450.57,1435.33L1450.86,1439.13L1451.53,1442.86L1452.07,1446.62L1452.06,1447.29L1451.64,1447.89L1450.33,1448.66L1445.94,1449.85L1441.4,1450.93L1436.89,1451.47L1432.36,1451.89L1423.4,1454.03L1414.35,1455.65L1409.8,1456.73L1405.27,1457.14L1404.62,1456.46L1404.65,1455.13L1403.92,1450.34L1403.34,1445.66L1402.26,1441.07L1401.94,1436.34L1402.33,1435.61L1403.37,1435.55L1407.01,1435.3L1410.56,1434.53L1411.74,1433.79L1411.9,1433.23L1411.89,1432.43L1411.29,1427.62L1410.06,1422.92L1409.58,1418.09L1408.98,1413.28L1406.76,1403.84L1406.29,1399.01L1405.69,1394.2L1404.58,1389.48L1403.35,1384.78L1403.22,1383.34L1402.95,1382.59L1402.55,1382.53L1395.55,1384.59L1392.95,1384.79L1392.05,1384.15L1391.79,1382.74L1390.93,1378.64L1389.45,1370.4L1388.96,1366.23L1389.06,1365.28L1389.58,1364.52L1390.48,1363.7L1391.58,1363.23L1400.47,1362.17L1409.4,1360.57L1413.75,1359.92L1418.22,1359.12L1422.57,1358.47L1427.04,1357.67L1435.74,1355.58L1449.19,1353.56L1453.52,1353.45L1458.27,1353.53L1462.6,1354.22L1467.07,1355.67L1471.08,1357.48L1474.87,1360.26L1477.96,1363.56L1481.08,1366.98L1483.6,1370.78L1485.17,1375.15L1486.11,1379.64L1486.72,1385.25L1486.24,1390.65L1485.08,1395.91L1482.7,1400.99L1479.15,1404.68L1474.69,1408.4L1474.17,1409.16L1473.95,1410.13L1474.13,1411.16L1474.65,1411.87L1479.3,1416.48L1484.15,1420.8L1485.03,1421.3L1486.07,1421.25L1490.49,1420.19L1494.97,1419.52L1496.49,1419.91L1496.97,1420.36L1497.26,1421.24L1498.08,1423.61L1498.38,1425.29L1499.62,1433.7L1500.13,1438Z" style="fill:rgb(247,172,29);fill-rule:nonzero;"/>
            <path d="M1594.94,1401.8L1597.08,1396.75L1598.06,1391.88L1598.12,1386.64L1597.82,1382.21L1596.57,1376.37L1594.19,1371.75L1590.95,1367.95L1587.59,1364.68L1582.57,1361.86L1578.39,1360.84L1572.17,1360.68L1567.54,1361.25L1562.16,1362.89L1557.22,1365.69L1553.72,1368.96L1551.15,1372.85L1550.08,1375.25L1549.03,1378.29L1548.23,1381.07L1547.85,1384.74L1547.73,1388.54L1548.28,1392.7L1549.05,1395.94L1549.92,1398.66L1551.32,1401.48L1553.37,1404.28L1555.8,1406.94L1560.07,1410.31L1564.28,1412.24L1568.85,1413.51L1574.18,1413.96L1579.72,1413.49L1584.33,1412.14L1588.87,1409.09L1592.1,1405.57L1594.94,1401.8ZM1625.25,1385.62L1624.91,1390.48L1624.29,1394.55L1623.96,1399.4L1623.47,1403.61L1621.57,1408.26L1617.34,1416.13L1614.88,1419.49L1611.65,1423.14L1608.52,1425.88L1604.74,1428.63L1601.08,1430.87L1596.74,1432.6L1592.65,1433.93L1588.44,1435.39L1584.08,1436.6L1579.7,1437.03L1575.05,1437.2L1570.52,1437.24L1566.11,1436.89L1562.46,1436.24L1553.31,1433.71L1548.99,1432.17L1544.78,1430.37L1540.95,1428.29L1537.6,1425.41L1534.51,1422.12L1531.02,1418.85L1528.31,1415.56L1526.33,1411.18L1524.89,1407.18L1523.42,1402.66L1522.49,1398.51L1521.67,1393.84L1521.38,1389.53L1521.33,1384.96L1521.68,1380.5L1522.54,1375.89L1523.81,1371.79L1525.3,1366.63L1526.73,1363.31L1529.39,1358.5L1531.48,1355.55L1535.11,1352.27L1538.38,1349.79L1542.16,1347.04L1545.7,1344.81L1550.15,1342.68L1553.85,1341.37L1558.72,1340.14L1562.57,1339.34L1567.07,1338.64L1571.32,1338.09L1575.07,1338.08L1580.26,1338.28L1584.81,1338.89L1589.11,1339.65L1593.15,1340.54L1597.74,1342.2L1602.09,1344.26L1605.67,1346.61L1609.54,1349.86L1612.37,1352.63L1615.36,1356.57L1617.43,1360.03L1620.04,1364.11L1621.99,1367.83L1623.34,1372.62L1624.14,1376.64L1624.95,1381.19L1625.25,1385.62Z" style="fill:rgb(247,172,29);fill-rule:nonzero;"/>
            <path d="M1736.56,1358.28L1736.51,1362.48L1736.4,1365.74L1736.18,1368.74L1735.49,1372.88L1734.75,1375.85L1734.57,1376.62L1734.43,1376.74L1734.03,1376.84L1733.38,1376.79L1730.54,1376.72L1723.7,1376.22L1720.85,1376.14L1716.96,1376.12L1714.15,1375.52L1713.27,1375.19L1712.9,1374.9L1712.69,1374.23L1712.5,1373.3L1712.24,1371.45L1712.58,1366.88L1712.5,1366.22L1712.14,1365.8L1711.52,1365.37L1711.03,1365.07L1708.6,1364.5L1703.48,1363.6L1700.64,1363.39L1696.63,1363.23L1694.41,1363.46L1692.42,1364.1L1690.41,1365L1688.63,1366.18L1687.35,1367.79L1686.8,1369.98L1687.01,1372.49L1688.26,1374.81L1690.09,1376.38L1692.6,1377.61L1694.63,1378.15L1699.52,1378.77L1706.82,1379.96L1713.32,1381.62L1717.76,1382.99L1721.91,1384.74L1725.78,1386.85L1727.75,1388.18L1729.59,1389.62L1732.6,1392.86L1733.89,1394.65L1736.09,1398.35L1737.59,1402.66L1738.21,1404.8L1738.66,1409.29L1738.62,1411.64L1738.3,1414.24L1737.05,1418.87L1735.99,1421.02L1733.85,1425.45L1732.66,1427.46L1731.1,1429.31L1727.38,1432.32L1723.06,1434.62L1718.64,1436.53L1713.99,1438.02L1709.38,1438.99L1704.41,1439.55L1702.07,1439.64L1697.31,1439.16L1694.86,1438.85L1692.14,1438.78L1686.97,1438.54L1684.53,1438.23L1681.85,1437.64L1677.05,1435.84L1674.79,1434.89L1672.38,1434.06L1667.48,1432L1665.23,1430.79L1659.36,1425.9L1657.29,1424.05L1657.08,1423.37L1657.02,1422.45L1657.1,1419.58L1657.38,1413.96L1657.59,1407.55L1657.75,1403.63L1658.2,1402.75L1659.33,1401.52L1660.57,1400.56L1661.5,1400.24L1664.21,1400.44L1666,1400.7L1667.92,1401.1L1670.63,1401.3L1673.22,1401.36L1675.04,1401.23L1676.74,1401.09L1679.3,1401.54L1680.06,1401.86L1680.41,1402.41L1680.62,1403.08L1680.82,1403.88L1681.04,1406.12L1680.94,1407.56L1680.41,1411.19L1680.51,1411.72L1680.84,1412.4L1681.46,1412.84L1681.96,1413.14L1683.48,1413.64L1687.03,1414.69L1688.95,1415.09L1692.54,1415.61L1698.74,1416.07L1701.31,1416.39L1703.65,1416.3L1705.87,1416.06L1708.15,1415.05L1709.95,1413.48L1711.13,1411.47L1711.82,1409.16L1711.45,1407.17L1710.53,1405.53L1708.68,1404.21L1706.05,1402.97L1704.16,1402.18L1699.73,1400.67L1696.94,1399.82L1690.1,1399.32L1687.93,1398.89L1685.51,1398.33L1681.18,1397.09L1677.02,1395.48L1672.77,1393.33L1669.07,1390.7L1667.49,1389.28L1665.92,1387.59L1664.5,1385.78L1663.48,1383.74L1661.84,1379.56L1660.74,1375.15L1660.17,1370.52L1660.22,1368.04L1660.65,1365.71L1661.21,1363.39L1662.13,1361.36L1664.13,1357.18L1666.37,1353.15L1667.79,1351.42L1669.58,1349.98L1673.4,1347.51L1677.58,1345.32L1681.84,1343.8L1684.08,1343.31L1686.33,1342.69L1688.45,1342.06L1693.05,1341.21L1697.74,1341.03L1699.94,1341.06L1704.7,1341.54L1707.01,1341.97L1709.17,1342.52L1713.65,1343.37L1715.81,1343.92L1720.25,1345.3L1726.56,1347.73L1728.55,1348.92L1730.53,1350.24L1734.08,1353.12L1735.78,1354.69L1736.39,1355.26L1736.59,1356.06L1736.56,1358.28Z" style="fill:rgb(247,172,29);fill-rule:nonzero;"/>
            <path d="M1850.47,1374.76L1850.05,1378.94L1849.66,1382.18L1849.17,1385.15L1848.12,1389.22L1847.12,1392.11L1846.87,1392.86L1846.72,1392.97L1846.32,1393.03L1845.68,1392.93L1842.84,1392.6L1836.07,1391.5L1833.23,1391.17L1829.36,1390.81L1826.61,1389.96L1825.75,1389.56L1825.41,1389.24L1825.26,1388.55L1825.15,1387.6L1825.06,1385.73L1825.8,1381.22L1825.78,1380.55L1825.45,1380.1L1824.88,1379.61L1824.41,1379.27L1822.04,1378.49L1817.01,1377.14L1814.2,1376.68L1810.21,1376.16L1807.98,1376.2L1805.93,1376.66L1803.85,1377.38L1801.98,1378.4L1800.55,1379.89L1799.81,1382.02L1799.8,1384.54L1800.85,1386.96L1802.53,1388.69L1804.92,1390.14L1806.9,1390.86L1811.72,1391.91L1818.9,1393.74L1825.24,1395.96L1829.54,1397.72L1833.53,1399.83L1837.2,1402.28L1839.06,1403.78L1840.76,1405.38L1843.48,1408.87L1844.61,1410.78L1846.47,1414.65L1847.59,1419.08L1848.02,1421.27L1848.08,1425.78L1847.82,1428.12L1847.28,1430.68L1845.62,1435.18L1844.37,1437.23L1841.85,1441.46L1840.49,1443.36L1838.77,1445.07L1834.79,1447.73L1830.28,1449.65L1825.7,1451.15L1820.94,1452.23L1816.25,1452.8L1811.25,1452.91L1808.9,1452.79L1804.19,1451.89L1801.78,1451.37L1799.08,1451.06L1793.94,1450.36L1791.54,1449.84L1788.91,1449.01L1784.29,1446.8L1782.11,1445.65L1779.79,1444.61L1775.07,1442.12L1772.94,1440.72L1767.52,1435.33L1765.62,1433.3L1765.47,1432.61L1765.49,1431.69L1765.82,1428.83L1766.6,1423.26L1767.37,1416.89L1767.87,1413L1768.4,1412.15L1769.63,1411.03L1770.95,1410.18L1771.91,1409.94L1774.6,1410.38L1776.36,1410.8L1778.24,1411.37L1780.92,1411.81L1783.5,1412.1L1785.34,1412.13L1787.04,1412.14L1789.55,1412.81L1790.28,1413.2L1790.58,1413.78L1790.73,1414.46L1790.86,1415.28L1790.88,1417.54L1790.65,1418.95L1789.81,1422.53L1789.85,1423.06L1790.13,1423.77L1790.71,1424.26L1791.18,1424.61L1792.65,1425.24L1796.11,1426.6L1797.98,1427.17L1801.52,1428.01L1807.65,1429.01L1810.19,1429.55L1812.53,1429.67L1814.77,1429.63L1817.13,1428.83L1819.07,1427.42L1820.43,1425.52L1821.32,1423.28L1821.12,1421.26L1820.35,1419.55L1818.62,1418.07L1816.1,1416.6L1814.29,1415.65L1810,1413.76L1807.3,1412.65L1800.52,1411.55L1798.39,1410.94L1796.02,1410.16L1791.82,1408.55L1787.81,1406.57L1783.76,1404.06L1780.3,1401.11L1778.85,1399.55L1777.44,1397.73L1776.18,1395.8L1775.34,1393.68L1774.08,1389.36L1773.37,1384.88L1773.2,1380.21L1773.48,1377.74L1774.11,1375.46L1774.87,1373.2L1775.97,1371.26L1778.33,1367.27L1780.92,1363.45L1782.49,1361.85L1784.4,1360.57L1788.42,1358.44L1792.79,1356.64L1797.17,1355.49L1799.45,1355.2L1801.75,1354.78L1803.92,1354.34L1808.59,1353.91L1813.27,1354.14L1815.47,1354.36L1820.18,1355.26L1822.44,1355.89L1824.55,1356.64L1828.94,1357.88L1831.05,1358.62L1835.36,1360.38L1841.43,1363.36L1843.31,1364.72L1845.17,1366.22L1848.45,1369.4L1850.01,1371.11L1850.57,1371.73L1850.7,1372.55L1850.47,1374.76Z" style="fill:rgb(247,172,29);fill-rule:nonzero;"/>
            <path d="M1947.26,1423.41L1948.45,1421.81L1949.46,1419.91L1950.12,1417.78L1950.53,1415.59L1950.5,1413.56L1950.09,1411.43L1949.33,1409.63L1948.42,1407.92L1947.07,1406.37L1945.4,1405.01L1943.19,1404.2L1940.65,1403.7L1938.85,1403.4L1937.15,1403.25L1934.61,1402.75L1932.25,1402.03L1930.55,1401.34L1928.97,1400.68L1926.49,1399.93L1925.67,1400L1925.04,1400.38L1924.6,1401.09L1924.29,1401.82L1923.63,1404.49L1923.03,1406.36L1922.59,1408.14L1921.81,1410.78L1920.67,1415.35L1920.36,1417.16L1919.82,1419.86L1919.61,1420.75L1919.83,1421.48L1920.24,1421.98L1920.93,1422.42L1923.44,1423.05L1925.17,1423.61L1926.81,1424.01L1929.3,1424.76L1931.84,1425.26L1933.7,1425.31L1935.53,1425.49L1940.24,1426.39L1942.29,1426.22L1944.14,1425.74L1945.84,1424.81L1947.26,1423.41ZM1964.96,1483.06L1964.86,1484.52L1964.01,1485.25L1959.55,1484.42L1955.24,1482.95L1950.86,1481.73L1946.52,1480.39L1942.06,1479.55L1937.56,1478.84L1933.12,1477.88L1928.87,1476.16L1928.15,1475.3L1928.21,1473.97L1929.65,1468.67L1931.35,1463.42L1931.51,1462.79L1931.54,1462.12L1930.06,1457.85L1928.42,1453.67L1924.58,1445.44L1923.7,1444.14L1922.41,1443.42L1920.3,1442.76L1918.16,1442.23L1917.09,1441.7L1915.99,1441.29L1915.3,1441.39L1914.83,1441.68L1914.23,1443.01L1912.47,1450.13L1912.44,1451.33L1912.85,1451.84L1913.32,1452.09L1916.75,1452.8L1919.93,1453.99L1920.75,1454.46L1921.13,1455.1L1921.44,1455.98L1921.25,1458.36L1920.75,1460.4L1919.46,1463.99L1918.55,1467.67L1917.51,1471.33L1917.23,1471.93L1916.6,1472.31L1915.09,1472.48L1910.59,1471.77L1906,1470.9L1901.66,1469.56L1897.35,1468.09L1888.29,1466.39L1879.35,1464.18L1874.76,1463.31L1870.45,1461.84L1870.13,1460.96L1870.7,1459.75L1871.99,1455.08L1873.37,1450.57L1874.25,1445.93L1875.88,1441.48L1876.54,1440.97L1877.52,1441.35L1880.95,1442.6L1884.5,1443.34L1885.89,1443.15L1886.26,1442.7L1886.58,1441.97L1887.99,1437.33L1888.78,1432.54L1890.32,1427.93L1891.73,1423.29L1893.55,1413.77L1895.1,1409.16L1896.51,1404.52L1897.42,1399.76L1898.2,1394.96L1898.67,1393.6L1898.74,1392.8L1898.39,1392.58L1891.16,1391.6L1888.7,1390.72L1888.14,1389.78L1888.48,1388.38L1889.36,1384.28L1891.37,1376.15L1892.63,1372.15L1893.1,1371.32L1893.89,1370.84L1895.05,1370.45L1896.25,1370.48L1904.8,1373.13L1913.61,1375.31L1917.86,1376.5L1922.27,1377.59L1926.51,1378.77L1930.92,1379.86L1939.73,1381.5L1952.85,1385.15L1956.84,1386.81L1961.15,1388.82L1964.83,1391.22L1968.33,1394.37L1971.25,1397.66L1973.58,1401.74L1975.06,1406.02L1976.51,1410.42L1977.27,1414.92L1976.92,1419.55L1975.95,1424.03L1974.22,1429.4L1971.58,1434.14L1968.37,1438.47L1964.13,1442.14L1959.38,1444.06L1953.78,1445.64L1952.99,1446.13L1952.39,1446.92L1952.14,1447.94L1952.33,1448.79L1954.69,1454.9L1957.37,1460.82L1957.97,1461.65L1958.94,1462.02L1963.41,1462.86L1967.78,1464.07L1969.01,1465.05L1969.26,1465.65L1969.17,1466.57L1968.95,1469.08L1968.54,1470.73L1966.25,1478.93L1964.96,1483.06Z" style="fill:rgb(247,172,29);fill-rule:nonzero;"/>
            <path d="M2067.86,1484.36L2071.63,1480.36L2074.25,1476.12L2076.13,1471.23L2077.39,1466.96L2078.24,1461.04L2077.61,1455.87L2075.88,1451.17L2073.86,1446.92L2070.11,1442.53L2066.53,1440.11L2060.73,1437.8L2056.17,1436.72L2050.55,1436.39L2044.92,1437.3L2040.49,1439.15L2036.72,1441.91L2034.87,1443.79L2032.83,1446.28L2031.11,1448.61L2029.47,1451.93L2028.04,1455.46L2027.11,1459.56L2026.7,1462.88L2026.59,1465.73L2026.92,1468.87L2027.87,1472.22L2029.24,1475.56L2032.08,1480.21L2035.38,1483.49L2039.24,1486.28L2044.09,1488.56L2049.48,1490.05L2054.28,1490.38L2059.62,1489.1L2063.88,1486.92L2067.86,1484.36ZM2102.02,1479.72L2100.02,1484.16L2098.01,1487.77L2096.01,1492.21L2094.09,1495.99L2090.69,1499.7L2083.97,1505.62L2080.48,1507.93L2076.18,1510.23L2072.28,1511.71L2067.76,1512.99L2063.53,1513.81L2058.85,1513.92L2054.54,1513.75L2050.06,1513.66L2045.55,1513.28L2041.27,1512.15L2036.83,1510.7L2032.56,1509.16L2028.53,1507.29L2025.32,1505.41L2017.59,1499.84L2014.05,1496.89L2010.72,1493.73L2007.83,1490.44L2005.69,1486.57L2003.91,1482.41L2001.77,1478.12L2000.36,1474.08L2000.02,1469.28L2000.05,1465.02L2000.25,1460.26L2000.81,1456.04L2001.66,1451.36L2002.89,1447.21L2004.44,1442.9L2006.32,1438.83L2008.73,1434.8L2011.35,1431.39L2014.55,1427.06L2017.05,1424.44L2021.23,1420.85L2024.22,1418.8L2028.77,1416.99L2032.72,1415.8L2037.23,1414.52L2041.33,1413.66L2046.26,1413.21L2050.2,1413.27L2055.22,1413.81L2059.12,1414.4L2063.6,1415.32L2067.79,1416.28L2071.32,1417.57L2076.13,1419.56L2080.2,1421.72L2083.99,1423.93L2087.48,1426.18L2091.23,1429.33L2094.61,1432.78L2097.16,1436.24L2099.68,1440.64L2101.37,1444.23L2102.81,1448.98L2103.56,1452.94L2104.6,1457.69L2105.14,1461.87L2104.74,1466.83L2104.1,1470.89L2103.29,1475.45L2102.02,1479.72Z" style="fill:rgb(247,172,29);fill-rule:nonzero;"/>
            <path d="M2187.55,1511.96L2188.85,1511.49L2189.77,1510.59L2190.23,1509.79L2190.41,1509.01L2190.42,1505.49L2190.36,1501.8L2190.45,1498.44L2190.7,1495.02L2190.44,1493.92L2189.46,1493.25L2188.37,1492.81L2187.31,1492.67L2186.37,1493.28L2184.23,1495.81L2181.93,1498.41L2179.39,1500.92L2176.94,1503.19L2176.31,1504.06L2176.11,1505.25L2176.44,1506.52L2177.04,1507.46L2177.84,1507.92L2182.24,1509.83L2186.48,1511.82L2187.55,1511.96ZM2176.71,1559.56L2176.2,1559.07L2175.84,1558.22L2175.72,1557.47L2175.82,1556.52L2178.5,1550.54L2179.77,1547.38L2181.16,1544.26L2181.96,1543.31L2182.86,1542.83L2183.73,1542.75L2185.15,1543.04L2186.11,1543.43L2187.22,1543.45L2188.12,1542.96L2188.6,1542.45L2189.14,1541.82L2189.5,1541.26L2189.74,1540.65L2189.78,1538.83L2189.88,1537.17L2189.81,1536.3L2189.57,1535.5L2189.17,1534.77L2188.18,1534.09L2183.5,1532.5L2178.9,1531.08L2169.31,1526.38L2169.19,1526.34L2164.93,1524.77L2160.83,1523.12L2159.43,1523.12L2158.34,1524.1L2157.05,1525.56L2155.82,1526.9L2155.47,1527.75L2155.42,1528.58L2155.68,1529.67L2156.04,1530.52L2156.79,1531.1L2159.08,1532.02L2159.82,1532.6L2160.47,1533.42L2160.68,1534.64L2160.61,1535.88L2159.29,1539.16L2158.14,1542.37L2156.75,1545.48L2155.53,1548.52L2154.93,1549.69L2153.86,1550.25L2152.82,1550.4L2151.81,1550.14L2142.32,1546.61L2132.43,1542.65L2122.63,1538.15L2113.25,1534.67L2112.58,1534.26L2111.88,1533.56L2111.45,1532.54L2111.75,1531.1L2113.16,1527.58L2114.7,1524.1L2115.92,1520.35L2117.09,1516.73L2117.7,1515.56L2118.82,1514.88L2119.97,1514.78L2120.99,1515.05L2127.11,1517.22L2128.05,1517.31L2128.94,1516.83L2134.47,1511.42L2137.86,1508.54L2141.35,1505.43L2144.55,1502.33L2147.87,1499.29L2151.12,1496.08L2154.32,1492.98L2157.63,1489.94L2161,1486.77L2164.13,1483.51L2167.4,1479.88L2167.86,1479.08L2167.67,1478.15L2166.66,1477.19L2162.09,1475.35L2161.03,1474.5L2160.53,1473.31L2160.55,1472.19L2160.68,1471.54L2161.97,1467.96L2163.32,1464.27L2166.14,1457.21L2166.92,1455.97L2168.2,1455.22L2169.55,1455.34L2173.82,1456.91L2178.01,1458.31L2182.21,1460.41L2190.45,1464.28L2194.61,1466.09L2203.36,1469.04L2203.61,1469.14L2211.46,1472.57L2212.25,1473.03L2212.76,1473.51L2213.05,1474.19L2213.12,1475.07L2213.12,1484.11L2213.47,1489.18L2213.74,1494.09L2214.3,1498.97L2214.81,1503.98L2215.08,1508.89L2215.22,1513.75L2215.32,1518.73L2215.47,1523.59L2215.4,1528.64L2215.26,1533.52L2215.24,1538.45L2215.27,1543.27L2215.74,1547.69L2216.3,1551.87L2216.73,1552.88L2217.48,1553.47L2220.25,1554.58L2223.19,1555.62L2223.81,1556.15L2224.22,1556.88L2224.51,1557.56L2224.74,1558.36L2224.91,1558.99L2224.67,1559.6L2223.32,1563.29L2222.03,1566.87L2220.4,1570.59L2218.86,1574.07L2218.5,1574.63L2217.97,1575.26L2217.29,1575.55L2216.66,1575.73L2215.96,1575.73L2215.19,1575.56L2205.93,1572.13L2201.26,1569.83L2196.3,1567.56L2191.38,1565.87L2186.39,1564.01L2186.27,1563.96L2181.79,1561.88L2177.26,1559.92L2176.71,1559.56Z" style="fill:rgb(247,172,29);fill-rule:nonzero;"/>
            <path d="M2288.98,1582.77L2288.53,1583.14L2288.42,1583.38L2288.72,1583.66L2292.26,1585.59L2294.8,1586.91L2303.41,1590.9L2305.88,1591.75L2308.17,1592.38L2310.34,1592.66L2312.95,1592.57L2315.33,1592.08L2317.69,1591.3L2319.83,1590.41L2321.95,1589.23L2323.94,1587.7L2325.7,1586.07L2328.87,1582.33L2330.26,1580.24L2331.49,1578.21L2332.65,1576.01L2333.58,1573.7L2334.16,1571.51L2334.62,1569.27L2334.97,1566.98L2335.2,1564.63L2335.31,1562.23L2335.19,1560.01L2334.66,1557.75L2333.96,1555.55L2332.91,1553.48L2331.58,1551.41L2330.01,1549.53L2328.34,1548.19L2326.33,1546.97L2324.14,1545.81L2321.9,1544.77L2318.18,1542.9L2315.76,1541.64L2313.11,1540.56L2309.23,1539.34L2308.82,1539.3L2308.95,1539.64L2309.08,1540.28L2308.93,1540.93L2307,1545.09L2306.11,1546.7L2304.96,1549.19L2303.68,1551.63L2301.67,1554.74L2300.4,1557.18L2299.42,1559.61L2297.94,1563.11L2292.99,1573.81L2291.95,1576.36L2290.53,1579.74L2289.38,1582.24L2288.98,1582.77ZM2277.8,1522.77L2277.37,1522.14L2277.12,1521.44L2277.39,1520.56L2278.32,1518.25L2279.98,1515.27L2281.08,1512.89L2282.01,1510.58L2283.44,1507.49L2284.84,1505.39L2285.46,1504.67L2285.97,1504.19L2286.49,1503.99L2287.42,1504.14L2290.07,1504.93L2293.5,1507.1L2296.05,1508.42L2298.64,1509.62L2300.52,1510.2L2305.11,1512.04L2307.71,1513.24L2311.19,1515L2313.73,1516.32L2316.38,1517.4L2325.11,1521.44L2328.6,1523.49L2331.14,1524.81L2335.56,1526.71L2337.8,1527.75L2339.7,1528.91L2343.45,1531.95L2346.8,1535.23L2348.65,1536.81L2350.39,1538.62L2353.39,1542.03L2356.12,1546.04L2358.16,1550.3L2359.56,1554.7L2360.51,1559.47L2360.86,1561.8L2361.39,1564.06L2361.75,1568.85L2361.53,1571.19L2361.12,1573.61L2360.03,1578.44L2358.29,1582.83L2357.18,1584.91L2355.09,1589.42L2352.94,1593.77L2350.2,1597.84L2346.85,1601.34L2345.21,1603.03L2341.82,1606.65L2338.18,1609.87L2336.05,1611.06L2333.8,1611.89L2329.19,1613.51L2324.57,1614.83L2319.75,1615.63L2315.05,1615.9L2307.8,1615.15L2303.17,1614.01L2293.78,1611.4L2291.49,1610.48L2288.89,1609.28L2285.18,1607.7L2280.04,1605.18L2276.39,1603.78L2271.2,1601.38L2269.54,1600.32L2262.69,1596.86L2253.85,1592.77L2251.97,1592.19L2250.14,1591.49L2247.66,1590.05L2246.94,1589.43L2246.52,1588.8L2246.38,1588.16L2246.53,1587.22L2247.22,1584.8L2248.06,1583.31L2249.01,1581.87L2250.22,1579.55L2251.03,1577.18L2251.57,1575.41L2252.17,1573.81L2253.45,1571.66L2254.18,1570.99L2254.76,1570.68L2255.58,1570.77L2256.51,1570.92L2258.81,1571.84L2261.55,1573.97L2263.9,1574.77L2264.42,1574.58L2264.52,1574.05L2264.61,1573.22L2264.82,1572.46L2265.92,1569.79L2267.33,1566.11L2269.58,1560.95L2273.65,1552.16L2275.42,1548.65L2276.74,1546.09L2277.95,1543.47L2280.08,1540.13L2281.4,1537.57L2282.61,1534.95L2284.15,1531.33L2285.69,1528.01L2286.2,1527.52L2286.42,1527.05L2286.05,1526.59L2284.04,1525.37L2282.4,1524.9L2280.58,1524.49L2278.51,1523.39L2277.8,1522.77Z" style="fill:rgb(247,172,29);fill-rule:nonzero;"/>
            <path d="M2465.72,1609.07L2463.83,1612.81L2462.3,1615.7L2460.78,1618.3L2458.33,1621.72L2456.37,1624.05L2455.86,1624.66L2455.68,1624.71L2455.28,1624.63L2454.71,1624.3L2452.17,1622.97L2446.21,1619.49L2443.67,1618.15L2440.16,1616.41L2437.88,1614.62L2437.22,1613.94L2437.02,1613.52L2437.12,1612.82L2437.36,1611.9L2437.95,1610.12L2440.25,1606.17L2440.47,1605.54L2440.33,1605L2439.96,1604.33L2439.65,1603.84L2437.71,1602.26L2433.47,1599.18L2430.99,1597.73L2427.44,1595.81L2425.33,1595.03L2423.24,1594.72L2421.03,1594.64L2418.9,1594.92L2417.03,1595.8L2415.58,1597.52L2414.66,1599.86L2414.78,1602.5L2415.74,1604.73L2417.46,1606.95L2419.07,1608.34L2423.21,1611.06L2429.3,1615.37L2434.44,1619.74L2437.86,1622.94L2440.84,1626.35L2443.41,1629.97L2444.62,1632.04L2445.65,1634.15L2446.94,1638.39L2447.32,1640.58L2447.68,1644.88L2447.15,1649.41L2446.77,1651.61L2445.2,1655.85L2444.13,1657.95L2442.7,1660.14L2439.53,1663.75L2437.63,1665.21L2433.74,1668.24L2431.79,1669.52L2429.56,1670.5L2424.88,1671.54L2419.95,1671.7L2415.12,1671.45L2410.26,1670.74L2405.66,1669.57L2400.92,1667.86L2398.76,1666.9L2394.66,1664.36L2392.59,1663L2390.16,1661.73L2385.6,1659.22L2383.53,1657.86L2381.36,1656.14L2377.81,1652.4L2376.18,1650.54L2374.37,1648.73L2370.84,1644.7L2369.34,1642.61L2366.18,1635.62L2365.12,1633.03L2365.23,1632.34L2365.58,1631.48L2366.91,1628.93L2369.64,1624.01L2372.64,1618.34L2374.51,1614.89L2375.3,1614.29L2376.87,1613.69L2378.41,1613.38L2379.39,1613.5L2381.75,1614.88L2383.26,1615.91L2384.82,1617.12L2387.18,1618.5L2389.5,1619.7L2391.21,1620.39L2392.8,1621.02L2394.92,1622.56L2395.47,1623.18L2395.54,1623.83L2395.43,1624.53L2395.26,1625.34L2394.48,1627.45L2393.76,1628.7L2391.68,1631.73L2391.53,1632.25L2391.54,1633.01L2391.91,1633.67L2392.22,1634.16L2393.38,1635.29L2396.13,1637.81L2397.69,1639.02L2400.71,1641.08L2406.11,1644.24L2408.3,1645.66L2410.45,1646.62L2412.56,1647.4L2415.07,1647.5L2417.39,1646.88L2419.35,1645.6L2420.98,1643.83L2421.52,1641.88L2421.41,1639.99L2420.32,1637.99L2418.48,1635.71L2417.12,1634.16L2413.78,1630.84L2411.63,1628.83L2405.67,1625.35L2403.89,1624.01L2401.95,1622.42L2398.58,1619.4L2395.53,1616.1L2392.62,1612.29L2390.43,1608.28L2389.63,1606.3L2388.96,1604.09L2388.46,1601.83L2388.44,1599.55L2388.8,1595.06L2389.73,1590.61L2391.25,1586.2L2392.39,1583.99L2393.8,1582.08L2395.33,1580.25L2397.06,1578.84L2400.7,1575.96L2404.49,1573.33L2406.54,1572.41L2408.8,1571.91L2413.33,1571.37L2418.07,1571.26L2422.6,1571.79L2424.84,1572.34L2427.15,1572.78L2429.35,1573.15L2433.88,1574.43L2438.2,1576.35L2440.17,1577.35L2444.27,1579.89L2446.16,1581.3L2447.88,1582.76L2451.56,1585.51L2453.27,1586.96L2456.68,1590.17L2461.32,1595.14L2462.59,1597.1L2463.8,1599.17L2465.75,1603.33L2466.6,1605.49L2466.9,1606.27L2466.73,1607.08L2465.72,1609.07Z" style="fill:rgb(247,172,29);fill-rule:nonzero;"/>
            <path d="M2509.22,2083.44C2561.09,2076.52 2614.62,2065.08 2655.85,2032.53C2670.17,2021.23 2683.24,2006.47 2686.31,1988.36C2689.38,1970.26 2678.87,1949.02 2660.96,1945.89C2652.6,1978.8 2624.27,2003.49 2593.06,2016.11C2561.85,2028.71 2527.67,2031.13 2494.14,2033.41C2517.2,2001 2536.05,1962.06 2530.43,1922.55C2524.81,1883.03 2485.6,1847.01 2447.63,1858.01C2472.73,1921.93 2457.47,1997.14 2419.68,2054.33C2381.89,2111.51 2324.16,2152.6 2263.1,2182.92C2236.89,2195.93 2203.15,2206.45 2180.54,2187.77C2160.26,2171 2160.6,2140.01 2163.74,2113.71C2173.16,2034.79 2198.87,1947.29 2268.98,1911.27C2257.67,1931.52 2246.08,1952.66 2244.59,1975.87C2243.1,1999.08 2254.93,2024.92 2276.99,2031.52C2291.33,2035.8 2307.07,2031.22 2319.68,2023.11C2357.83,1998.6 2368.89,1939.88 2342.31,1902.91C2343.28,1904.21 2376.11,1886.37 2379.2,1884.09C2377.82,1883.34 2369.94,1881.74 2368.36,1881.49C2358.66,1879.93 2354.97,1880.13 2345.16,1879.7C2336.05,1879.3 2326.64,1880.98 2317.66,1879.12C2315.41,1878.66 2313.53,1877.19 2311.66,1875.85C2295.42,1864.18 2274.65,1863.14 2255.41,1863.76C2214.01,1865.1 2175.54,1880.74 2144.82,1909.88C2112.82,1940.24 2096.19,1979.57 2078.74,2018.66C2060.76,2058.92 2032.46,2100.18 1989.58,2108.69C2008.65,2064.84 2028.02,2019.76 2030.31,1971.92C2032.59,1924.07 2014.07,1872.14 1972.98,1848.29C1951.12,1835.59 1925.07,1831.95 1899.88,1833C1849.13,1835.1 1799.32,1855.76 1761.75,1890.31C1663.28,1980.83 1664.57,2139.57 1587.83,2249.48C1574.22,2268.97 1555.42,2288.16 1531.82,2288.83C1501.03,2289.69 1477.68,2256.4 1478.19,2225.27C1478.7,2194.13 1496.3,2166.09 1515.16,2141.47C1552.58,2092.62 1597.33,2049.78 1633.43,1999.94C1669.54,1950.09 1697.24,1890.39 1693.18,1828.75C1691.55,1803.92 1682.02,1776.22 1659.15,1767.01C1631.56,1755.89 1602.09,1777.53 1582.34,1799.96C1471.18,1926.22 1451.27,2113.72 1344.24,2243.57C1334.39,2255.52 1322.18,2267.44 1307.25,2272.41C1292.6,2277.28 1276.35,2271.35 1266.78,2257.88C1258.18,2245.76 1254.72,2220.35 1261.71,2206.69C1224.77,2208.96 1206.35,2242.29 1200.46,2275.43C1197.81,2290.38 1198.57,2306.3 1204.89,2320.09C1225.54,2365.16 1284.41,2360.95 1320.01,2338.56C1347.11,2321.51 1367.26,2295.48 1386.82,2269.99C1379.94,2309.03 1410.02,2348.32 1447.62,2359.68C1458.12,2362.85 1468.93,2364.18 1479.76,2363.98C1507.7,2363.43 1535.8,2352.57 1559.07,2336.34C1591.37,2313.81 1615.99,2281.93 1639.25,2249.99C1695.3,2321.47 1811.18,2334.19 1881.11,2276.53C1934.53,2232.49 1965.47,2154.05 2033.04,2140.17C2024.07,2196.11 2077.4,2245.31 2132.33,2256.71C2185.98,2267.86 2242.58,2254.1 2290.68,2227.64C2338.79,2201.17 2379.37,2162.72 2416.69,2122.21C2407.05,2183.68 2377.03,2241.7 2332.57,2284.77C2373.55,2289.72 2415.27,2269.76 2442.16,2238.11C2469.04,2206.45 2482.13,2164.48 2484.34,2122.82C2516.59,2183.73 2591.53,2218.01 2658.1,2202.3C2724.66,2186.59 2776.83,2122.3 2779.05,2053.26C2704.82,2114.19 2594.82,2126.49 2509.22,2083.44M1517.4,2033.28C1537.2,1974.91 1566.68,1919.92 1604.29,1871.32C1610.63,1863.13 1617.28,1855.03 1625.2,1848.43C1626.83,1847.06 1631.41,1842.87 1633.17,1841.65C1633.12,1876.47 1621.16,1912.51 1605.74,1943.15C1579.91,1994.47 1545.68,2041.45 1504.87,2081.61C1507.48,2065.09 1512.05,2049.08 1517.4,2033.28M1963.29,1938.82C1962.86,1941.86 1962.3,1944.75 1960.36,1946.67C1958.8,1948.22 1956.6,1948.97 1953.65,1948.97C1951.13,1948.97 1948.24,1948.42 1945.94,1947.99L1944.08,1947.64C1941.61,1947.21 1939.03,1946.99 1936.43,1946.99C1919.84,1946.99 1902.7,1955.81 1891.68,1970.02C1881.12,1983.63 1875.2,2001.95 1874.1,2024.46C1872.82,2050.7 1877.94,2077.27 1888.91,2101.3L1889.4,2102.36L1889.36,2103.53C1888.95,2114.06 1864.25,2161.33 1859.28,2169.85C1837.62,2206.99 1813.03,2243.77 1771.7,2250.03C1769.01,2250.44 1766.33,2250.65 1763.72,2250.65C1756.08,2250.65 1749.01,2248.89 1743.27,2245.54C1732.72,2239.37 1725.07,2226.69 1722.8,2211.6C1718.06,2180.08 1728.16,2141.93 1736.29,2111.26L1737.34,2107.31C1746.1,2074.17 1757.77,2043.14 1772.06,2015.1C1794.66,1970.72 1835.95,1910.98 1904.3,1878.42C1911.39,1875.04 1919.37,1873.18 1926.75,1873.18C1933.83,1873.18 1940.18,1874.84 1945.67,1878.09C1961.54,1887.52 1967.64,1908.52 1963.29,1938.82" style="fill:rgb(238,113,171);fill-rule:nonzero;"/>
            <path d="M1963.08,3011.34C1976.9,3002.14 1991.22,2993.28 2003.34,2981.82C2009.97,2975.56 2016.02,2968.64 2022,2961.66C2021.21,2961.57 2020.4,2961.2 2019.55,2961.46C1888.29,3001.74 1756.14,3039.09 1622.28,3069.55C1493.44,3098.86 1362.89,3118.48 1230.88,3124.29C1214.96,3124.89 1199.03,3125.21 1183.1,3125.48C1177.4,3125.56 1171.69,3125.59 1165.99,3125.59C1156.01,3125.59 1146.08,3125.47 1136.46,3125.26C1124.87,3124.99 1113.41,3124.53 1102.13,3123.87C1075.91,3122.99 1049.73,3119.36 1023.39,3116.89C1017.96,3117.74 1013.23,3119.4 1009.17,3122.09C974.866,3144.74 974.508,3211.08 981.946,3241.56C990.167,3275.27 1018.48,3295.4 1057.66,3295.4C1074.12,3295.4 1091.37,3291.63 1106.26,3284.81C1119.32,3278.82 1149.92,3264.79 1142,3226.18C1141.5,3223.78 1134.27,3203 1123.9,3184.78C1156.19,3187.95 1189.72,3189.56 1223.98,3189.56C1390.65,3189.56 1561.19,3151.84 1706.04,3114.94C1794.92,3092.3 1885.53,3062.91 1963.08,3011.34" style="fill:rgb(238,113,171);fill-rule:nonzero;"/>
        </g>
    </g>
</svg>
