<?xml version="1.0" standalone="no"?><!DOCTYPE svg PUBLIC "-//W3C//DTD SVG 1.1//EN" "http://www.w3.org/Graphics/SVG/1.1/DTD/svg11.dtd"><svg width="100%" height="100%" viewBox="0 0 749 439" version="1.1" xmlns="http://www.w3.org/2000/svg" xmlns:xlink="http://www.w3.org/1999/xlink" xml:space="preserve" style="fill-rule:evenodd;clip-rule:evenodd;stroke-linejoin:round;stroke-miterlimit:1.41421;"><path d="M524.435,60.5701c-1.24887,3.7466 0,3.7466 2.49774,4.37104c2.49774,0.624434 4.37104,0.624434 9.36651,-1.24887c5.61991,-1.8733 8.11764,-0.624434 13.1131,-5.61991c9.36651,-9.36651 19.3575,-25.6018 24.9774,-36.2172c3.7466,-7.49321 1.24887,-12.4887 -0.624434,-16.8597c-1.8733,-3.7466 -3.12217,-4.99547 -7.49321,-4.99547c-3.7466,0 -6.86878,0 -9.36651,3.12217c-10.6154,13.1131 -25.6018,38.7149 -32.4706,57.4479ZM393.928,66.19c0,4.99547 0.624434,4.37104 3.7466,4.99547c2.49774,0.624434 4.99547,0 8.11764,-1.8733c1.8733,-1.24887 4.37104,-1.8733 7.49321,-3.7466c3.12217,-1.8733 3.7466,-4.37104 5.61991,-8.11764c5.61991,-11.8642 10.6154,-33.7194 11.2398,-43.086c0,-4.37104 0.624434,-5.61991 -1.8733,-7.49321c-1.8733,-1.24887 -3.12217,-1.24887 -6.86878,-3.7466c-3.7466,-2.49774 -6.86878,-1.24887 -9.99095,-0.624434c-3.12217,0.624434 -4.99547,1.24887 -6.86878,6.24434c-4.99547,13.7376 -9.99095,39.3393 -10.6154,57.4479ZM245.937,29.3484c3.7466,14.362 14.9864,35.5927 23.7285,46.2081c2.49774,3.12217 4.37104,4.37104 7.49321,4.37104c3.12217,0 6.24434,-1.24887 9.36651,-1.24887c3.12217,0 3.7466,0 5.61991,-0.624434c1.8733,-0.624434 2.49774,-1.24887 1.8733,-4.37104c-4.37104,-14.362 -14.362,-38.7149 -19.9819,-48.0814c-1.8733,-3.12217 -4.37104,-4.99547 -7.49321,-5.61991c-3.12217,-0.624434 -4.99547,0.624434 -8.74208,1.24887c-3.12217,0.624434 -5.61991,1.24887 -8.11764,1.8733c-3.12217,0.624434 -4.99547,2.49774 -3.7466,6.24434ZM647.448,84.2986c1.24887,2.49774 1.24887,3.7466 4.99547,4.99547c4.37104,1.24887 9.36651,2.49774 15.6109,1.8733c9.36651,-0.624434 33.095,-9.99095 47.457,-20.6063c3.12217,-2.49774 4.37104,-4.99547 4.99547,-8.11764c0.624434,-2.49774 0,-3.7466 -2.49774,-6.24434c-4.37104,-4.37104 -8.11764,-8.74208 -17.4842,-5.61991c-10.6154,3.7466 -36.8416,16.8597 -51.828,28.0995c-1.8733,1.24887 -2.49774,3.12217 -1.24887,5.61991ZM117.304,79.9276c9.36651,8.74208 23.7285,23.1041 34.3439,29.9728c4.37104,2.49774 9.99095,4.37104 13.1131,2.49774c2.49774,-0.624434 3.7466,-1.24887 7.49321,-2.49774c3.12217,-1.24887 5.61991,-1.24887 7.49321,-3.12217c2.49774,-2.49774 1.8733,-3.12217 0,-5.61991c-8.11764,-9.36651 -23.7285,-25.6018 -34.9683,-33.095c-4.37104,-3.12217 -6.86878,-3.7466 -9.99095,-2.49774c-2.49774,1.24887 -4.37104,1.24887 -8.74208,1.8733c-3.7466,0.624434 -6.24434,1.24887 -9.36651,3.7466c-3.12217,2.49774 -2.49774,5.61991 0.624434,8.74208ZM10.5253,184.208c-1.24887,1.8733 0,4.37104 3.7466,5.61991c10.6154,3.12217 28.0995,8.74208 44.9593,8.74208c6.86878,0 8.74208,-1.24887 11.8642,-3.7466c3.12217,-2.49774 5.61991,-4.37104 8.74208,-6.24434c2.49774,-1.8733 3.12217,-3.12217 3.7466,-4.99547c0.624434,-1.24887 0,-2.49774 -2.49774,-3.12217c-13.1131,-4.99547 -38.0905,-10.6154 -51.2036,-11.2398c-3.7466,0 -6.24434,0.624434 -8.74208,3.12217c-2.49774,2.49774 -8.74208,8.11764 -10.6154,11.8642ZM611.855,276c4.37104,-0.624434 5.61991,-0.624434 7.49321,-2.49774c1.24887,-1.24887 1.8733,-3.12217 0,-4.99547c-3.12217,-3.7466 -6.24434,-11.2398 -9.99095,-14.9864c-4.37104,-4.37104 -5.61991,-4.37104 -13.1131,-4.99547c-11.8642,-0.624434 -33.095,1.8733 -52.4525,4.37104c3.12217,-9.36651 6.86878,-18.733 10.6154,-28.724c21.8552,-4.37104 41.8371,-9.36651 59.3212,-10.6154c3.12217,0 3.12217,-0.624434 4.37104,-1.8733c1.24887,-1.8733 1.8733,-3.12217 0,-4.99547c-1.8733,-1.8733 -3.7466,-8.11764 -6.86878,-11.2398c-3.12217,-3.12217 -4.99547,-4.99547 -11.8642,-5.61991c-8.11764,-0.624434 -19.3575,0 -30.5973,1.24887c3.12217,-7.49321 7.49321,-14.9864 11.2398,-22.4796c21.8552,-1.24887 53.7013,-3.7466 74.9321,-1.8733c2.49774,0 4.37104,-1.24887 3.7466,-4.37104c-0.624434,-3.12217 -2.49774,-9.36651 -5.61991,-11.8642c-3.7466,-3.12217 -6.86878,-8.11764 -9.36651,-11.8642c-2.49774,-3.7466 -4.99547,-5.61991 -11.8642,-6.86878c-23.1041,-3.7466 -69.9366,-4.37104 -93.6651,-0.624434c-3.7466,0.624434 -4.37104,2.49774 -3.7466,4.99547c0.624434,3.12217 2.49774,6.86878 4.37104,8.74208c1.8733,1.8733 4.99547,4.37104 6.86878,8.74208c1.24887,3.12217 4.99547,8.74208 8.74208,11.8642c-5.61991,8.74208 -11.8642,19.3575 -17.4842,29.9728c-4.99547,0.624434 -9.36651,1.24887 -13.1131,2.49774c-4.37104,1.24887 -4.99547,2.49774 -5.61991,6.86878c-0.624434,4.37104 0,8.11764 2.49774,11.2398c1.24887,1.8733 2.49774,2.49774 3.12217,4.37104c-4.37104,8.74208 -7.49321,16.8597 -10.6154,24.9774c-2.49774,6.24434 -1.8733,9.99095 0,13.7376c-2.49774,0.624434 -4.99547,1.24887 -6.86878,1.24887c-3.7466,1.8733 -3.7466,3.12217 -3.12217,5.61991c0.624434,3.12217 3.7466,3.7466 6.24434,6.24434c1.8733,1.8733 5.61991,6.24434 9.36651,10.6154c4.37104,3.7466 12.4887,6.86878 24.9774,6.24434c21.8552,-0.624434 44.9593,-11.2398 68.0633,-13.1131ZM490.091,279.122c3.7466,-0.624434 4.99547,-1.8733 4.37104,-4.37104c-0.624434,-3.7466 -1.8733,-5.61991 -4.99547,-8.74208c-2.49774,-2.49774 -4.99547,-5.61991 -8.74208,-9.99095c-3.12217,-3.7466 -6.24434,-3.7466 -11.8642,-3.7466c-13.1131,0.624434 -33.095,3.7466 -52.4525,7.49321c1.8733,-8.11764 4.37104,-16.8597 6.86878,-24.9774c18.733,-3.7466 48.0814,-15.6109 68.6878,-18.1086c1.8733,0 2.49774,-1.8733 1.8733,-3.7466c-0.624434,-1.24887 -0.624434,-3.12217 -4.37104,-5.61991c-2.49774,-1.8733 -6.24434,-5.61991 -8.11764,-8.11764c-3.12217,-4.99547 -6.86878,-6.24434 -14.9864,-5.61991c-9.36651,0.624434 -19.9819,2.49774 -30.5973,4.37104c3.12217,-8.11764 6.86878,-16.2353 10.6154,-24.3529c23.7285,-4.99547 49.9547,-11.2398 76.8054,-11.8642c3.12217,0 3.7466,0 3.7466,-2.49774c0,-4.99547 -4.99547,-11.2398 -8.11764,-14.362c-1.8733,-1.8733 -3.7466,-3.7466 -4.99547,-8.74208c-1.24887,-4.99547 -5.61991,-7.49321 -11.8642,-7.49321c-20.6063,-0.624434 -73.6832,1.24887 -97.4117,8.11764c-3.7466,1.24887 -3.12217,3.12217 -1.8733,6.24434c1.24887,3.12217 2.49774,3.7466 2.49774,7.49321c0,3.7466 1.8733,8.11764 5.61991,11.2398c1.8733,2.49774 4.99547,6.86878 9.36651,9.99095c-6.24434,11.2398 -11.8642,23.1041 -17.4842,35.5927c-3.12217,1.24887 -5.61991,1.8733 -8.11764,3.12217c-4.37104,1.8733 -4.37104,4.99547 -2.49774,8.11764c1.24887,1.8733 1.8733,3.7466 3.12217,6.24434c-5.61991,14.9864 -10.6154,29.9728 -13.7376,44.3348c-2.49774,0.624434 -3.7466,1.24887 -5.61991,1.8733c-3.7466,1.8733 -4.99547,3.7466 -2.49774,6.86878c1.8733,1.8733 5.61991,6.86878 8.11764,9.99095c3.12217,4.37104 9.36651,6.86878 13.1131,8.74208c6.24434,3.12217 9.36651,4.99547 23.7285,1.24887c18.733,-4.99547 53.7013,-16.2353 71.8099,-18.733ZM747.982,226.67c1.8733,-1.24887 1.8733,-3.7466 1.24887,-6.86878c-0.624434,-2.49774 -1.24887,-6.24434 -3.12217,-8.74208c-1.24887,-1.8733 -2.49774,-2.49774 -6.24434,-3.7466c-10.6154,-3.12217 -36.8416,-7.49321 -59.3212,-7.49321c-3.7466,0 -3.7466,2.49774 -3.12217,5.61991c0.624434,3.12217 3.12217,4.99547 4.37104,8.74208c1.24887,3.7466 6.24434,6.86878 12.4887,9.36651c6.24434,2.49774 13.7376,4.37104 21.8552,6.24434c6.86878,1.8733 13.7376,3.12217 21.2308,2.49774c4.99547,-0.624434 8.11764,-3.7466 10.6154,-5.61991ZM353.34,293.484c2.49774,-3.7466 1.8733,-9.36651 -3.12217,-16.2353c-4.37104,-6.24434 -13.7376,-14.9864 -25.6018,-21.8552c18.1086,-5.61991 36.2172,-14.9864 48.7059,-27.4751c14.9864,-14.9864 17.4842,-34.9683 9.36651,-54.3258c0,-28.724 -18.1086,-36.8416 -43.7104,-36.8416c-24.3529,0 -56.1991,7.49321 -76.181,18.1086c-4.37104,2.49774 -3.7466,4.99547 -0.624434,7.49321c3.7466,3.12217 6.24434,9.36651 11.8642,13.1131c2.49774,1.8733 4.99547,3.12217 6.86878,4.37104c-13.7376,30.5973 -34.3439,86.1719 -38.0905,116.769c-1.24887,11.2398 8.11764,16.2353 11.8642,19.9819c3.12217,3.12217 5.61991,5.61991 8.74208,6.24434c3.12217,0.624434 4.37104,0.624434 4.99547,-3.12217c2.49774,-18.733 6.86878,-38.7149 11.8642,-58.6968c18.1086,10.6154 38.7149,33.095 51.2036,53.7013c3.12217,4.99547 4.99547,4.37104 8.11764,1.8733c3.12217,-2.49774 6.24434,-4.37104 8.11764,-10.6154c1.8733,-5.61991 3.12217,-8.74208 5.61991,-12.4887ZM152.272,290.362c25.6018,-9.36651 53.0769,-14.9864 65.5656,-19.3575c6.24434,-2.49774 6.86878,-6.24434 10.6154,-9.36651c1.8733,-1.8733 2.49774,-5.61991 1.24887,-7.49321c-1.8733,-2.49774 -5.61991,-5.61991 -8.74208,-9.36651c-4.37104,-4.99547 -8.11764,-7.49321 -16.2353,-6.24434c-11.2398,1.8733 -25.6018,4.37104 -39.9638,8.11764c4.37104,-13.7376 8.11764,-26.2262 11.8642,-36.2172c25.6018,-9.36651 59.9457,-15.6109 82.4253,-19.9819c3.7466,-0.624434 4.99547,-3.7466 3.12217,-6.24434c-1.8733,-3.12217 -5.61991,-8.11764 -10.6154,-11.8642c-4.99547,-3.7466 -8.74208,-9.36651 -13.1131,-13.1131c-5.61991,-4.99547 -9.99095,-6.24434 -22.4796,-4.37104c-28.724,4.37104 -70.5611,15.6109 -93.6651,26.8507c-3.7466,1.8733 -4.37104,4.37104 -1.8733,6.86878c2.49774,2.49774 4.37104,8.11764 8.74208,11.2398c3.7466,2.49774 13.1131,7.49321 16.2353,9.99095c1.8733,1.24887 2.49774,1.8733 3.7466,2.49774c-4.99547,12.4887 -11.2398,28.0995 -16.8597,44.3348c-8.74208,2.49774 -16.2353,5.61991 -21.8552,8.74208c-2.49774,0.624434 -2.49774,1.8733 -1.24887,3.7466c1.24887,1.8733 4.37104,8.11764 9.36651,10.6154c2.49774,1.24887 3.12217,2.49774 4.99547,3.12217c-6.24434,19.3575 -11.8642,37.466 -14.362,52.4525c-1.24887,8.11764 0,9.36651 3.7466,15.6109c3.7466,5.61991 6.24434,9.99095 11.8642,12.4887c1.8733,0.624434 4.37104,1.8733 6.86878,2.49774c3.12217,0.624434 4.99547,0 5.61991,-3.12217c2.49774,-20.6063 8.11764,-46.8326 14.9864,-72.4344ZM63.6022,303.475c2.49774,-3.12217 2.49774,-4.99547 2.49774,-7.49321c0,-1.8733 0.624434,-3.7466 -4.37104,-3.7466c-11.2398,0 -39.9638,5.61991 -49.9547,9.36651c-4.37104,1.24887 -4.99547,4.37104 -6.24434,6.86878c-1.24887,3.12217 -3.7466,6.24434 -4.99547,9.99095c-1.24887,4.37104 0,6.24434 0.624434,9.36651c0.624434,2.49774 1.8733,3.12217 4.99547,2.49774c13.1131,-3.7466 39.3393,-11.2398 48.0814,-14.9864c6.24434,-2.49774 6.86878,-8.74208 9.36651,-11.8642ZM673.05,360.298c-6.24434,-11.2398 -27.4751,-33.095 -36.8416,-39.9638c-4.99547,-3.7466 -9.99095,-1.24887 -14.9864,-1.24887c-4.37104,0 -6.24434,0.624434 -9.36651,1.24887c-2.49774,0.624434 -3.7466,1.8733 -1.24887,4.99547c7.49321,9.36651 21.2308,28.0995 33.7194,38.0905c4.99547,4.37104 5.61991,3.7466 11.2398,4.99547c4.99547,1.24887 11.2398,1.8733 16.8597,-2.49774c1.8733,-1.8733 1.8733,-3.7466 0.624434,-5.61991ZM520.064,390.896c-1.24887,-11.8642 -10.6154,-33.7194 -16.8597,-44.3348c-2.49774,-3.7466 -3.7466,-4.99547 -6.24434,-5.61991c-2.49774,-0.624434 -6.86878,-1.24887 -9.36651,-1.24887c-1.8733,0 -3.7466,-0.624434 -4.99547,0.624434c-1.24887,1.24887 -2.49774,2.49774 -1.8733,4.99547c2.49774,12.4887 8.74208,43.7104 15.6109,54.9502c2.49774,3.7466 4.99547,4.99547 8.11764,6.24434c1.8733,0.624434 3.7466,1.24887 5.61991,0c3.7466,-1.8733 4.37104,-2.49774 7.49321,-4.99547c3.12217,-2.49774 3.12217,-5.61991 2.49774,-10.6154ZM381.439,377.158c-0.624434,-3.7466 -3.12217,-4.37104 -4.99547,-5.61991c-1.8733,-1.24887 -3.12217,0 -5.61991,0.624434c-5.61991,1.8733 -9.36651,3.12217 -11.2398,9.99095c-3.12217,12.4887 -6.24434,29.9728 -6.86878,45.5837c0,6.24434 2.49774,6.86878 6.86878,9.36651c2.49774,1.24887 2.49774,0.624434 4.99547,0.624434c2.49774,0 8.11764,-1.8733 10.6154,-3.12217c3.12217,-1.24887 3.7466,-2.49774 4.37104,-6.24434c1.24887,-14.362 3.7466,-41.2127 1.8733,-51.2036ZM260.923,384.027c0,-2.49774 -1.24887,-4.37104 -4.37104,-3.7466c-3.7466,0.624434 -6.86878,0 -11.2398,1.24887c-4.99547,1.24887 -7.49321,3.12217 -10.6154,8.11764c-4.37104,6.24434 -14.9864,25.6018 -18.733,36.2172c-2.49774,4.99547 -1.24887,6.24434 0.624434,8.74208c1.24887,1.8733 3.7466,4.99547 9.36651,4.37104c5.61991,-0.624434 8.11764,-1.24887 10.6154,-1.24887c2.49774,0 4.37104,-1.8733 6.86878,-6.24434c4.99547,-9.36651 16.2353,-34.9683 17.4842,-47.457ZM119.177,395.267c1.24887,-1.8733 0.624434,-4.37104 -1.24887,-4.99547c-1.8733,-0.624434 -3.7466,-0.624434 -8.11764,-1.8733c-3.7466,-1.24887 -8.74208,-1.24887 -14.9864,2.49774c-6.86878,4.37104 -20.6063,17.4842 -23.7285,20.6063c-3.7466,3.7466 -5.61991,6.24434 -6.86878,9.99095c-0.624434,2.49774 -1.24887,5.61991 1.24887,8.11764c1.8733,1.8733 4.99547,3.12217 8.74208,4.99547c3.12217,1.8733 6.24434,1.24887 9.36651,-1.24887c8.74208,-6.24434 28.724,-28.0995 35.5927,-38.0905ZM363.955,178.588c-5.61991,21.2308 -31.8461,43.7104 -75.5565,54.3258c4.99547,-15.6109 10.6154,-31.2217 16.8597,-46.8326c17.4842,-1.8733 51.2036,-18.1086 58.6968,-7.49321Z" style="fill:#333;fill-rule:nonzero;"/></svg>