<?xml version="1.0" standalone="no"?><!DOCTYPE svg PUBLIC "-//W3C//DTD SVG 1.1//EN" "http://www.w3.org/Graphics/SVG/1.1/DTD/svg11.dtd"><svg width="100%" height="100%" viewBox="0 0 1409 1539" version="1.1" xmlns="http://www.w3.org/2000/svg" xmlns:xlink="http://www.w3.org/1999/xlink" xml:space="preserve" style="fill-rule:evenodd;clip-rule:evenodd;stroke-linejoin:round;stroke-miterlimit:1.41421;"><g id="Frill"><g id="Grill Outline"><path d="M738.092,380.007l671.143,317.724l-718.997,330.911l-655.104,-432.286l702.958,-216.348Z" style="fill:#c7412e;"/></g><g id="Grill Outline1"><path d="M694.155,379.404l692.701,267.483l-692.701,382.914l-685.134,-382.914l685.134,-267.483Z" style="fill:none;stroke-width:10.42px;stroke:#353332;"/><path d="M9.0211,646.783l1377.84,0" style="fill:none;stroke-width:8.33px;stroke:#353332;"/><path d="M781.302,450.589l81.9257,-123.49l-353.224,0l72.4716,124.732l27.1806,0l-67.0158,-106.901l278.274,0l-70.8092,105.978l31.1976,-0.317741Z" style="fill:#353332;"/><path d="M322.454,550.939l171.741,-64.9033l91.502,1.43122l-159.287,62.8763l-103.956,0.595768Z" style="fill:#353332;"/><path d="M477.309,500.621l-37.2333,13.4417l13.6525,0.825612l35.2766,-12.754l-11.6958,-1.51333Z" style="fill:#000;"/><path d="M496.301,504.621l-29.2333,11.4417l14.2811,0.424538l27.648,-11.3529l-12.6958,-0.513333Z" style="fill:#000;"/><path d="M421.118,523.159l-37.2333,14.4417l18.5767,-0.540898l33.7456,-13.9008l-15.089,-4.54747e-13Z" style="fill:#000;"/><path d="M444.055,524.159l-28.2333,12.4417l14.5767,0.459102l28.7456,-12.9008l-15.089,-4.54747e-13Z" style="fill:#000;"/><path d="M509.595,926.961l369.515,1.74388l-181.172,101.095l-188.344,-102.839Z" style="fill:#353332;"/><path d="M965.646,1335.72l30.8821,90.6225l27.1122,33.5943l-38.473,-124.217l-19.5213,0ZM442.124,1335.72l-22.3277,103.887l9.68297,-13.2647l24.0732,-90.6225l-11.4286,0ZM488.329,1335.72l-19.4768,90.6225l0.107354,0l-69.7304,108.96l-0.901717,4.19555l-51.4494,0l162.717,-612.539l20.3807,0l-76.0435,353.819l14.2153,0l85.8552,-323.198l15.5969,0l-48.4968,225.648l369.847,0l-69.8888,-225.648l15.7236,0l110.138,323.198l21.2274,0l-109.586,-353.819l20.5463,0l208.74,612.539l-39.5674,0l-0.179313,-0.578943l-81.6136,-112.576l-0.241236,0l-28.068,-90.6225l-449.851,0ZM515.253,1210.45l-15.1158,70.3315l421.026,0l-21.7834,-70.3315l-384.127,0Z" style="fill:#353332;"/><path d="M400.738,456.377l57.0677,-80.4569l-56.6082,-86.9308l54.833,-75.7589l-45.0829,-71.1041l37.7658,-68.471l-36.5763,-43.9527" style="fill:none;stroke-width:8.33px;stroke:#353332;"/><path d="M457.806,456.377l-46.7966,-84.6969l46.4197,-91.5121l-44.964,-79.7514l36.9688,-74.8512l-30.9687,-72.0794l29.9933,-46.269" style="fill:none;stroke-width:8.33px;stroke:#353332;"/></g></g></svg>