<?xml version="1.0" standalone="no"?>
<!DOCTYPE svg PUBLIC "-//W3C//DTD SVG 1.1//EN" "http://www.w3.org/Graphics/SVG/1.1/DTD/svg11.dtd">
<svg width="100%" height="100%" viewBox="0 0 281 152" version="1.1" xmlns="http://www.w3.org/2000/svg" xmlns:xlink="http://www.w3.org/1999/xlink" xml:space="preserve" style="fill-rule:evenodd;clip-rule:evenodd;stroke-linejoin:round;stroke-miterlimit:1.41421;">
    <g transform="matrix(1,0,0,1,-895.9,-924.354)">
        <g>
            <g transform="matrix(4.16667,0,0,4.16667,0,-1812.43)">
                <path d="M250.911,662.747L253.123,662.747C253.735,662.747 254.228,663.195 254.228,663.752L254.228,666.822C254.228,667.284 254.004,667.461 253.735,667.596C254.004,667.692 254.228,667.896 254.228,668.493L254.228,671.441C254.228,671.998 253.735,672.446 253.123,672.446L250.911,672.446L250.911,662.747ZM252.017,667.094L253.123,667.094L253.123,663.752L252.017,663.752L252.017,667.094ZM252.017,671.441L253.123,671.441L253.123,668.099L252.017,668.099L252.017,671.441Z" style="fill:black;fill-rule:nonzero;"/>
            </g>
            <g transform="matrix(4.16667,0,0,4.16667,0,-1812.43)">
                <path d="M257.097,664.173C257.097,663.344 257.844,662.665 258.756,662.665C259.667,662.665 260.414,663.344 260.414,664.173L260.414,671.02C260.414,671.849 259.667,672.528 258.756,672.528C257.844,672.528 257.097,671.849 257.097,671.02L257.097,664.173ZM259.309,663.752L258.203,663.752L258.203,671.441L259.309,671.441L259.309,663.752Z" style="fill:black;fill-rule:nonzero;"/>
            </g>
            <g transform="matrix(4.16667,0,0,4.16667,0,-1812.43)">
                <path d="M262.999,662.747L264.12,662.747L264.613,667.515C264.673,668.126 264.747,668.724 264.792,669.96L264.822,669.96C264.867,668.724 264.942,668.126 265.001,667.515L265.494,662.747L266.615,662.747L265.331,672.446L264.285,672.446L262.999,662.747Z" style="fill:black;fill-rule:nonzero;"/>
            </g>
            <g transform="matrix(4.16667,0,0,4.16667,0,-1812.43)">
                <path d="M272.518,663.752L270.307,663.752L270.307,667.094L271.965,667.094L271.965,668.099L270.307,668.099L270.307,671.441L272.518,671.441L272.518,672.446L270.307,672.446C269.694,672.446 269.201,671.998 269.201,671.441L269.201,663.752C269.201,663.195 269.694,662.747 270.307,662.747L272.518,662.747L272.518,663.752Z" style="fill:black;fill-rule:nonzero;"/>
            </g>
            <g transform="matrix(4.16667,0,0,4.16667,0,-1812.43)">
                <path d="M275.118,662.747L277.33,662.747C277.942,662.747 278.436,663.195 278.436,663.752L278.436,666.822C278.436,667.284 278.211,667.461 277.942,667.596C278.211,667.692 278.436,667.896 278.436,668.493L278.436,671.726C278.436,671.998 278.555,672.202 278.705,672.446L277.569,672.446C277.449,672.242 277.33,671.971 277.33,671.726L277.33,668.099L276.224,668.099L276.224,672.446L275.118,672.446L275.118,662.747ZM276.224,667.094L277.33,667.094L277.33,663.752L276.224,663.752L276.224,667.094Z" style="fill:black;fill-rule:nonzero;"/>
            </g>
            <g transform="matrix(4.16667,0,0,4.16667,0,-1812.43)">
                <rect x="281.305" y="662.747" width="1.106" height="9.699" style="fill:black;fill-rule:nonzero;"/>
            </g>
            <g transform="matrix(4.16667,0,0,4.16667,0,-1812.43)">
                <path d="M251.394,678.163L251.394,680.124L250.851,680.124L250.851,675.86L252.321,675.86C253.077,675.86 253.343,676.391 253.343,676.923C253.343,677.425 253.065,677.809 252.563,677.897L252.563,677.909C253.054,677.986 253.231,678.151 253.26,679.008C253.266,679.191 253.325,679.858 253.408,680.124L252.841,680.124C252.687,679.829 252.723,679.274 252.676,678.706C252.634,678.187 252.215,678.163 252.032,678.163L251.394,678.163ZM251.394,677.691L252.209,677.691C252.599,677.691 252.788,677.354 252.788,676.982C252.788,676.675 252.634,676.332 252.215,676.332L251.394,676.332L251.394,677.691Z" style="fill:black;fill-rule:nonzero;"/>
            </g>
            <g transform="matrix(4.16667,0,0,4.16667,0,-1812.43)">
                <path d="M256.898,680.124L256.898,675.86L259.095,675.86L259.095,676.332L257.441,676.332L257.441,677.702L258.977,677.702L258.977,678.175L257.441,678.175L257.441,679.652L259.131,679.652L259.131,680.124L256.898,680.124Z" style="fill:black;fill-rule:nonzero;"/>
            </g>
            <g transform="matrix(4.16667,0,0,4.16667,0,-1812.43)">
                <path d="M263.566,675.86L264.257,675.86L265.645,680.124L265.036,680.124L264.729,679.109L263.082,679.109L262.763,680.124L262.213,680.124L263.566,675.86ZM263.897,676.362L263.885,676.362L263.218,678.636L264.582,678.636L263.897,676.362Z" style="fill:black;fill-rule:nonzero;"/>
            </g>
            <g transform="matrix(4.16667,0,0,4.16667,0,-1812.43)">
                <path d="M268.965,680.124L268.965,675.86L269.508,675.86L269.508,679.652L271.073,679.652L271.073,680.124L268.965,680.124Z" style="fill:black;fill-rule:nonzero;"/>
            </g>
            <g transform="matrix(4.16667,0,0,4.16667,0,-1812.43)">
                <path d="M276.377,675.86L276.377,676.333L275.255,676.333L275.255,680.124L274.712,680.124L274.712,676.333L273.59,676.333L273.59,675.86L276.377,675.86Z" style="fill:black;fill-rule:nonzero;"/>
            </g>
            <g transform="matrix(4.16667,0,0,4.16667,0,-1812.43)">
                <path d="M281.563,675.86L282.112,675.86L280.949,678.5L280.949,680.124L280.405,680.124L280.405,678.5L279.259,675.86L279.868,675.86L280.7,677.921L281.563,675.86Z" style="fill:black;fill-rule:nonzero;"/>
            </g>
            <g transform="matrix(4.16667,0,0,4.16667,0,-1812.43)">
                <path d="M252.761,684.087C252.761,683.585 252.554,683.313 252.005,683.313C251.834,683.313 251.22,683.343 251.22,684.235L251.22,685.676C251.22,686.609 251.491,686.845 252.005,686.845C252.395,686.845 252.655,686.739 252.767,686.656L252.767,685.38L251.981,685.38L251.981,684.908L253.31,684.908L253.31,686.981C252.962,687.17 252.554,687.3 252.005,687.3C251.101,687.3 250.664,686.834 250.664,685.652L250.664,684.252C250.664,683.402 251.101,682.859 252.005,682.859C252.926,682.859 253.364,683.195 253.328,684.087L252.761,684.087Z" style="fill:black;fill-rule:nonzero;"/>
            </g>
            <g transform="matrix(4.16667,0,0,4.16667,0,-1812.43)">
                <path d="M258.526,685.251L258.526,687.212L257.983,687.212L257.983,682.948L259.453,682.948C260.209,682.948 260.475,683.479 260.475,684.011C260.475,684.513 260.197,684.897 259.695,684.985L259.695,684.997C260.186,685.074 260.363,685.239 260.392,686.096C260.398,686.279 260.457,686.946 260.54,687.212L259.973,687.212C259.819,686.917 259.855,686.362 259.808,685.794C259.766,685.275 259.347,685.251 259.164,685.251L258.526,685.251ZM258.526,684.779L259.341,684.779C259.731,684.779 259.92,684.442 259.92,684.07C259.92,683.763 259.766,683.42 259.347,683.42L258.526,683.42L258.526,684.779Z" style="fill:black;fill-rule:nonzero;"/>
            </g>
            <g transform="matrix(4.16667,0,0,4.16667,0,-1812.43)">
                <path d="M264.928,685.653L264.928,684.253C264.928,683.403 265.365,682.859 266.269,682.859C267.172,682.859 267.61,683.403 267.61,684.253L267.61,685.653C267.61,686.834 267.172,687.301 266.269,687.301C265.365,687.301 264.928,686.834 264.928,685.653M267.054,685.677L267.054,684.235C267.054,683.343 266.441,683.314 266.269,683.314C266.098,683.314 265.483,683.343 265.483,684.235L265.483,685.677C265.483,686.61 265.755,686.846 266.269,686.846C266.783,686.846 267.054,686.61 267.054,685.677" style="fill:black;fill-rule:nonzero;"/>
            </g>
            <g transform="matrix(4.16667,0,0,4.16667,0,-1812.43)">
                <path d="M272.205,682.947L272.748,682.947L272.748,685.676C272.748,686.609 273.032,686.845 273.545,686.845C274.06,686.845 274.343,686.609 274.343,685.676L274.343,682.947L274.886,682.947L274.886,685.652C274.886,686.833 274.449,687.3 273.545,687.3C272.642,687.3 272.205,686.833 272.205,685.652L272.205,682.947Z" style="fill:black;fill-rule:nonzero;"/>
            </g>
            <g transform="matrix(4.16667,0,0,4.16667,0,-1812.43)">
                <path d="M279.569,687.212L279.569,682.948L280.833,682.948C281.406,682.948 282.02,683.161 282.02,684.164C282.02,685.133 281.264,685.334 280.827,685.334L280.112,685.334L280.112,687.212L279.569,687.212ZM280.112,684.861L280.709,684.861C280.933,684.861 281.465,684.802 281.465,684.135C281.465,683.485 280.981,683.42 280.862,683.42L280.112,683.42L280.112,684.861Z" style="fill:black;fill-rule:nonzero;"/>
            </g>
            <path d="M1028.79,1075.65L895.9,1075.65L895.9,924.354L1028.79,924.354L1028.79,1075.65ZM972.13,1031.11C981.963,1031.11 990.113,1021.44 990.113,1009.53C990.113,1003.26 987.634,997.407 983.559,993.686C987.28,990.074 990.113,983.695 990.113,977.315C990.113,965.407 981.963,955.732 972.13,955.732L938.463,955.732L938.463,988.053L931.73,988.053L931.73,998.79L938.463,998.79L938.463,1031.11L972.13,1031.11ZM972.13,998.79C977.18,998.791 981.342,1003.57 981.342,1009.53C981.342,1015.59 977.18,1020.37 972.13,1020.37L947.5,1020.37L947.5,998.79L972.13,998.79ZM972.13,966.47C977.088,966.47 981.08,971.361 981.08,977.315C981.08,983.161 977.088,988.053 972.13,988.053L947.5,988.053L947.5,966.47L972.13,966.47Z" style="fill:black;"/>
        </g>
    </g>
</svg>
