<?xml version="1.0" standalone="no"?>
<!-- Generator: Adobe Fireworks CS6, Export SVG Extension by Aaron Beall (http://fireworks.abeall.com) . Version: 0.6.1  -->
<!DOCTYPE svg PUBLIC "-//W3C//DTD SVG 1.1//EN" "http://www.w3.org/Graphics/SVG/1.1/DTD/svg11.dtd">
<svg id="Untitled-Page%201" viewBox="0 0 170 29" style="background-color:#064b3b00" version="1.1"
  xmlns="http://www.w3.org/2000/svg" xmlns:xlink="http://www.w3.org/1999/xlink" xml:space="preserve"
  x="0px" y="0px" width="170px" height="29px"
>
  <g id="Layer%201">
    <g id="cremalab%20h">
      <path d="M 27.2761 5.9214 C 27.2761 5.9214 27.9127 6.2207 28.3651 5.821 L 26.8293 4.2529 L 19.4004 11.8398 L 16.1924 27.1055 C 16.1924 27.1055 12.373 27.7441 6.8401 22.0933 C 1.3307 16.4658 2.0251 12.2656 2.0251 12.2656 L 16.8091 9.1934 L 24.2375 1.6057 L 22.6656 0 C 22.3057 0.4658 22.4463 1.311 22.4463 1.311 L 16.0747 7.8184 L 0.0103 11.3813 C 0.0103 11.3813 -0.5029 17.2993 5.7292 23.5117 C 11.5162 29.2813 17.2582 28.9976 17.2582 28.9976 L 20.7463 12.5901 L 27.2761 5.9214 Z" fill="#064b3b"/>
      <path d="M 8.0217 20.8887 C 11.9792 24.7886 14.9426 25.3091 14.9426 25.3091 L 16.9822 16.2996 C 16.9822 16.2996 16.9922 16.2566 16.9982 16.1816 C 17.0303 15.7817 16.9487 14.4653 14.6235 13.8906 C 11.8641 13.208 12.3821 11.6016 12.3821 11.6016 L 7.5399 12.6753 L 4.0159 13.4399 C 4.0159 13.4399 4.0643 16.9883 8.0217 20.8887 Z" fill="#064b3b"/>
      <path d="M 29.1102 9.8547 C 29.1102 10.8237 28.7119 11.1694 28.2198 11.1694 C 27.7288 11.1694 27.3306 10.8237 27.3306 9.8547 C 27.3306 8.8857 28.2198 7.6606 28.2198 7.6606 C 28.2198 7.6606 29.1102 8.8857 29.1102 9.8547 Z" fill="#064b3b"/>
      <path d="M 48.4836 21.4668 L 49.9646 22.8223 C 47.785 24.8396 45.3862 25.8477 42.7686 25.8477 C 39.9552 25.8477 37.5588 24.8372 35.5796 22.8149 C 33.6 20.7935 32.6104 18.3462 32.6104 15.4727 C 32.6104 12.6182 33.6 10.1758 35.5796 8.1443 C 37.5588 6.1133 39.9552 5.0972 42.7686 5.0972 C 45.3862 5.0972 47.785 6.1152 49.9646 8.1514 L 48.4836 9.4927 C 46.7415 7.9231 44.8367 7.1382 42.7686 7.1382 C 40.5143 7.1382 38.5884 7.9517 36.9908 9.5786 C 35.3932 11.2056 34.5945 13.1704 34.5945 15.4727 C 34.5945 17.7842 35.3932 19.7563 36.9908 21.3882 C 38.5884 23.0198 40.5143 23.8354 42.7686 23.8354 C 44.8367 23.8354 46.7415 23.0459 48.4836 21.4668 Z" fill="#064b3b"/>
      <path d="M 58.8184 18.9121 L 55.9542 18.9121 L 55.9542 25.6194 L 53.9839 25.6194 L 53.9839 5.3403 L 59.4333 5.3403 C 61.0074 5.5493 62.335 6.2104 63.4155 7.3237 C 64.7102 8.656 65.3579 10.249 65.3579 12.1045 C 65.3579 13.9885 64.7102 15.5918 63.4155 16.9141 C 62.5121 17.8271 61.683 18.3792 60.9285 18.5693 L 65.4138 25.6194 L 63.0244 25.6194 L 58.8184 18.9121 ZM 55.9542 7.3521 L 55.9542 16.8855 L 58.7207 16.8855 C 60.0061 16.8855 61.1053 16.4194 62.0183 15.4871 C 62.9314 14.5542 63.3877 13.427 63.3877 12.1045 C 63.3877 10.7917 62.9314 9.6714 62.0183 8.7437 C 61.1053 7.8162 60.0061 7.3521 58.7207 7.3521 L 55.9542 7.3521 Z" fill="#064b3b"/>
      <path d="M 80.3577 5.3403 L 80.3577 7.3379 L 71.946 7.3379 L 71.946 14.4736 L 80.3577 14.4736 L 80.3577 16.4858 L 71.946 16.4858 L 71.946 23.6074 L 80.3577 23.6074 L 80.3577 25.6194 L 69.9756 25.6194 L 69.9756 5.3403 L 80.3577 5.3403 Z" fill="#064b3b"/>
      <path d="M 102.8854 5.3403 L 102.8854 25.6194 L 100.9153 25.6194 L 100.9153 8.3228 L 95.0466 16.1577 L 94.0269 17.542 L 92.9927 16.1719 L 87.1241 8.3228 L 87.1241 25.6194 L 85.1536 25.6194 L 85.1536 5.3403 L 87.3754 5.3403 L 94.0269 14.2168 L 100.6641 5.3403 L 102.8854 5.3403 Z" fill="#064b3b"/>
      <path d="M 115.1233 5.3403 L 122.334 25.6194 L 120.2516 25.6194 L 117.2194 17.0996 L 111.2947 17.0996 L 108.207 25.6194 L 106.111 25.6194 L 113.4043 5.3403 L 115.1233 5.3403 ZM 116.5068 15.1016 L 114.2571 8.7651 L 112.0073 15.1016 L 116.5068 15.1016 Z" fill="#064b3b"/>
      <path d="M 125.7034 25.6194 L 125.7034 5.3403 L 127.6735 5.3403 L 127.6735 23.6074 L 134.8979 23.6074 L 134.8979 25.6194 L 125.7034 25.6194 Z" fill="#064b3b"/>
      <path d="M 146.8726 5.3403 L 154.0822 25.6194 L 152.0006 25.6194 L 148.9684 17.0996 L 143.0437 17.0996 L 139.9558 25.6194 L 137.8596 25.6194 L 145.1536 5.3403 L 146.8726 5.3403 ZM 148.2554 15.1016 L 146.0061 8.7651 L 143.7566 15.1016 L 148.2554 15.1016 Z" fill="#064b3b"/>
      <path d="M 168.0575 14.0454 C 169.3525 15.3682 170 16.9663 170 18.8406 C 170 20.7151 169.3525 22.3135 168.0575 23.6357 C 166.9773 24.7395 165.6544 25.4004 164.0896 25.6194 L 157.4524 25.6194 L 157.4524 5.3403 L 163.5586 5.3403 C 164.7693 5.3403 165.7969 5.7729 166.6394 6.6384 C 167.4822 7.5044 167.9043 8.5461 167.9043 9.7642 C 167.9043 10.9819 167.48 12.0237 166.6324 12.8896 C 166.9678 13.0132 167.4429 13.3984 168.0575 14.0454 ZM 159.4229 7.3237 L 159.4229 12.062 L 163.7819 12.062 C 164.434 11.9956 164.9182 11.8 165.235 11.4766 C 165.6912 11.0105 165.9199 10.4397 165.9199 9.7642 C 165.9199 9.0981 165.6868 8.5251 165.2212 8.0444 C 164.7551 7.564 164.1965 7.3237 163.5444 7.3237 L 159.4229 7.3237 ZM 163.3628 23.6074 C 164.6389 23.6074 165.7312 23.1436 166.6394 22.2156 C 167.5474 21.2881 168.0018 20.1631 168.0018 18.8406 C 168.0018 17.5278 167.5474 16.405 166.6394 15.4727 C 165.7312 14.5403 164.6389 14.0742 163.3628 14.0742 L 159.4229 14.0742 L 159.4229 23.6074 L 163.3628 23.6074 Z" fill="#064b3b"/>
    </g>
  </g>
</svg>