<?xml version="1.0" standalone="no"?>
<!DOCTYPE svg PUBLIC "-//W3C//DTD SVG 20010904//EN"
 "http://www.w3.org/TR/2001/REC-SVG-20010904/DTD/svg10.dtd">
<svg version="1.0" xmlns="http://www.w3.org/2000/svg"
 width="377.500000pt" height="135.586744pt" viewBox="0 0 377.500000 135.586744"
 preserveAspectRatio="xMidYMid meet">
<metadata>
Created by Potrace Professional 1.1m
</metadata>
<g transform="translate(-2.000000,153.586744) rotate(-360.00) scale(0.095238,-0.095238)"
fill="#000000" stroke="none">
<path d="M1906 1603 c-123 -31 -219 -110 -275 -226 -26 -52 -29 -72 -29 -164
-1 -98 2 -111 33 -174 18 -38 45 -79 59 -92 l25 -24 175 216 c96 119 175 220
175 225 0 14 -42 22 -119 22 l-70 0 -1 -60 c0 -56 -3 -65 -44 -116 l-45 -55
-3 148 c-2 101 1 153 9 163 18 21 235 20 299 -2 55 -18 55 -18 100 38 l33 42
-67 31 c-79 37 -178 48 -255 28z"/>
<path d="M2255 1431 l-39 -51 26 -52 c48 -94 28 -224 -45 -303 -16 -17 -52
-41 -81 -55 -44 -21 -69 -25 -158 -25 l-105 0 -29 -37 c-16 -20 -27 -41 -24
-46 4 -6 31 -18 61 -29 79 -27 205 -25 284 6 79 31 168 112 210 194 31 60 34
71 34 175 0 97 -4 117 -28 168 -15 31 -36 68 -47 81 l-20 25 -39 -51z"/>
<path d="M2044 1172 l-104 -127 35 -4 c86 -8 165 38 189 111 12 39 8 125 -8
139 -5 5 -55 -48 -112 -119z"/>
<path d="M3718 587 c-44 -9 -83 -38 -114 -83 -35 -51 -40 -100 -18 -165 18
-53 18 -56 0 -76 -11 -12 -23 -22 -27 -22 -4 0 -25 25 -47 54 l-38 54 37 31
c62 51 62 138 -2 187 -21 17 -42 21 -108 21 l-83 0 0 -184 0 -183 26 0 c26 0
27 2 27 68 0 97 21 93 100 -16 33 -46 68 -84 77 -84 10 0 34 14 55 31 37 31
39 31 76 16 124 -52 259 35 259 167 0 27 -8 64 -17 82 -17 33 -17 33 23 68
l41 34 -33 1 c-19 0 -40 -8 -51 -21 -18 -19 -22 -20 -43 -6 -35 23 -99 35
-140 26z m-232 -62 c12 -12 21 -35 21 -52 0 -47 -32 -74 -89 -74 l-47 0 0 74
0 73 47 0 c33 0 53 -6 68 -21z m331 9 c14 -7 25 -15 24 -19 -2 -3 -47 -48
-101 -100 -108 -104 -117 -105 -117 -12 -1 57 20 100 61 125 33 21 95 23 133
6z m73 -128 c-1 -110 -89 -171 -190 -133 l-29 11 99 100 c68 68 102 95 109 88
6 -6 11 -36 11 -66z"/>
<path d="M21 404 l0 -183 79 0 c96 0 140 16 179 68 27 36 31 49 31 115 0 67
-4 80 -31 115 -39 52 -83 69 -179 69 l-79 0 0 -184z m180 126 c43 -23 77 -98
67 -149 -15 -80 -64 -118 -152 -118 l-53 0 0 141 0 142 53 0 c29 0 67 -7 85
-16z"/>
<path d="M347 404 l0 -183 99 0 c93 0 100 1 100 21 0 19 -7 21 -79 21 l-80 -1
4 45 3 45 76 3 c67 3 76 5 76 23 0 19 -8 21 -79 21 l-78 0 0 74 0 73 78 0 c72
0 79 2 79 21 0 20 -7 21 -100 21 l-99 0 0 -184z"/>
<path d="M588 404 c0 -175 1 -183 20 -184 18 0 21 9 24 66 l3 66 67 5 c56 5
70 10 92 35 45 52 29 151 -29 181 -17 9 -59 15 -103 15 l-74 0 0 -184z m163
116 c55 -54 16 -121 -70 -121 l-51 0 0 74 0 73 48 0 c36 0 53 -6 73 -26z"/>
<path d="M895 559 c-38 -103 -118 -331 -118 -334 0 -3 11 -4 24 -4 21 0 28 10
45 65 l21 66 68 0 67 0 21 -66 c20 -63 22 -65 55 -65 l35 0 0 68 c0 60 2 68
20 68 12 0 40 -26 71 -68 41 -54 56 -68 80 -68 34 -1 33 3 -27 76 l-41 49 37
35 c44 42 55 78 39 128 -21 61 -53 79 -149 79 l-82 0 -3 -129 -3 -128 -46 128
c-43 123 -47 129 -75 129 -22 0 -31 -7 -39 -29z m332 -34 c54 -51 14 -126 -67
-126 l-47 0 0 74 0 73 45 0 c31 0 53 -7 69 -21z m-264 -63 l23 -63 -52 0 -51
0 23 63 c12 35 25 63 28 63 3 0 16 -28 29 -63z"/>
<path d="M1302 567 c0 -17 7 -21 42 -21 l42 0 0 -163 0 -162 26 0 27 0 0 162
0 163 47 0 c40 0 47 3 47 21 0 20 -7 21 -115 21 -109 0 -116 -1 -116 -21z"/>
<path d="M1554 404 c0 -176 1 -183 21 -183 19 0 21 8 23 136 l3 137 52 -116
c36 -83 56 -116 69 -115 13 0 34 33 72 118 l54 118 0 -139 c0 -132 1 -139 21
-139 20 0 21 6 21 183 l0 184 -29 0 c-27 0 -32 -9 -80 -121 -29 -66 -55 -120
-59 -120 -4 0 -30 54 -59 120 -48 112 -53 121 -80 121 l-29 0 0 -184z"/>
<path d="M1943 404 l0 -183 99 0 c93 0 100 1 100 21 0 19 -7 21 -79 21 l-80
-1 4 45 3 45 76 3 c67 3 76 5 76 23 0 19 -8 21 -79 21 l-78 0 0 74 0 73 78 0
c72 0 79 2 79 21 0 20 -7 21 -100 21 l-99 0 0 -184z"/>
<path d="M2195 404 c0 -176 0 -183 20 -184 20 0 21 9 24 142 l3 141 84 -138
c78 -127 88 -140 119 -143 l33 -3 0 164 0 163 47 0 48 0 0 -163 0 -162 26 0
26 0 0 162 0 163 58 0 c51 0 58 3 58 21 0 20 -7 21 -158 21 l-157 0 -3 -144
-3 -144 -87 144 c-74 121 -92 144 -113 144 l-25 0 0 -184z"/>
<path d="M2804 567 c0 -19 7 -21 89 -21 49 0 89 -2 89 -5 0 -3 -39 -66 -86
-139 -47 -74 -86 -144 -87 -155 0 -20 8 -21 118 -24 113 -3 118 -2 118 18 0
20 -7 22 -89 22 -49 0 -89 2 -89 5 0 3 40 69 90 147 54 84 88 148 84 157 -5
13 -28 16 -122 16 -108 0 -115 -1 -115 -21z"/>
<path d="M3077 404 l0 -183 99 0 c93 0 100 1 100 21 0 19 -7 21 -73 21 l-74 0
0 47 0 47 74 0 c66 0 73 2 73 21 0 19 -7 21 -73 21 l-74 0 0 74 0 73 74 0 c66
0 73 2 73 21 0 20 -7 21 -100 21 l-99 0 0 -184z"/>
</g>
</svg>
