<?xml version="1.0" standalone="no"?>
<!DOCTYPE svg PUBLIC "-//W3C//DTD SVG 1.1//EN" "http://www.w3.org/Graphics/SVG/1.1/DTD/svg11.dtd">
<svg width="100%" height="100%" viewBox="0 0 372 108" version="1.1" xmlns="http://www.w3.org/2000/svg" xmlns:xlink="http://www.w3.org/1999/xlink" xml:space="preserve" style="fill-rule:evenodd;clip-rule:evenodd;stroke-linejoin:round;stroke-miterlimit:1.41421;">
    <g transform="matrix(1,0,0,1,-814.455,-946.5)">
        <g transform="matrix(4.16667,0,0,4.16667,-1197.69,-1815.61)">
            <clipPath id="_clip1">
                <rect x="482.914" y="662.906" width="89.062" height="25.681"/>
            </clipPath>
            <g clip-path="url(#_clip1)">
                <path d="M501.936,672.536C502.769,672.832 503.292,671.835 503.411,671.578C504.022,670.125 503.588,669.711 503.441,669.573L503.413,669.546C503.39,669.523 503.176,669.319 502.865,669.297C502.435,669.266 502.004,669.6 501.621,670.263C501.518,670.44 501.432,670.608 501.36,670.769C501.074,671.427 500.984,672.197 501.936,672.536" style="fill:black;fill-rule:nonzero;"/>
                <path d="M555.754,669.349C554.921,669.053 554.398,670.051 554.279,670.307C553.668,671.76 554.102,672.174 554.249,672.311L554.277,672.339C554.3,672.362 554.514,672.566 554.825,672.588C555.255,672.619 555.686,672.285 556.069,671.622C556.172,671.445 556.258,671.277 556.33,671.116C556.616,670.458 556.706,669.688 555.754,669.349" style="fill:black;fill-rule:nonzero;"/>
                <path d="M531.929,680.94C531.693,681.235 531.511,681.405 531.506,681.41C530.339,682.579 528.694,683.249 526.991,683.249C526.281,683.249 525.563,683.135 524.855,682.91C523.169,682.374 521.823,681.222 521.256,679.83C520.762,678.615 520.879,677.261 521.596,675.913C523.066,673.187 525.93,672.78 527.506,672.78C527.884,672.78 528.262,672.805 528.597,672.851L528.934,672.898L528.644,672.72C526.681,671.514 525.242,669.12 527.093,666.019C528.835,663.131 531.629,662.907 532.443,662.907C532.964,662.907 533.452,662.982 533.857,663.125C534.815,663.461 535.461,664.085 535.726,664.931C536.028,665.898 535.791,667.118 535.123,668.039C534.533,668.835 533.719,669.292 532.89,669.292C532.484,669.292 532.097,669.181 531.769,668.971C531.572,668.848 530.959,668.389 531.32,667.637C531.585,667.083 532.042,666.752 532.542,666.752C532.761,666.752 532.957,666.818 533.075,666.927C533.156,667.028 533.265,667.087 533.374,667.087C533.402,667.087 533.428,667.083 533.442,667.077C533.61,667.049 533.737,666.879 533.8,666.599C533.929,666.053 533.758,665.132 532.977,664.89C532.798,664.833 532.606,664.803 532.406,664.803C531.364,664.803 529.958,665.654 529.166,667.555C528.552,669.077 529.295,670.973 530.895,671.967C531.295,672.205 531.95,672.603 532.003,672.654C532.062,672.718 532.088,672.878 532.074,673.081C532.039,673.6 531.762,674.359 531.238,674.798C531.151,674.863 530.954,674.871 530.782,674.814L529.882,674.463C529.573,674.346 529.187,674.284 528.763,674.284C527.162,674.284 525.174,675.132 524.343,677.026C524.012,677.799 523.994,678.573 524.291,679.265C524.58,679.939 525.159,680.481 525.88,680.752L525.888,680.755C525.916,680.767 526.598,681.054 527.57,681.054C528.565,681.054 529.478,680.758 530.283,680.173C531.366,679.367 531.741,678.59 531.858,678.047C531.884,677.939 531.88,677.856 531.88,677.856C531.862,677.906 531.726,677.976 531.726,677.976C531.643,678.025 531.525,678.062 531.352,678.062C531.352,678.062 530.969,678.062 530.784,677.752C530.784,677.752 530.557,677.382 530.726,676.971C531.03,676.231 531.82,675.915 532.536,676.141C532.968,676.289 533.275,676.676 533.307,677.257C533.307,677.257 533.486,678.849 531.929,680.94" style="fill:black;fill-rule:nonzero;"/>
                <path d="M506.178,663C506.079,662.898 505.9,662.977 505.781,663.05C505.746,663.074 505.706,663.102 505.663,663.131L505.662,663.132C504.754,663.753 502.046,665.432 499.288,665.432C498.489,665.432 497.865,665.283 497.078,665.05L494.456,664.274C492.381,663.593 490.645,663.346 489.983,663.346C489.721,663.346 489.567,663.357 489.566,663.357C487.633,663.532 486.293,664.153 485.643,666.4C485.136,668.151 486.082,669.258 486.512,669.653C486.575,669.707 486.7,669.8 486.822,669.8C486.866,669.8 486.906,669.787 486.942,669.761L486.955,669.748C486.981,669.72 487.042,669.656 486.922,669.428L486.838,669.257C486.677,668.838 486.642,668.1 486.938,667.455C487.311,666.643 488.009,666.159 489.014,666.015C489.793,665.886 490.798,665.947 491.938,666.196L493.022,666.433C494.153,666.68 494.734,666.806 495.091,666.877C495.091,666.877 495.774,667.022 496.47,667.08C495.35,667.753 494.648,668.695 494.648,668.695L494.65,668.695C492.957,670.756 492.182,673.193 492.169,673.229L492.138,673.31L492.065,673.265C491.862,673.14 491.408,673.021 491.357,673.008C491.025,672.931 490.688,672.889 490.407,672.889C490.327,672.889 490.245,672.891 490.16,672.894C488.29,672.894 487.495,674.405 487.155,675.051C487.124,675.109 487.098,675.159 487.074,675.202C486.957,675.412 486.987,675.542 487.035,675.579C487.054,675.596 487.066,675.601 487.082,675.601C487.142,675.601 487.218,675.555 487.287,675.479C487.567,675.172 488.04,674.923 488.551,674.814C488.82,674.737 489.089,674.697 489.344,674.697C490.466,674.697 491.004,675.44 491.026,675.472L491.046,675.5L491.036,675.533C491.029,675.559 490.268,678.063 488.505,680.412C487.202,682.036 486.073,682.434 485.324,682.466C485.315,682.467 485.307,682.468 485.297,682.468C485.289,682.468 485.281,682.468 485.273,682.468C485.255,682.468 485.237,682.469 485.22,682.469C485.193,682.469 485.168,682.468 485.142,682.467C484.52,682.454 484.142,682.238 483.921,682.024C483.889,681.995 483.859,681.962 483.831,681.929C483.814,681.909 483.798,681.89 483.784,681.871C483.768,681.849 483.751,681.828 483.737,681.804C483.663,681.692 483.636,681.611 483.636,681.611L483.638,681.61C483.567,681.434 483.528,681.23 483.522,680.997C483.522,680.992 483.521,680.988 483.52,680.981C483.503,680.744 483.365,680.772 483.365,680.772C483.25,680.787 483.117,680.849 483.036,681.177C482.94,681.561 482.76,682.545 483.183,683.385C483.209,683.435 483.828,684.61 485.584,684.61C486.183,684.61 486.851,684.47 487.569,684.194C490.724,682.985 492.167,679.685 493.123,677.503C493.187,677.356 493.248,677.216 493.307,677.082L493.331,677.029L493.442,677.052C493.48,677.059 493.516,677.067 493.552,677.074C493.658,677.098 493.76,677.12 493.903,677.138C494.118,677.164 494.333,677.176 494.539,677.176C497.949,677.176 499.028,673.689 499.038,673.654C499.097,673.476 499.083,673.34 499,673.278C498.929,673.224 498.776,673.249 498.675,673.332C498.619,673.368 498.567,673.404 498.505,673.447C498.101,673.727 497.168,674.373 495.747,674.477L495.746,674.479L495.689,674.481C495.57,674.488 495.46,674.492 495.355,674.492C495.197,674.492 495.023,674.483 494.823,674.465C494.626,674.453 494.469,674.433 494.36,674.408L494.277,674.388L494.311,674.31C494.42,674.059 496.58,668.841 499.204,667.676L499.227,667.663C499.234,667.659 499.295,667.636 499.408,667.594C499.74,667.473 500.438,667.227 501.487,666.914C501.908,666.771 502.3,666.59 502.665,666.417C504.534,665.528 505.456,664.333 505.951,663.691L506.02,663.602C506.374,663.15 506.178,663 506.178,663" style="fill:black;fill-rule:nonzero;"/>
                <path d="M571.8,678.068C571.628,677.987 571.416,678.257 571.359,678.354C570.014,680.137 568.74,680.602 568.686,680.621L568.679,680.624C568.291,680.803 567.905,680.894 567.53,680.894C567.326,680.894 567.129,680.867 566.945,680.812C566.506,680.684 566.277,680.252 566.316,679.626L566.32,679.575L566.369,679.561C567.9,679.142 570.996,677.071 571.21,674.769C571.238,674.372 571.143,674.052 570.929,673.822C570.671,673.547 570.252,673.407 569.682,673.407C567.877,673.429 565.65,675.095 564.387,677.369C564.191,677.731 564.022,678.131 563.899,678.524C563.843,678.656 563.782,678.782 563.717,678.903C563.104,679.826 562.525,680.294 561.993,680.294C561.905,680.294 561.818,680.281 561.734,680.254C561.639,680.224 561.579,680.171 561.543,680.089C561.358,679.668 561.82,678.652 562.267,677.671C562.634,676.865 562.979,676.108 563.046,675.553C563.129,674.924 562.999,674.372 562.679,673.999C562.405,673.679 562.014,673.504 561.55,673.494C561.515,673.492 561.481,673.491 561.448,673.491C560.716,673.491 560.09,673.837 559.694,674.128L559.479,674.285L559.617,673.972C559.656,673.882 559.647,673.782 559.592,673.7C559.531,673.605 559.41,673.537 559.305,673.537L558.08,673.537C557.848,673.537 557.704,673.625 557.639,673.807L555.736,677.932C555.359,678.644 554.385,680.292 553.466,680.292C553.352,680.292 553.248,680.267 553.137,680.214C553.07,680.185 553.019,680.129 552.987,680.048C552.934,679.911 552.891,679.576 553.206,678.879L555.446,673.903C555.481,673.815 555.515,673.712 555.455,673.624C555.416,673.566 555.351,673.537 555.262,673.537L553.477,673.537C553.323,673.537 553.201,673.643 553.153,673.741L553.129,673.79L553.122,673.789L550.986,678.316C550.79,678.664 550.608,678.953 550.426,679.204C549.693,680.22 548.736,680.592 548.036,680.864L547.867,680.938L547.938,680.772L550.907,673.904C550.943,673.816 550.977,673.713 550.917,673.624C550.877,673.566 550.812,673.537 550.723,673.537L549.196,673.537C549.087,673.537 548.979,673.592 548.909,673.684L548.862,673.745L548.805,673.693C548.599,673.506 548.281,673.407 547.886,673.407L547.854,673.407C545.936,673.407 543.828,675.487 542.737,677.542C542.452,678.085 542.199,678.746 542.044,679.354C541.604,680.486 540.396,680.254 540.396,680.254C540.301,680.224 540.241,680.171 540.205,680.089C540.019,679.668 540.482,678.652 540.93,677.67C541.297,676.863 541.641,676.106 541.708,675.553C541.792,674.924 541.66,674.373 541.34,673.999C541.066,673.679 540.676,673.504 540.212,673.494C540.177,673.492 540.143,673.491 540.11,673.491C539.378,673.491 538.752,673.837 538.355,674.128L538.142,674.284L538.278,673.972C538.318,673.882 538.309,673.782 538.254,673.699C538.192,673.605 538.071,673.537 537.967,673.537L536.741,673.537C536.509,673.537 536.365,673.625 536.3,673.807L532.584,681.865C532.53,681.974 532.525,682.067 532.569,682.139C532.613,682.21 532.693,682.247 532.805,682.247L534.504,682.247C534.741,682.247 534.823,682.157 534.899,681.98L536.685,678.128L537.704,676.069C537.704,676.069 538.069,675.262 538.603,675.223C538.603,675.223 539.532,674.961 539.18,676.245C538.919,677.199 538.035,678.828 538.035,678.828L537.917,679.071C537.394,680.13 537.528,680.875 537.732,681.313C537.933,681.743 538.298,682.071 538.753,682.24C538.753,682.24 539.483,682.569 540.48,682.333C540.48,682.333 541.627,682.053 541.981,681.243C541.981,681.243 542.821,683.094 545.495,681.292L545.164,681.936L545.141,681.947C544.976,682.023 544.749,682.116 544.487,682.223C543.211,682.742 540.487,684.516 539.824,685.769C539.467,686.473 539.417,687.146 539.685,687.666C539.93,688.141 540.426,688.457 541.08,688.556C541.22,688.577 541.37,688.588 541.527,688.588C542.75,688.588 544.308,688.068 545.067,686.504L546.941,682.895L546.974,682.886C548.415,682.522 549.542,682.035 550.418,681.398L550.484,681.35C550.484,681.35 550.805,682.43 552.131,682.389C552.131,682.389 553.457,682.378 554.16,681.444L553.911,681.992C553.911,681.992 553.821,682.165 553.93,682.223C553.994,682.256 554.067,682.247 554.143,682.247L555.842,682.247C556.08,682.247 556.162,682.157 556.237,681.98L558.024,678.128C558.389,677.333 558.683,676.831 559.107,676.279C559.577,675.652 560.004,675.306 560.309,675.306C560.356,675.306 560.399,675.314 560.449,675.335C560.498,675.353 560.527,675.405 560.543,675.446C560.653,675.716 560.563,676.392 560.179,677.159L559.256,679.071C558.733,680.131 558.866,680.875 559.071,681.313C559.099,681.373 559.13,681.431 559.165,681.487L559.159,681.49C559.216,681.578 559.287,681.671 559.375,681.761C559.618,682.025 559.939,682.217 560.31,682.307C560.436,682.337 560.568,682.357 560.704,682.369C560.834,682.386 560.973,682.395 561.122,682.397L561.152,682.397C561.707,682.397 562.279,682.22 562.842,681.88C563.171,681.704 563.519,681.468 563.868,681.149L563.881,681.169C563.891,681.183 564.944,682.649 566.788,682.649L566.789,682.649C566.869,682.649 566.951,682.646 567.033,682.641C567.765,682.59 568.12,682.462 568.763,682.229L568.791,682.219C571.165,681.158 571.886,678.717 571.916,678.613C572.012,678.278 572.008,678.166 571.8,678.068M566.772,677.989C566.829,677.873 566.89,677.758 566.96,677.636C567.833,675.954 569.175,674.647 569.745,674.647C569.76,674.647 569.775,674.648 569.797,674.651C569.893,674.665 569.925,674.705 569.941,674.735C569.999,674.839 569.963,675.055 569.846,675.314C569.257,676.67 567.728,677.631 566.869,678.083L566.676,678.185L566.772,677.989ZM541.629,686.939C541.372,686.939 541.172,686.864 541.083,686.731C541.001,686.611 541.004,686.436 541.092,686.211C541.248,685.774 542.801,684.298 544.164,683.828L544.327,683.771C543.818,685.063 543.305,685.758 542.9,686.265C542.641,686.579 542.443,686.738 542.145,686.843C541.944,686.931 541.629,686.939 541.629,686.939M546.35,679.049C546.004,679.758 545.401,680.009 544.989,680.009C544.899,680.009 544.814,679.997 544.738,679.975C544.606,679.933 544.509,679.842 544.451,679.704C544.258,679.252 544.454,678.381 544.988,677.313C545.926,675.393 547.221,674.696 547.863,674.696C547.978,674.696 548.062,674.732 548.108,674.802C548.177,674.908 548.163,675.093 548.069,675.309L546.35,679.049Z" style="fill:black;fill-rule:nonzero;"/>
                <path d="M518.162,678.027C517.99,677.946 517.778,678.216 517.72,678.313C516.376,680.096 515.102,680.561 515.048,680.58L515.041,680.583C514.653,680.762 514.267,680.853 513.892,680.853C513.688,680.853 513.491,680.825 513.307,680.771C512.868,680.643 512.639,680.21 512.678,679.585L512.682,679.534L512.731,679.52C514.262,679.101 517.358,677.029 517.572,674.728C517.6,674.331 517.505,674.011 517.291,673.781C517.033,673.506 516.614,673.366 516.044,673.366C514.239,673.387 512.012,675.054 510.749,677.328C510.553,677.69 510.384,678.089 510.261,678.483C509.8,679.571 508.998,680.298 508.262,680.298C508.192,680.298 508.121,680.29 508.049,680.274C507.946,680.252 507.875,680.201 507.832,680.117C507.684,679.824 507.838,679.17 508.289,678.173L510.137,674.177C510.217,674.017 510.218,673.835 510.142,673.712C510.08,673.612 509.98,673.56 509.851,673.56L508.458,673.56C508.159,673.56 508.09,673.585 507.948,673.684L507.764,673.822C507.593,673.966 507.491,674.017 507.486,674.019C507.444,674.044 507.381,674.058 507.304,674.058C507.288,674.058 507.271,674.057 507.253,674.055C506.982,674.027 506.752,673.835 506.661,673.578C506.46,673.011 505.91,672.61 505.269,672.636C504.545,672.665 503.945,673.262 503.912,673.985C503.908,674.055 503.91,674.124 503.917,674.192C503.965,674.666 503.908,675.147 503.801,675.612C503.779,675.708 503.764,675.772 503.756,675.788L503.746,675.809C503.621,676.095 503.57,676.2 503.454,676.43C503.088,677.187 502.789,677.751 502.591,678.124L502.577,678.15C502.443,678.401 502.372,678.536 502.339,678.616C502.318,678.652 502.306,678.679 502.296,678.714L502.288,678.732C501.826,679.444 501.139,680.294 500.484,680.294C500.37,680.294 500.266,680.269 500.155,680.216C500.088,680.187 500.036,680.131 500.005,680.05C499.952,679.912 499.909,679.578 500.224,678.881L502.464,673.905C502.491,673.838 502.538,673.721 502.473,673.626C502.434,673.567 502.369,673.538 502.28,673.538L500.494,673.538C500.341,673.538 500.219,673.645 500.171,673.743L500.147,673.792L500.14,673.791L497.647,679.075C497.209,679.994 497.191,680.889 497.596,681.53C497.945,682.083 498.584,682.4 499.351,682.4C499.39,682.4 499.428,682.4 499.466,682.398C501.901,682.312 503.297,680.194 503.912,678.94C504.175,678.458 504.445,677.93 504.652,677.489C504.973,676.847 505.34,676.007 505.343,676C505.533,675.573 505.928,675.401 506.148,675.337C506.266,675.3 506.39,675.28 506.507,675.28C506.693,675.28 506.85,675.329 506.949,675.418C507.043,675.502 507.021,675.688 506.876,676.04L505.519,678.991C505.111,679.888 505.112,680.806 505.521,681.449C505.781,681.856 506.332,682.344 507.484,682.356L507.514,682.356C508.38,682.356 509.287,681.927 510.136,681.117L510.195,681.06L510.243,681.127C510.253,681.142 511.306,682.608 513.151,682.608C513.231,682.608 513.312,682.605 513.395,682.599C514.127,682.549 514.482,682.421 515.125,682.188L515.153,682.178C517.527,681.116 518.248,678.675 518.278,678.572C518.374,678.237 518.37,678.124 518.162,678.027M513.134,677.948C513.191,677.832 513.252,677.717 513.322,677.595C514.195,675.913 515.537,674.606 516.107,674.606C516.122,674.606 516.137,674.607 516.159,674.61C516.255,674.623 516.287,674.664 516.303,674.694C516.361,674.798 516.325,675.014 516.208,675.273C515.619,676.629 514.09,677.59 513.231,678.042L513.039,678.143L513.134,677.948Z" style="fill:black;fill-rule:nonzero;"/>
            </g>
        </g>
    </g>
</svg>
