<?xml version="1.0" standalone="no"?>
<!DOCTYPE svg PUBLIC "-//W3C//DTD SVG 1.1//EN" "http://www.w3.org/Graphics/SVG/1.1/DTD/svg11.dtd">
<svg width="100%" height="100%" viewBox="0 0 1420 600" version="1.1" xmlns="http://www.w3.org/2000/svg" xmlns:xlink="http://www.w3.org/1999/xlink" xml:space="preserve" style="fill-rule:evenodd;clip-rule:evenodd;stroke-linejoin:round;stroke-miterlimit:1.41421;">
    <g transform="matrix(1,0,0,1,-190.039,-107.436)">
        <g transform="matrix(4.16667,0,0,4.16667,0,0)">
            <path d="M377.953,25.785L363.976,25.785L215.936,32.798L64.166,25.785L53.918,25.785C53.918,25.785 45.61,25.785 45.61,34.094L45.61,126.536L386.262,126.536L386.262,34.094C386.262,34.094 386.262,25.785 377.953,25.785" style="fill:rgb(50,45,47);fill-rule:nonzero;"/>
        </g>
        <g transform="matrix(4.16667,0,0,4.16667,0,0)">
            <path d="M45.609,131.019L45.609,161.405C45.609,169.715 53.921,169.715 53.921,169.715L64.169,169.715L215.936,162.702L364.099,169.715L378.078,169.715C386.39,169.715 386.39,161.405 386.39,161.405L386.39,131.019L45.609,131.019Z" style="fill:rgb(50,45,47);fill-rule:nonzero;"/>
        </g>
        <g transform="matrix(4.16667,0,0,4.16667,0,0)">
            <path d="M68.933,152.203L66.349,152.203L66.349,146.871C66.349,146.607 66.287,146.414 66.164,146.283C65.907,146.012 65.231,146.027 64.451,146.39C64.245,146.486 64.049,146.594 63.869,146.713C63.726,146.805 63.588,146.908 63.458,147.019L63.458,150.818L64.563,150.818L64.563,152.203L61.95,152.203L61.95,146.248L60.718,146.248L60.718,144.865L63.458,144.865L63.458,145.381C63.678,145.244 63.912,145.121 64.159,145.012C64.638,144.795 65.147,144.685 65.67,144.685C66.301,144.685 66.829,144.877 67.242,145.256C67.652,145.642 67.858,146.158 67.858,146.787L67.858,150.818L68.933,150.818L68.933,152.203Z" style="fill:rgb(246,209,45);fill-rule:nonzero;"/>
        </g>
        <g transform="matrix(4.16667,0,0,4.16667,0,0)">
            <path d="M75.041,146.096C74.377,146.096 73.852,146.319 73.434,146.774C73.007,147.237 72.801,147.815 72.801,148.541C72.801,149.268 73.007,149.844 73.434,150.307C73.852,150.764 74.377,150.987 75.041,150.987C75.704,150.987 76.23,150.764 76.649,150.309C77.074,149.844 77.281,149.266 77.281,148.541C77.281,147.815 77.074,147.239 76.649,146.774C76.23,146.319 75.704,146.096 75.041,146.096M75.041,152.399C73.966,152.399 73.062,152.018 72.353,151.272C71.642,150.549 71.277,149.629 71.277,148.541C71.277,147.451 71.642,146.534 72.357,145.807C73.062,145.065 73.966,144.684 75.041,144.684C76.116,144.684 77.02,145.065 77.729,145.811C78.441,146.534 78.806,147.451 78.806,148.541C78.806,149.629 78.441,150.549 77.726,151.276C77.02,152.018 76.116,152.399 75.041,152.399" style="fill:rgb(246,209,45);fill-rule:nonzero;"/>
        </g>
        <g transform="matrix(4.16667,0,0,4.16667,0,0)">
            <path d="M83.96,152.356L83.939,152.356C83.418,152.356 83.012,152.211 82.731,151.928C82.585,151.776 82.48,151.594 82.415,151.389C82.355,151.198 82.324,150.979 82.324,150.739L82.324,146.249L81.121,146.249L81.121,144.866L82.324,144.866L82.324,143.394L83.834,143.373L83.834,144.866L85.252,144.866L85.252,146.249L83.834,146.249L83.834,150.6C83.834,150.844 83.882,150.911 83.887,150.917C83.909,150.934 83.992,150.944 84.053,150.944L85.252,150.762L85.252,152.149L83.96,152.356Z" style="fill:rgb(246,209,45);fill-rule:nonzero;"/>
        </g>
        <g transform="matrix(4.16667,0,0,4.16667,0,0)">
            <path d="M91.061,148.863C90.558,148.863 90.168,148.982 89.906,149.215C89.659,149.439 89.538,149.705 89.538,150.029C89.538,150.265 89.634,150.484 89.835,150.693C90.189,151.062 90.935,151.103 91.73,150.707C92.065,150.545 92.347,150.351 92.57,150.129L92.57,149.283C92.369,149.177 92.157,149.088 91.939,149.017C91.655,148.914 91.362,148.863 91.061,148.863M90.501,152.299C89.792,152.299 89.196,152.068 88.726,151.613C88.252,151.154 88.014,150.603 88.014,149.974C88.014,149.283 88.29,148.695 88.836,148.226C89.365,147.785 90.069,147.564 90.932,147.564C91.236,147.564 91.583,147.607 91.965,147.695C92.133,147.736 92.297,147.789 92.461,147.853C92.498,147.867 92.534,147.883 92.57,147.896L92.57,146.927C92.57,146.578 92.465,146.343 92.251,146.207C91.989,146.041 91.619,145.957 91.147,145.957C91.019,145.957 90.876,145.97 90.723,146C90.558,146.031 90.4,146.068 90.248,146.107C90.1,146.146 89.972,146.185 89.864,146.224C89.744,146.269 89.668,146.295 89.64,146.304L89.404,146.383L88.949,145.279L89.197,145.177C89.456,145.072 89.684,144.988 89.882,144.931C90.078,144.875 90.285,144.82 90.503,144.767C90.739,144.713 90.964,144.683 91.175,144.683C92.08,144.683 92.788,144.865 93.281,145.222C93.81,145.597 94.08,146.17 94.08,146.927L94.08,150.818L95.21,150.818L95.21,152.203L92.57,152.203L92.57,151.642C92.346,151.783 92.118,151.9 91.89,151.988C91.417,152.193 90.948,152.299 90.501,152.299" style="fill:rgb(246,209,45);fill-rule:nonzero;"/>
        </g>
        <g transform="matrix(4.16667,0,0,4.16667,0,0)">
            <path d="M102.279,146.039C101.64,146.039 101.114,146.264 100.666,146.725C100.215,147.185 99.996,147.758 99.996,148.471C99.996,149.258 100.209,149.85 100.647,150.283C101.088,150.728 101.612,150.943 102.251,150.943C102.932,150.943 103.467,150.723 103.886,150.266C104.312,149.787 104.519,149.189 104.519,148.443C104.519,147.736 104.313,147.168 103.886,146.703C103.462,146.26 102.933,146.039 102.279,146.039M102.193,152.301C101.688,152.301 101.181,152.184 100.691,151.955C100.453,151.84 100.225,151.687 100.009,151.5L100.009,152.203L98.501,152.203L98.501,143.383L97.269,143.383L97.269,141.999L100.009,141.999L100.009,145.525C100.217,145.34 100.445,145.187 100.689,145.072C101.217,144.814 101.749,144.684 102.264,144.684C103.355,144.684 104.265,145.037 104.973,145.734C105.683,146.443 106.043,147.346 106.043,148.416C106.043,149.551 105.684,150.492 104.978,151.217C104.247,151.937 103.312,152.301 102.193,152.301" style="fill:rgb(246,209,45);fill-rule:nonzero;"/>
        </g>
        <g transform="matrix(4.16667,0,0,4.16667,0,0)">
            <path d="M111.786,152.203L109.058,152.203L109.058,143.382L107.827,143.382L107.827,141.998L110.567,141.998L110.567,150.818L111.786,150.818L111.786,152.203Z" style="fill:rgb(246,209,45);fill-rule:nonzero;"/>
        </g>
        <g transform="matrix(4.16667,0,0,4.16667,0,0)">
            <path d="M117.447,155.152L115.98,155.152L117.25,151.65L114.98,146.248L113.729,146.248L113.729,144.865L115.988,144.865L116.311,145.734L118.012,149.748L119.366,146.248L118.472,146.248L118.472,144.865L122.059,144.865L122.059,146.248L120.915,146.248L117.447,155.152Z" style="fill:rgb(246,209,45);fill-rule:nonzero;"/>
        </g>
        <g transform="matrix(4.16667,0,0,4.16667,0,0)">
            <path d="M133.121,146.039C132.486,146.039 131.966,146.271 131.527,146.746C131.095,147.234 130.882,147.822 130.882,148.541C130.882,149.219 131.098,149.783 131.541,150.266C131.984,150.721 132.513,150.943 133.15,150.943C133.823,150.943 134.353,150.723 134.772,150.266C135.198,149.803 135.404,149.225 135.404,148.498C135.404,147.785 135.185,147.209 134.733,146.736C134.293,146.268 133.767,146.039 133.121,146.039M133.15,152.301C132.086,152.301 131.188,151.935 130.48,151.219C129.773,150.502 129.415,149.602 129.415,148.541C129.415,147.435 129.768,146.512 130.466,145.795C131.161,145.059 132.052,144.684 133.107,144.684C133.661,144.684 134.201,144.81 134.714,145.059C134.95,145.18 135.177,145.34 135.391,145.537L135.391,141.999L136.899,141.999L136.899,150.818L138.133,150.818L138.133,152.203L135.391,152.203L135.391,151.512C135.187,151.685 134.972,151.828 134.743,151.939C134.249,152.18 133.713,152.301 133.15,152.301" style="fill:rgb(246,209,45);fill-rule:nonzero;"/>
        </g>
        <g transform="matrix(4.16667,0,0,4.16667,0,0)">
            <path d="M141.991,147.69L146.353,147.69C146.227,147.26 146.014,146.909 145.706,146.624C145.31,146.239 144.804,146.055 144.154,146.055C143.49,146.055 142.953,146.282 142.515,146.749C142.363,146.913 142.236,147.102 142.139,147.307C142.082,147.426 142.033,147.555 141.991,147.69M144.255,152.397C143.145,152.397 142.209,152.03 141.473,151.305C140.744,150.569 140.376,149.639 140.376,148.542C140.376,147.434 140.739,146.506 141.456,145.78C142.174,145.053 143.1,144.684 144.212,144.684C145.304,144.684 146.204,145.049 146.886,145.77C147.222,146.118 147.488,146.549 147.673,147.051C147.853,147.544 147.959,148.131 147.989,148.794L148.001,149.073L141.922,149.073C142.012,149.583 142.228,149.999 142.578,150.338C143.052,150.823 143.636,151.055 144.369,151.055C144.484,151.055 144.63,151.036 144.799,150.999C144.983,150.96 145.162,150.913 145.337,150.86C145.512,150.805 145.667,150.753 145.803,150.704C145.908,150.665 145.976,150.639 146.008,150.622L146.296,150.467L146.705,151.766L146.468,151.854C146.155,151.967 145.89,152.057 145.672,152.122C145.451,152.188 145.214,152.251 144.958,152.309C144.691,152.368 144.454,152.397 144.255,152.397" style="fill:rgb(246,209,45);fill-rule:nonzero;"/>
        </g>
        <g transform="matrix(4.16667,0,0,4.16667,0,0)">
            <path d="M153.794,152.203L151.066,152.203L151.066,143.382L149.835,143.382L149.835,141.998L152.575,141.998L152.575,150.818L153.794,150.818L153.794,152.203Z" style="fill:rgb(246,209,45);fill-rule:nonzero;"/>
        </g>
        <g transform="matrix(4.16667,0,0,4.16667,0,0)">
            <path d="M157.624,143.731C157.388,143.731 157.164,143.643 156.963,143.471C156.759,143.25 156.668,143.031 156.668,142.795C156.668,142.552 156.759,142.329 156.938,142.129C157.394,141.736 157.88,141.762 158.285,142.105C158.489,142.329 158.58,142.547 158.58,142.782C158.58,143.026 158.489,143.25 158.311,143.448C158.084,143.643 157.861,143.731 157.624,143.731M159.74,152.203L157.084,152.203L157.07,146.248L155.881,146.248L155.881,144.865L158.58,144.865L158.58,150.818L159.74,150.818L159.74,152.203Z" style="fill:rgb(246,209,45);fill-rule:nonzero;"/>
        </g>
        <g transform="matrix(4.16667,0,0,4.16667,0,0)">
            <path d="M165.82,152.397C164.716,152.397 163.806,152.028 163.118,151.297C162.432,150.594 162.085,149.667 162.085,148.542C162.085,147.456 162.431,146.538 163.118,145.811C163.804,145.065 164.686,144.684 165.734,144.684C166.259,144.684 166.744,144.793 167.172,145.004C167.337,145.083 167.49,145.176 167.63,145.284L168.896,145.284L168.896,148.127L167.528,148.127L167.515,147.874C167.498,147.516 167.443,147.227 167.35,147.012C167.262,146.807 167.138,146.643 166.971,146.51C166.609,146.233 166.203,146.096 165.734,146.096C165.093,146.096 164.597,146.311 164.216,146.754C163.806,147.221 163.609,147.803 163.609,148.542C163.609,149.293 163.811,149.881 164.225,150.336C164.633,150.772 165.16,150.987 165.834,150.987C166.324,150.987 166.72,150.868 167.049,150.622C167.209,150.501 167.356,150.35 167.483,150.182C167.613,150.01 167.737,149.792 167.854,149.532L167.962,149.29L169.246,149.846L169.149,150.088C168.987,150.491 168.796,150.833 168.58,151.106C168.364,151.381 168.109,151.622 167.821,151.821C167.216,152.206 166.547,152.397 165.82,152.397" style="fill:rgb(246,209,45);fill-rule:nonzero;"/>
        </g>
        <g transform="matrix(4.16667,0,0,4.16667,0,0)">
            <path d="M173.744,143.731C173.508,143.731 173.285,143.643 173.083,143.471C172.879,143.25 172.788,143.031 172.788,142.795C172.788,142.552 172.879,142.329 173.058,142.129C173.514,141.736 174,141.762 174.405,142.105C174.609,142.329 174.7,142.547 174.7,142.782C174.7,143.026 174.609,143.25 174.431,143.448C174.204,143.643 173.981,143.731 173.744,143.731M175.86,152.203L173.204,152.203L173.19,146.248L172.001,146.248L172.001,144.865L174.7,144.865L174.7,150.818L175.86,150.818L175.86,152.203Z" style="fill:rgb(246,209,45);fill-rule:nonzero;"/>
        </g>
        <g transform="matrix(4.16667,0,0,4.16667,0,0)">
            <path d="M181.912,146.096C181.248,146.096 180.722,146.319 180.304,146.774C179.878,147.237 179.672,147.815 179.672,148.541C179.672,149.268 179.878,149.844 180.303,150.307C180.722,150.764 181.248,150.987 181.912,150.987C182.575,150.987 183.1,150.764 183.519,150.309C183.945,149.844 184.151,149.266 184.151,148.541C184.151,147.815 183.945,147.239 183.519,146.774C183.1,146.319 182.575,146.096 181.912,146.096M181.912,152.399C180.837,152.399 179.933,152.018 179.224,151.272C178.512,150.549 178.147,149.629 178.147,148.541C178.147,147.451 178.512,146.534 179.227,145.807C179.933,145.065 180.837,144.684 181.912,144.684C182.987,144.684 183.891,145.065 184.6,145.811C185.311,146.534 185.676,147.451 185.676,148.541C185.676,149.629 185.311,150.549 184.596,151.276C183.891,152.018 182.987,152.399 181.912,152.399" style="fill:rgb(246,209,45);fill-rule:nonzero;"/>
        </g>
        <g transform="matrix(4.16667,0,0,4.16667,0,0)">
            <path d="M191.328,152.299C190.685,152.299 190.17,152.115 189.795,151.752C189.409,151.389 189.212,150.893 189.212,150.279L189.212,146.248L188.023,146.248L188.023,144.865L190.723,144.865L190.723,150.154C190.723,150.406 190.779,150.584 190.898,150.699C191.214,151.006 191.902,150.93 192.599,150.582C192.805,150.479 192.995,150.363 193.164,150.242C193.306,150.143 193.439,150.035 193.568,149.924L193.568,144.865L195.077,144.865L195.077,150.819L196.252,150.819L196.252,152.203L193.568,152.203L193.568,151.641C193.542,151.656 193.516,151.67 193.49,151.688C193.314,151.789 193.126,151.885 192.927,151.973C192.436,152.19 191.898,152.299 191.328,152.299" style="fill:rgb(246,209,45);fill-rule:nonzero;"/>
        </g>
        <g transform="matrix(4.16667,0,0,4.16667,0,0)">
            <path d="M202.533,152.41C202.069,152.41 201.625,152.324 201.213,152.154C201.076,152.092 200.946,152.017 200.824,151.933L200.824,152.203L199.4,152.203L199.4,149.164L200.816,149.164L200.824,149.424C200.832,149.734 200.876,149.994 200.955,150.195C201.03,150.387 201.142,150.543 201.299,150.672C201.637,150.959 202.062,151.097 202.604,151.097C203.012,151.097 203.361,150.994 203.672,150.781C203.933,150.599 204.055,150.392 204.055,150.127C204.055,149.767 203.911,149.629 203.803,149.555C203.653,149.445 203.299,149.291 202.416,149.139C201.536,148.99 200.904,148.769 200.484,148.465C200.014,148.15 199.771,147.627 199.771,146.914C199.771,146.217 200.029,145.664 200.535,145.269C201.03,144.881 201.62,144.683 202.289,144.683C202.664,144.683 203.018,144.746 203.344,144.867C203.497,144.926 203.643,145 203.785,145.088L203.785,145.058L205.179,145.058L205.179,147.695L203.794,147.695L203.785,147.437C203.776,147.193 203.736,146.988 203.664,146.826C203.593,146.664 203.492,146.525 203.356,146.4C203.068,146.16 202.72,146.041 202.304,146.041C201.938,146.041 201.664,146.127 201.488,146.299C201.3,146.472 201.21,146.664 201.21,146.885C201.21,147.189 201.327,147.299 201.415,147.353C201.558,147.455 201.89,147.594 202.707,147.734C203.234,147.83 203.681,147.939 204.04,148.064C204.426,148.201 204.706,148.357 204.896,148.543C205.284,148.908 205.479,149.418 205.479,150.056C205.479,150.771 205.195,151.355 204.633,151.799C204.107,152.205 203.402,152.41 202.533,152.41" style="fill:rgb(246,209,45);fill-rule:nonzero;"/>
        </g>
        <g transform="matrix(4.16667,0,0,4.16667,0,0)">
            <path d="M217.993,152.311L214.682,152.311L214.682,150.711L216.092,150.711L216.092,143.49L214.682,143.49L214.682,141.892L223.96,141.892L223.96,145.171L222.233,145.171L222.233,143.49L217.993,143.49L217.993,146.165L221.992,146.165L221.992,147.776L217.993,147.761L217.993,152.311Z" style="fill:rgb(116,194,227);fill-rule:nonzero;"/>
        </g>
        <g transform="matrix(4.16667,0,0,4.16667,0,0)">
            <path d="M235.519,143.393C234.314,143.393 233.357,143.738 232.589,144.448C231.818,145.143 231.446,146.008 231.446,147.094C231.446,148.18 231.818,149.045 232.586,149.736C233.357,150.451 234.314,150.795 235.519,150.795C236.734,150.795 237.697,150.451 238.464,149.74C239.222,149.047 239.591,148.18 239.591,147.094C239.591,146.014 239.222,145.15 238.464,144.448C237.697,143.738 236.732,143.393 235.519,143.393M235.519,152.449C233.822,152.449 232.387,151.939 231.255,150.935C230.119,149.918 229.544,148.625 229.544,147.094C229.544,145.562 230.119,144.27 231.253,143.253C232.386,142.248 233.82,141.74 235.519,141.74C237.205,141.74 238.638,142.247 239.781,143.251C240.917,144.269 241.492,145.56 241.492,147.094C241.492,148.627 240.917,149.918 239.785,150.935C238.638,151.939 237.203,152.449 235.519,152.449" style="fill:rgb(116,194,227);fill-rule:nonzero;"/>
        </g>
        <g transform="matrix(4.16667,0,0,4.16667,0,0)">
            <path d="M254.029,143.393C252.826,143.393 251.867,143.738 251.099,144.448C250.33,145.143 249.957,146.008 249.957,147.094C249.957,148.18 250.33,149.045 251.097,149.736C251.867,150.451 252.826,150.795 254.029,150.795C255.244,150.795 256.207,150.451 256.974,149.74C257.734,149.047 258.101,148.18 258.101,147.094C258.101,146.014 257.734,145.15 256.974,144.448C256.207,143.738 255.244,143.393 254.029,143.393M254.029,152.449C252.332,152.449 250.898,151.939 249.765,150.935C248.631,149.918 248.054,148.625 248.054,147.094C248.054,145.562 248.631,144.27 249.763,143.253C250.896,142.248 252.332,141.74 254.029,141.74C255.715,141.74 257.15,142.247 258.293,143.251C259.427,144.269 260.004,145.56 260.004,147.094C260.004,148.627 259.427,149.918 258.295,150.935C257.148,151.939 255.715,152.449 254.029,152.449" style="fill:rgb(116,194,227);fill-rule:nonzero;"/>
        </g>
        <g transform="matrix(4.16667,0,0,4.16667,0,0)">
            <path d="M268.738,150.711L270.603,150.711C272.049,150.711 273.135,150.406 273.83,149.803C274.539,149.199 274.883,148.32 274.883,147.107C274.883,145.934 274.529,145.063 273.801,144.444C273.052,143.811 271.967,143.49 270.57,143.49L268.738,143.49L268.738,150.711ZM270.474,152.311L266.836,152.311L266.836,143.49L265.332,143.49L265.332,141.892L270.49,141.892C272.56,141.892 274.146,142.374 275.205,143.323C276.256,144.298 276.785,145.57 276.785,147.107C276.785,148.479 276.31,149.695 275.375,150.727C274.422,151.777 272.771,152.311 270.474,152.311" style="fill:rgb(116,194,227);fill-rule:nonzero;"/>
        </g>
        <g transform="matrix(4.16667,0,0,4.16667,0,0)">
            <path d="M289.305,151.363L287.746,151.363L287.746,147.66L284.075,147.66L284.075,146.101L287.746,146.101L287.746,142.444L289.305,142.444L289.305,146.101L292.979,146.101L292.979,147.66L289.305,147.66L289.305,151.363Z" style="fill:rgb(246,209,45);fill-rule:nonzero;"/>
        </g>
        <g transform="matrix(4.16667,0,0,4.16667,0,0)">
            <path d="M302.484,150.711L304.349,150.711C305.794,150.711 306.88,150.406 307.576,149.803C308.285,149.199 308.629,148.32 308.629,147.107C308.629,145.934 308.275,145.063 307.547,144.444C306.798,143.811 305.713,143.49 304.316,143.49L302.484,143.49L302.484,150.711ZM304.22,152.311L300.582,152.311L300.582,143.49L299.078,143.49L299.078,141.892L304.236,141.892C306.306,141.892 307.892,142.374 308.951,143.323C310.002,144.298 310.531,145.57 310.531,147.107C310.531,148.479 310.056,149.695 309.121,150.727C308.168,151.777 306.517,152.311 304.22,152.311" style="fill:rgb(116,194,227);fill-rule:nonzero;"/>
        </g>
        <g transform="matrix(4.16667,0,0,4.16667,0,0)">
            <path d="M319.266,145.996L321.131,145.996C321.819,145.996 322.352,145.873 322.713,145.629C323.014,145.422 323.157,145.131 323.157,144.715C323.157,144.341 323.026,144.069 322.745,143.861C322.418,143.614 321.973,143.49 321.418,143.49L319.266,143.49L319.266,145.996ZM319.266,152.322L317.364,152.322L317.364,143.49L315.764,143.49L315.764,141.892L321.612,141.892C322.577,141.892 323.391,142.143 324.032,142.638C324.711,143.153 325.057,143.829 325.057,144.644C325.057,145.381 324.813,146.014 324.332,146.529C323.965,146.9 323.448,147.182 322.789,147.373L324.541,150.713L326.129,150.713L326.129,152.309L323.303,152.309L320.856,147.594L319.266,147.594L319.266,152.322Z" style="fill:rgb(116,194,227);fill-rule:nonzero;"/>
        </g>
        <g transform="matrix(4.16667,0,0,4.16667,0,0)">
            <path d="M333.686,143.837C333.411,143.837 333.15,143.746 332.915,143.566C332.657,143.314 332.543,143.066 332.543,142.795C332.543,142.52 332.659,142.26 332.878,142.043C333.426,141.616 333.984,141.65 334.457,142.011C334.715,142.263 334.828,142.512 334.828,142.781C334.828,143.056 334.713,143.317 334.493,143.534C334.221,143.745 333.96,143.837 333.686,143.837M336.125,152.308L333.006,152.308L332.991,146.355L331.662,146.355L331.662,144.757L334.828,144.757L334.828,150.712L336.125,150.712L336.125,152.308Z" style="fill:rgb(116,194,227);fill-rule:nonzero;"/>
        </g>
        <g transform="matrix(4.16667,0,0,4.16667,0,0)">
            <path d="M352.441,152.436L350.839,152.436L345.05,144.724L345.05,150.711L346.585,150.711L346.585,152.311L343.293,152.311L343.293,143.49L341.837,143.49L341.837,141.892L345.154,141.892C345.154,141.892 350.427,148.903 350.683,149.252L350.683,141.892L353.849,141.892L353.849,143.49L352.441,143.49L352.441,152.436Z" style="fill:rgb(116,194,227);fill-rule:nonzero;"/>
        </g>
        <g transform="matrix(4.16667,0,0,4.16667,0,0)">
            <path d="M370.711,152.311L368.18,152.311L367.414,151.529L363.656,147.92L363.656,150.711L365.16,150.711L365.16,152.311L361.754,152.311L361.754,143.49L360.315,143.49L360.315,141.892L365.145,141.892L365.145,143.49L363.656,143.49L363.656,145.877L368.311,141.892L370.488,141.892L370.488,143.49L369.004,143.49L365.15,146.802L369.254,150.711L370.711,150.711L370.711,152.311Z" style="fill:rgb(116,194,227);fill-rule:nonzero;"/>
        </g>
        <g transform="matrix(4.16667,0,0,4.16667,0,0)">
            <path d="M101.604,115.183L95.185,115.183C94.542,115.183 94.268,114.877 94.268,114.164L95.276,68.921L82.163,105.401C82.071,105.604 81.794,105.91 81.336,106.012L78.218,106.012C77.761,105.91 77.485,105.604 77.393,105.401L64.462,68.819L65.289,114.164C65.289,114.877 65.013,115.183 64.372,115.183L57.951,115.183C57.309,115.183 57.034,114.877 57.034,114.164L57.034,52.006C57.034,51.293 57.309,50.987 57.951,50.987L64.28,50.987C64.647,50.987 65.013,51.191 65.105,51.598L79.595,92.052L79.869,92.052L94.268,51.497L95.092,50.885L101.604,50.987C102.246,50.987 102.521,51.293 102.521,52.006L102.521,114.164C102.521,114.877 102.246,115.183 101.604,115.183" style="fill:rgb(111,193,226);fill-rule:nonzero;"/>
        </g>
        <g transform="matrix(4.16667,0,0,4.16667,0,0)">
            <path d="M120.86,115.183L114.441,115.183C113.799,115.183 113.524,114.877 113.524,114.164L113.524,52.006C113.524,51.293 113.799,50.987 114.441,50.987L120.86,50.987C121.41,50.987 121.777,51.293 121.777,52.006L121.777,114.164C121.777,114.877 121.503,115.183 120.86,115.183" style="fill:rgb(111,193,226);fill-rule:nonzero;"/>
        </g>
        <g transform="matrix(4.16667,0,0,4.16667,0,0)">
            <path d="M164.878,115.183L133.698,115.183C133.057,115.183 132.781,114.877 132.781,114.164L132.781,52.006C132.781,51.293 133.057,50.987 133.698,50.987L140.118,50.987C140.668,50.987 141.035,51.293 141.035,52.006L141.035,106.012C141.035,106.725 141.311,107.031 141.952,107.031L164.878,107.031C165.428,107.031 165.795,107.337 165.795,108.05L165.795,114.164C165.795,114.877 165.521,115.183 164.878,115.183" style="fill:rgb(111,193,226);fill-rule:nonzero;"/>
        </g>
        <g transform="matrix(4.16667,0,0,4.16667,0,0)">
            <path d="M199.267,68.31C199.267,63.215 195.599,59.139 191.014,59.139L180.926,59.139C180.285,59.139 180.009,59.445 180.009,60.158L180.009,106.012C180.009,106.726 180.285,107.031 180.926,107.031L191.014,107.031C195.599,107.031 199.267,102.853 199.267,97.86L199.267,68.31ZM191.014,115.183L172.672,115.183C172.031,115.183 171.755,114.877 171.755,114.164L171.755,52.006C171.755,51.293 172.031,50.987 172.672,50.987L191.014,50.987C201.101,50.987 207.52,58.12 207.52,69.329L207.52,96.841C207.52,108.152 201.193,115.183 191.014,115.183" style="fill:rgb(111,193,226);fill-rule:nonzero;"/>
        </g>
        <g transform="matrix(4.16667,0,0,4.16667,0,0)">
            <path d="M241.914,68.31C241.914,63.215 238.246,59.139 233.66,59.139L223.573,59.139C222.93,59.139 222.656,59.445 222.656,60.158L222.656,77.481C222.656,78.194 222.93,78.499 223.573,78.499L233.66,78.499C238.246,78.499 241.914,74.424 241.914,69.329L241.914,68.31ZM250.717,114.368C250.717,114.877 250.35,115.183 249.801,115.183L242.738,115.183L241.914,114.47L233.385,87.263L232.651,86.652L223.573,86.652C222.93,86.652 222.656,86.957 222.656,87.67L222.656,114.164C222.656,114.877 222.38,115.183 221.738,115.183L215.319,115.183C214.677,115.183 214.401,114.877 214.401,114.164L214.401,52.006C214.401,51.293 214.677,50.987 215.319,50.987L233.66,50.987C243.748,50.987 250.166,58.12 250.166,69.329L250.166,70.348C250.166,73.914 248.424,78.296 244.939,81.964C243.289,83.697 241.639,84.002 241.639,85.021C241.639,85.123 241.639,85.225 241.73,85.327L250.625,113.858C250.717,114.062 250.717,114.164 250.717,114.368" style="fill:rgb(111,193,226);fill-rule:nonzero;"/>
        </g>
        <g transform="matrix(4.16667,0,0,4.16667,0,0)">
            <path d="M289.6,115.183L258.42,115.183C257.778,115.183 257.502,114.877 257.502,114.164L257.502,52.006C257.502,51.293 257.778,50.987 258.42,50.987L289.6,50.987C290.151,50.987 290.516,51.293 290.516,52.006L290.516,58.12C290.516,58.833 290.241,59.139 289.6,59.139L266.674,59.139C266.032,59.139 265.756,59.445 265.756,60.158L265.756,77.481C265.756,78.194 266.032,78.499 266.674,78.499L285.473,78.499C286.116,78.499 286.389,78.805 286.389,79.518L286.389,85.633C286.389,86.346 286.116,86.652 285.473,86.652L266.674,86.652C266.032,86.652 265.756,86.957 265.756,87.67L265.756,106.012C265.756,106.725 266.032,107.031 266.674,107.031L289.6,107.031C290.151,107.031 290.516,107.337 290.516,108.05L290.516,114.164C290.516,114.877 290.241,115.183 289.6,115.183" style="fill:rgb(111,193,226);fill-rule:nonzero;"/>
        </g>
        <g transform="matrix(4.16667,0,0,4.16667,0,0)">
            <path d="M325.363,68.31C325.363,63.215 321.695,59.139 317.109,59.139L307.023,59.139C306.381,59.139 306.105,59.445 306.105,60.158L306.105,106.012C306.105,106.726 306.381,107.031 307.023,107.031L317.109,107.031C321.695,107.031 325.363,102.853 325.363,97.86L325.363,68.31ZM317.109,115.183L298.769,115.183C298.127,115.183 297.851,114.877 297.851,114.164L297.851,52.006C297.851,51.293 298.127,50.987 298.769,50.987L317.109,50.987C327.197,50.987 333.617,58.12 333.617,69.329L333.617,96.841C333.617,108.152 327.289,115.183 317.109,115.183" style="fill:rgb(111,193,226);fill-rule:nonzero;"/>
        </g>
        <g transform="matrix(4.16667,0,0,4.16667,0,0)">
            <path d="M347.828,67.291C347.828,72.793 352.322,74.73 359.75,78.602C369.471,83.595 374.056,88.894 374.056,98.879C374.056,109.171 367.545,116.202 357.549,116.202L353.697,116.202C349.295,116.202 345.719,114.98 343.701,113.247C340.125,110.19 338.474,107.337 338.474,105.707C338.474,105.401 338.658,105.197 339.025,104.993L344.803,101.732C344.986,101.631 345.17,101.529 345.26,101.529C345.627,101.529 345.81,101.835 346.086,102.242C348.195,105.401 349.478,108.05 353.697,108.05L357.549,108.05C362.043,108.05 365.803,103.974 365.803,98.879C365.803,93.071 361.859,90.524 354.707,86.856C344.894,81.76 339.574,77.685 339.574,67.291C339.574,56.897 346.086,49.968 356.082,49.968L357.549,49.968C366.537,49.968 372.771,56.388 372.771,60.26C372.771,60.566 372.588,60.872 372.223,61.075L366.353,64.336C366.17,64.438 365.986,64.438 365.894,64.438C365.527,64.438 365.435,64.234 365.16,63.827C363.051,60.668 361.492,58.12 357.549,58.12L356.082,58.12C351.588,58.12 347.828,62.094 347.828,67.291" style="fill:rgb(111,193,226);fill-rule:nonzero;"/>
        </g>
        <g transform="matrix(4.16667,0,0,4.16667,0,0)">
            <path d="M104.002,115.183L97.583,115.183C96.939,115.183 96.665,114.877 96.665,114.164L97.674,68.921L84.561,105.401C84.469,105.604 84.192,105.91 83.734,106.012L80.617,106.012C80.159,105.91 79.883,105.604 79.792,105.401L66.86,68.819L67.687,114.164C67.687,114.877 67.412,115.183 66.77,115.183L60.35,115.183C59.708,115.183 59.433,114.877 59.433,114.164L59.433,52.006C59.433,51.293 59.708,50.987 60.35,50.987L66.678,50.987C67.044,50.987 67.412,51.191 67.503,51.598L81.993,92.052L82.268,92.052L96.665,51.497L97.491,50.885L104.002,50.987C104.644,50.987 104.919,51.293 104.919,52.006L104.919,114.164C104.919,114.877 104.644,115.183 104.002,115.183" style="fill:white;fill-rule:nonzero;"/>
        </g>
        <g transform="matrix(4.16667,0,0,4.16667,0,0)">
            <path d="M123.259,115.183L116.839,115.183C116.197,115.183 115.923,114.877 115.923,114.164L115.923,52.006C115.923,51.293 116.197,50.987 116.839,50.987L123.259,50.987C123.809,50.987 124.176,51.293 124.176,52.006L124.176,114.164C124.176,114.877 123.902,115.183 123.259,115.183" style="fill:white;fill-rule:nonzero;"/>
        </g>
        <g transform="matrix(4.16667,0,0,4.16667,0,0)">
            <path d="M167.276,115.183L136.096,115.183C135.455,115.183 135.179,114.877 135.179,114.164L135.179,52.006C135.179,51.293 135.455,50.987 136.096,50.987L142.516,50.987C143.066,50.987 143.433,51.293 143.433,52.006L143.433,106.012C143.433,106.725 143.709,107.031 144.35,107.031L167.276,107.031C167.826,107.031 168.193,107.337 168.193,108.05L168.193,114.164C168.193,114.877 167.919,115.183 167.276,115.183" style="fill:white;fill-rule:nonzero;"/>
        </g>
        <g transform="matrix(4.16667,0,0,4.16667,0,0)">
            <path d="M201.665,68.31C201.665,63.215 197.997,59.139 193.412,59.139L183.324,59.139C182.683,59.139 182.407,59.445 182.407,60.158L182.407,106.012C182.407,106.726 182.683,107.031 183.324,107.031L193.412,107.031C197.997,107.031 201.665,102.853 201.665,97.86L201.665,68.31ZM193.412,115.183L175.07,115.183C174.429,115.183 174.153,114.877 174.153,114.164L174.153,52.006C174.153,51.293 174.429,50.987 175.07,50.987L193.412,50.987C203.499,50.987 209.918,58.12 209.918,69.329L209.918,96.841C209.918,108.152 203.591,115.183 193.412,115.183" style="fill:white;fill-rule:nonzero;"/>
        </g>
        <g transform="matrix(4.16667,0,0,4.16667,0,0)">
            <path d="M244.313,68.31C244.313,63.215 240.645,59.139 236.059,59.139L225.972,59.139C225.329,59.139 225.055,59.445 225.055,60.158L225.055,77.481C225.055,78.194 225.329,78.499 225.972,78.499L236.059,78.499C240.645,78.499 244.313,74.424 244.313,69.329L244.313,68.31ZM253.116,114.368C253.116,114.877 252.749,115.183 252.2,115.183L245.137,115.183L244.313,114.47L235.784,87.263L235.049,86.652L225.972,86.652C225.329,86.652 225.055,86.957 225.055,87.67L225.055,114.164C225.055,114.877 224.779,115.183 224.137,115.183L217.718,115.183C217.076,115.183 216.801,114.877 216.801,114.164L216.801,52.006C216.801,51.293 217.076,50.987 217.718,50.987L236.059,50.987C246.147,50.987 252.565,58.12 252.565,69.329L252.565,70.348C252.565,73.914 250.823,78.296 247.338,81.964C245.688,83.697 244.038,84.002 244.038,85.021C244.038,85.123 244.038,85.225 244.129,85.327L253.024,113.858C253.116,114.062 253.116,114.164 253.116,114.368" style="fill:white;fill-rule:nonzero;"/>
        </g>
        <g transform="matrix(4.16667,0,0,4.16667,0,0)">
            <path d="M291.998,115.183L260.818,115.183C260.176,115.183 259.9,114.877 259.9,114.164L259.9,52.006C259.9,51.293 260.176,50.987 260.818,50.987L291.998,50.987C292.549,50.987 292.914,51.293 292.914,52.006L292.914,58.12C292.914,58.833 292.639,59.139 291.998,59.139L269.072,59.139C268.43,59.139 268.154,59.445 268.154,60.158L268.154,77.481C268.154,78.194 268.43,78.499 269.072,78.499L287.871,78.499C288.514,78.499 288.787,78.805 288.787,79.518L288.787,85.633C288.787,86.346 288.514,86.652 287.871,86.652L269.072,86.652C268.43,86.652 268.154,86.957 268.154,87.67L268.154,106.012C268.154,106.725 268.43,107.031 269.072,107.031L291.998,107.031C292.549,107.031 292.914,107.337 292.914,108.05L292.914,114.164C292.914,114.877 292.639,115.183 291.998,115.183" style="fill:white;fill-rule:nonzero;"/>
        </g>
        <g transform="matrix(4.16667,0,0,4.16667,0,0)">
            <path d="M327.762,68.31C327.762,63.215 324.094,59.139 319.508,59.139L309.422,59.139C308.78,59.139 308.504,59.445 308.504,60.158L308.504,106.012C308.504,106.726 308.78,107.031 309.422,107.031L319.508,107.031C324.094,107.031 327.762,102.853 327.762,97.86L327.762,68.31ZM319.508,115.183L301.168,115.183C300.526,115.183 300.25,114.877 300.25,114.164L300.25,52.006C300.25,51.293 300.526,50.987 301.168,50.987L319.508,50.987C329.596,50.987 336.016,58.12 336.016,69.329L336.016,96.841C336.016,108.152 329.688,115.183 319.508,115.183" style="fill:white;fill-rule:nonzero;"/>
        </g>
        <g transform="matrix(4.16667,0,0,4.16667,0,0)">
            <path d="M350.219,67.291C350.219,72.793 354.713,74.73 362.141,78.602C371.862,83.595 376.448,88.894 376.448,98.879C376.448,109.171 369.936,116.202 359.94,116.202L356.088,116.202C351.686,116.202 348.11,114.98 346.092,113.247C342.516,110.19 340.865,107.337 340.865,105.707C340.865,105.401 341.049,105.197 341.416,104.993L347.194,101.732C347.377,101.631 347.561,101.529 347.651,101.529C348.018,101.529 348.201,101.835 348.477,102.242C350.586,105.401 351.869,108.05 356.088,108.05L359.94,108.05C364.434,108.05 368.194,103.974 368.194,98.879C368.194,93.071 364.25,90.524 357.098,86.856C347.285,81.76 341.965,77.685 341.965,67.291C341.965,56.897 348.477,49.968 358.473,49.968L359.94,49.968C368.928,49.968 375.162,56.388 375.162,60.26C375.162,60.566 374.979,60.872 374.615,61.075L368.744,64.336C368.561,64.438 368.377,64.438 368.285,64.438C367.918,64.438 367.826,64.234 367.551,63.827C365.442,60.668 363.883,58.12 359.94,58.12L358.473,58.12C353.979,58.12 350.219,62.094 350.219,67.291" style="fill:white;fill-rule:nonzero;"/>
        </g>
        <g transform="matrix(4.16667,0,0,4.16667,0,0)">
            <path d="M336.094,50.22L341.61,50.22L341.61,63.201L341.461,63.201L336.094,56.71L336.094,50.22Z" style="fill:rgb(111,193,226);fill-rule:nonzero;"/>
        </g>
        <g transform="matrix(4.16667,0,0,4.16667,0,0)">
            <path d="M337.937,50.22L343.453,50.22L343.453,63.201L343.304,63.201L337.937,56.71L337.937,50.22Z" style="fill:white;fill-rule:nonzero;"/>
        </g>
    </g>
</svg>
