<?xml version="1.0" standalone="no"?>
<!DOCTYPE svg PUBLIC "-//W3C//DTD SVG 1.1//EN" "http://www.w3.org/Graphics/SVG/1.1/DTD/svg11.dtd">
<svg width="100%" height="100%" viewBox="0 0 342 63" version="1.1" xmlns="http://www.w3.org/2000/svg" xmlns:xlink="http://www.w3.org/1999/xlink" xml:space="preserve" style="fill-rule:evenodd;clip-rule:evenodd;stroke-linejoin:round;stroke-miterlimit:1.41421;">
    <g transform="matrix(1,0,0,1,-508.671,-968.742)">
        <g transform="matrix(4.16667,0,0,4.16667,0,-1815.61)">
            <clipPath id="_clip1">
                <rect x="122.081" y="668.245" width="81.885" height="15.004"/>
            </clipPath>
            <g clip-path="url(#_clip1)">
                <path d="M122.081,672.305L124.843,672.305L124.843,673.748L124.884,673.748C125.647,672.655 126.76,672.017 128.14,672.017C129.48,672.017 130.676,672.511 131.252,673.789C131.871,672.862 132.984,672.017 134.468,672.017C136.735,672.017 138.363,673.068 138.363,675.829L138.363,682.961L135.436,682.961L135.436,676.922C135.436,675.5 135.313,674.325 133.643,674.325C131.995,674.325 131.685,675.685 131.685,677.025L131.685,682.961L128.759,682.961L128.759,676.984C128.759,675.747 128.841,674.325 126.986,674.325C126.409,674.325 125.008,674.696 125.008,676.777L125.008,682.961L122.081,682.961L122.081,672.305Z" style="fill:black;fill-rule:nonzero;"/>
                <path d="M145.845,681.044C147.844,681.044 148.442,679.333 148.442,677.643C148.442,675.933 147.844,674.222 145.845,674.222C143.866,674.222 143.269,675.933 143.269,677.643C143.269,679.333 143.866,681.044 145.845,681.044M145.845,672.017C149.204,672.017 151.368,674.243 151.368,677.643C151.368,681.023 149.204,683.249 145.845,683.249C142.506,683.249 140.342,681.023 140.342,677.643C140.342,674.243 142.506,672.017 145.845,672.017" style="fill:black;fill-rule:nonzero;"/>
                <path d="M158.583,674.222C156.852,674.222 156.089,675.85 156.089,677.643C156.089,679.416 156.852,681.044 158.583,681.044C160.314,681.044 161.077,679.416 161.077,677.643C161.077,675.85 160.314,674.222 158.583,674.222M153.265,668.245L156.192,668.245L156.192,673.604L156.233,673.604C156.955,672.511 158.274,672.017 159.593,672.017C161.716,672.017 164.003,673.727 164.003,677.623C164.003,681.539 161.716,683.249 159.593,683.249C158.027,683.249 156.728,682.775 156.089,681.6L156.048,681.6L156.048,682.961L153.265,682.961L153.265,668.245Z" style="fill:black;fill-rule:nonzero;"/>
                <path d="M172.495,677.747C172.001,678.18 170.97,678.2 170.063,678.365C169.156,678.551 168.332,678.86 168.332,679.931C168.332,681.024 169.177,681.291 170.125,681.291C172.413,681.291 172.495,679.478 172.495,678.839L172.495,677.747ZM165.735,675.583C165.9,672.842 168.353,672.017 170.743,672.017C172.866,672.017 175.422,672.491 175.422,675.046L175.422,680.591C175.422,681.56 175.525,682.529 175.793,682.961L172.825,682.961C172.722,682.632 172.639,682.281 172.619,681.93C171.691,682.9 170.331,683.25 169.033,683.25C167.013,683.25 165.405,682.24 165.405,680.055C165.405,677.644 167.219,677.067 169.033,676.819C170.826,676.551 172.495,676.613 172.495,675.418C172.495,674.161 171.629,673.974 170.599,673.974C169.486,673.974 168.765,674.429 168.661,675.583L165.735,675.583Z" style="fill:black;fill-rule:nonzero;"/>
                <path d="M178.101,672.305L180.883,672.305L180.883,673.789L180.945,673.789C181.687,672.594 182.965,672.017 184.202,672.017C187.314,672.017 188.097,673.768 188.097,676.407L188.097,682.961L185.17,682.961L185.17,676.942C185.17,675.191 184.655,674.325 183.295,674.325C181.708,674.325 181.028,675.211 181.028,677.375L181.028,682.961L178.101,682.961L178.101,672.305Z" style="fill:black;fill-rule:nonzero;"/>
                <path d="M190.591,668.245L193.518,668.245L193.518,676.139L197.207,672.305L200.669,672.305L196.651,676.221L201.123,682.961L197.578,682.961L194.651,678.2L193.518,679.292L193.518,682.961L190.591,682.961L190.591,668.245Z" style="fill:black;fill-rule:nonzero;"/>
                <path d="M202.714,680.761C202.169,680.761 201.759,681.183 201.759,681.742C201.759,682.309 202.169,682.736 202.714,682.736C203.255,682.736 203.663,682.309 203.663,681.742C203.663,681.192 203.246,680.761 202.714,680.761M202.714,682.998C202.008,682.998 201.455,682.446 201.455,681.742C201.455,681.057 202.02,680.499 202.714,680.499C203.405,680.499 203.966,681.057 203.966,681.742C203.966,682.446 203.416,682.998 202.714,682.998" style="fill:black;fill-rule:nonzero;"/>
                <path d="M202.48,681.617L202.658,681.617C202.879,681.617 202.971,681.592 202.971,681.436C202.971,681.319 202.895,681.27 202.716,681.27L202.48,681.27L202.48,681.617ZM203.324,682.444L203.005,682.444L202.639,681.866L202.48,681.866L202.48,682.444L202.191,682.444L202.191,681.021L202.75,681.021C203.089,681.021 203.26,681.164 203.26,681.445C203.26,681.659 203.145,681.798 202.934,681.841L203.324,682.444Z" style="fill:black;fill-rule:nonzero;"/>
            </g>
        </g>
    </g>
</svg>
