<?xml version="1.0" standalone="no"?>
<!DOCTYPE svg PUBLIC "-//W3C//DTD SVG 1.1//EN" "http://www.w3.org/Graphics/SVG/1.1/DTD/svg11.dtd">
<svg width="100%" height="100%" viewBox="0 0 309 110" version="1.1" xmlns="http://www.w3.org/2000/svg" xmlns:xlink="http://www.w3.org/1999/xlink" xml:space="preserve" style="fill-rule:evenodd;clip-rule:evenodd;stroke-linejoin:round;stroke-miterlimit:1.41421;">
    <g transform="matrix(1,0,0,1,-830.188,-740.361)">
        <g transform="matrix(4.16667,0,0,4.16667,-430.19,-2024.37)">
            <path d="M335.618,672.777C335.636,668.752 338.139,665.376 341.574,664.098C344.959,662.838 348.723,663.729 351.082,666.468C352.728,668.378 353.787,670.579 353.91,673.141C353.987,674.747 353.413,676.171 352.417,677.397C350.912,679.25 348.991,680.486 346.651,681.036C344.714,681.492 342.873,681.115 341.144,680.25C340.122,679.739 338.995,679.218 338.264,678.392C336.722,676.65 335.736,674.571 335.618,672.777M347.894,674.104C347.492,674.878 347.21,675.632 346.751,676.256C346.18,677.035 345.286,677.268 344.364,677.051C343.667,676.888 343.193,676.353 343.045,675.649C342.807,674.507 343.123,673.504 344.04,672.754C344.519,672.363 345.057,672.046 345.572,671.693C344.44,671.058 344.009,670.66 343.704,669.97C343.277,669.002 343.597,667.896 344.461,667.351C344.996,667.015 345.841,666.959 346.19,667.302C346.577,667.681 346.698,668.169 346.48,668.691C346.338,669.031 346.166,669.358 346.005,669.696C346.783,670.237 347.683,670.01 347.819,669.158C347.986,668.109 347.853,667.172 346.526,666.67C345.347,666.224 344.156,666.279 343.033,666.831C340.983,667.838 340.8,670.192 342.639,671.537C342.738,671.609 342.831,671.687 342.998,671.818C342.846,671.852 342.775,671.864 342.707,671.885C341.165,672.358 340.338,673.453 340.158,675.003C340.018,676.208 340.439,677.242 341.455,677.98C342.63,678.834 344.806,678.831 346.134,677.958C347.296,677.194 347.851,676.017 348.238,674.747C348.39,674.25 348.629,673.966 349.153,673.76C350.009,673.423 350.697,672.825 350.928,671.739C350.14,672.372 350.029,672.412 349.107,672.409C348.684,672.408 348.26,672.385 347.838,672.4C346.43,672.45 345.265,673.394 345.069,674.752C345.824,673.74 346.774,673.972 347.894,674.104" style="fill:black;fill-rule:nonzero;"/>
        </g>
        <g transform="matrix(4.16667,0,0,4.16667,-430.19,-2024.37)">
            <path d="M354.972,663.614C355.961,663.694 356.956,663.734 357.934,663.881C358.199,663.921 358.536,664.242 358.633,664.509C359.34,666.459 359.989,668.429 360.672,670.388C360.774,670.681 360.937,670.955 361.099,671.222C361.374,671.674 361.677,671.481 361.889,671.183C362.105,670.881 362.277,670.536 362.406,670.187C363.09,668.328 363.754,666.462 364.429,664.6C364.501,664.403 364.569,664.187 364.7,664.032C364.862,663.841 365.166,663.535 365.273,663.582C365.502,663.684 365.703,663.957 365.807,664.205C365.964,664.575 365.984,665.004 366.14,665.376C366.837,667.04 367.547,668.699 368.287,670.344C368.457,670.722 368.766,671.038 369.012,671.382C369.287,671.079 369.613,670.807 369.828,670.466C370.679,669.109 370.849,667.532 371.194,666.014C371.241,665.808 371.274,665.6 371.317,665.393C371.597,664.026 371.941,663.779 373.34,663.836C374.228,663.872 375.118,663.833 376.007,663.852C376.655,663.866 376.758,664.069 376.511,664.668C374.333,669.952 372.163,675.239 369.977,680.52C369.876,680.764 369.645,680.954 369.474,681.17C369.291,680.957 369.047,680.772 368.936,680.526C367.871,678.185 366.828,675.833 365.782,673.483C365.716,673.335 365.715,673.144 365.618,673.026C365.438,672.806 365.232,672.513 364.994,672.466C364.822,672.431 364.542,672.714 364.382,672.914C364.216,673.121 364.123,673.393 364.022,673.645C363.217,675.649 362.418,677.655 361.615,679.659C361.467,680.029 361.346,680.417 361.146,680.758C360.836,681.289 360.475,681.265 360.171,680.727C360.11,680.617 360.078,680.491 360.03,680.374C358.125,675.705 356.222,671.036 354.311,666.37C354.087,665.824 353.827,665.294 353.571,664.763C353.308,664.217 353.406,663.924 353.975,663.751C354.295,663.653 354.635,663.621 354.967,663.559C354.968,663.577 354.97,663.596 354.972,663.614" style="fill:black;fill-rule:nonzero;"/>
        </g>
        <g transform="matrix(4.16667,0,0,4.16667,-430.19,-2024.37)">
            <path d="M329.049,672.12C329.049,669.763 329.105,667.589 329.028,665.42C328.981,664.089 329.37,663.613 330.686,663.741C331.336,663.805 331.991,663.829 332.644,663.836C333.43,663.845 333.624,663.989 333.615,664.792C333.593,666.757 333.522,668.722 333.506,670.688C333.486,673.229 333.497,675.769 333.501,678.31C333.502,679.13 333.574,679.952 333.519,680.768C333.479,681.378 333.301,681.436 332.814,681.043C330.941,679.531 329.088,677.994 327.221,676.475C326.239,675.676 325.232,674.908 324.258,674.1C323.857,673.768 323.539,673.335 323.132,673.011C322.687,672.656 322.287,672.758 322.228,673.31C322.137,674.153 322.214,675.016 322.246,675.869C322.303,677.431 322.393,678.991 322.429,680.554C322.432,680.715 322.189,680.955 322.007,681.03C321.765,681.13 321.47,681.131 321.198,681.126C320.503,681.114 319.808,681.054 319.112,681.052C318.184,681.051 317.981,680.961 317.958,680C317.911,678.078 317.969,676.153 317.971,674.229C317.975,671.034 317.961,667.84 317.977,664.646C317.978,664.337 318.139,664.029 318.226,663.721C318.55,663.83 318.94,663.858 319.186,664.061C321.793,666.213 324.379,668.39 326.964,670.569C327.384,670.923 327.752,671.339 328.176,671.687C328.38,671.854 328.659,671.932 329.049,672.12" style="fill:black;fill-rule:nonzero;"/>
        </g>
        <g transform="matrix(4.16667,0,0,4.16667,-430.19,-2024.37)">
            <path d="M309.547,681.321C307.085,681.321 304.92,680.519 303.013,678.988C302.332,678.442 302.312,678.037 302.979,677.518C303.613,677.025 304.265,676.555 304.926,676.099C305.58,675.648 305.872,675.662 306.423,676.225C307.502,677.327 308.801,677.599 310.263,677.315C310.818,677.207 311.264,676.95 311.36,676.335C311.467,675.654 311.259,675.252 310.538,674.967C309.273,674.466 307.974,674.049 306.708,673.55C304.525,672.691 303.366,671.059 303.414,668.719C303.456,666.7 304.43,664.977 306.642,664.159C309.307,663.173 311.878,663.547 314.279,665.05C315.053,665.536 315.114,665.988 314.482,666.681C313.957,667.258 313.404,667.821 312.794,668.303C312.616,668.444 312.136,668.39 311.907,668.246C310.962,667.653 309.99,667.258 308.868,667.585C308.337,667.74 307.936,668.052 307.955,668.708C307.973,669.313 308.296,669.567 308.841,669.753C310.298,670.248 311.761,670.744 313.174,671.349C316.625,672.828 316.679,677.404 314.671,679.551C313.763,680.521 312.548,680.967 311.246,681.151C310.683,681.231 310.114,681.266 309.547,681.321" style="fill:black;fill-rule:nonzero;"/>
        </g>
        <g transform="matrix(4.16667,0,0,4.16667,-430.19,-2024.37)">
            <path d="M338.309,685.329C338.563,684.408 338.745,684.026 339.135,683.487C340.413,681.718 343.632,682.151 344.774,684.06C344.412,684.349 344.042,684.645 343.684,684.932C341.905,683.972 341.141,683.948 340.525,684.816C339.893,685.708 339.984,686.971 340.73,687.658C341.518,688.383 342.478,688.261 343.663,687.243C344.055,687.515 344.464,687.799 344.866,688.078C344.576,688.955 343.607,689.539 342.553,689.656C340.403,689.893 339.12,689.09 338.372,687.139C338.15,686.663 338.254,685.805 338.309,685.329" style="fill:black;fill-rule:nonzero;"/>
        </g>
        <g transform="matrix(4.16667,0,0,4.16667,-430.19,-2024.37)">
            <path d="M345.258,686.314C345.283,684.185 346.879,682.516 348.871,682.539C351.02,682.563 352.768,684.166 352.744,686.092C352.718,688.16 351.11,689.685 349.028,689.703C347.278,689.718 345.073,687.953 345.258,686.314M347.201,686.127C347.217,687.309 347.939,688.015 349.119,687.998C350.179,687.984 350.802,687.226 350.787,685.971C350.776,685.075 349.794,684.177 348.83,684.183C347.857,684.189 347.186,684.99 347.201,686.127" style="fill:black;fill-rule:nonzero;"/>
        </g>
        <g transform="matrix(4.16667,0,0,4.16667,-430.19,-2024.37)">
            <path d="M353.876,689.646C353.254,689.64 352.92,689.292 352.918,688.649C352.916,688.094 353.276,687.738 353.829,687.749C354.4,687.76 354.832,688.262 354.829,688.912C354.827,689.426 354.532,689.653 353.876,689.646" style="fill:black;fill-rule:nonzero;"/>
        </g>
    </g>
</svg>
